<svg width="23" height="23" viewBox="0 0 23 23" fill="none" xmlns="http://www.w3.org/2000/svg">
<path fill-rule="evenodd" clip-rule="evenodd" d="M16.5642 17.471C19.6136 14.4216 19.6136 9.47754 16.5642 6.42815C13.5148 3.37876 8.57081 3.37876 5.52141 6.42815C2.47202 9.47754 2.47202 14.4216 5.52141 17.471C8.57081 20.5204 13.5148 20.5204 16.5642 17.471ZM15.479 16.3856C17.929 13.9356 17.929 9.96336 15.479 7.51339C13.029 5.06341 9.05681 5.06343 6.60681 7.51343C4.15681 9.96342 4.1568 13.9356 6.60677 16.3856C9.05675 18.8356 13.029 18.8356 15.479 16.3856Z" fill="white"/>
<rect x="15.674" y="17.7899" width="1.66608" height="5.33568" transform="rotate(-45 15.674 17.7899)" fill="white"/>
</svg>
