<?xml version="1.0" encoding="utf-8"?><svg xmlns="http://www.w3.org/2000/svg" xmlns:xlink="http://www.w3.org/1999/xlink"><symbol fill="none" viewBox="0 0 38 29" id="calendar" xmlns="http://www.w3.org/2000/svg"><path d="M5.673 25.15a2.869 2.869 0 01-2.875 2.876C1.166 28.026 0 26.705 0 25.151a2.869 2.869 0 012.875-2.875c1.632 0 2.798 1.32 2.798 2.875zm0-10.8a2.869 2.869 0 01-2.875 2.874C1.166 17.224 0 15.904 0 14.35a2.869 2.869 0 012.875-2.875c1.632 0 2.798 1.321 2.798 2.875zm10.801 10.8a2.869 2.869 0 01-2.875 2.876 2.869 2.869 0 01-2.875-2.875c0-1.632 1.243-2.875 2.875-2.875 1.554 0 2.875 1.32 2.875 2.875zm0-10.8a2.869 2.869 0 01-2.875 2.874 2.868 2.868 0 01-2.875-2.875c0-1.632 1.243-2.875 2.875-2.875 1.554.078 2.875 1.321 2.875 2.875zm21.526 0a2.868 2.868 0 01-2.875 2.874 2.869 2.869 0 01-2.876-2.875c0-1.632 1.244-2.875 2.876-2.875 1.554.078 2.875 1.321 2.875 2.875zm0-10.725a2.869 2.869 0 01-2.875 2.876 2.869 2.869 0 01-2.876-2.876A2.869 2.869 0 0135.125.75 2.869 2.869 0 0138 3.625zM27.198 25.15a2.869 2.869 0 01-2.875 2.876c-1.632 0-2.875-1.243-2.875-2.875s1.243-2.875 2.875-2.875a2.869 2.869 0 012.875 2.875zm0-10.8a2.869 2.869 0 01-2.875 2.874c-1.632 0-2.875-1.243-2.875-2.875s1.243-2.875 2.875-2.875a2.869 2.869 0 012.875 2.875zm0-10.725a2.869 2.869 0 01-2.875 2.876c-1.632 0-2.875-1.244-2.875-2.876S22.847.75 24.4.75c1.554 0 2.797 1.243 2.797 2.875z" fill="#211700"/></symbol><symbol fill="none" viewBox="0 0 77 87" id="logo" xmlns="http://www.w3.org/2000/svg"><path d="M71.888 48.065c-2.418 0-4.383-2.046-4.383-4.563V24.034c0-2.517 1.965-4.563 4.383-4.563s4.383 2.046 4.383 4.563v19.468c0 2.517-1.965 4.563-4.383 4.563z" fill="url(#bpaint0_linear)"/><path d="M71.888 28.597a4.228 4.228 0 01-2.119-.57L36.017 8.559c-2.119-1.224-2.886-4-1.71-6.205C35.484.148 38.15-.65 40.27.574l33.75 19.468c2.119 1.224 2.886 4 1.71 6.205-.811 1.506-2.302 2.35-3.843 2.35z" fill="url(#bpaint1_linear)"/><path d="M4.39 28.597c-1.54 0-3.038-.852-3.835-2.35-1.176-2.205-.409-4.98 1.71-6.205L36.017.574c2.119-1.224 4.785-.426 5.961 1.78 1.177 2.205.41 4.98-1.709 6.205L6.517 28.027c-.68.387-1.41.57-2.126.57z" fill="url(#bpaint2_linear)"/><path d="M38.136 48.065a4.23 4.23 0 01-2.119-.57L2.265 28.026c-2.119-1.225-2.886-4-1.71-6.206 1.176-2.205 3.843-3.004 5.962-1.78l33.752 19.47c2.119 1.224 2.886 4 1.71 6.205-.811 1.506-2.302 2.35-3.843 2.35z" fill="url(#bpaint3_linear)"/><path d="M38.136 87c-2.419 0-4.384-2.046-4.384-4.563V43.502c0-2.517 1.965-4.563 4.384-4.563 2.418 0 4.383 2.046 4.383 4.563v38.935c0 2.517-1.965 4.563-4.383 4.563z" fill="url(#bpaint4_linear)"/><path d="M38.143 87c-1.542 0-3.04-.852-3.836-2.35-1.176-2.205-.409-4.98 1.71-6.205l33.752-19.468c2.119-1.224 4.785-.426 5.962 1.78 1.176 2.205.409 4.98-1.71 6.205L40.27 86.43c-.68.387-1.41.57-2.126.57z" fill="url(#bpaint5_linear)"/><path d="M38.136 87a4.23 4.23 0 01-2.119-.57L2.265 66.962c-2.119-1.224-2.886-4-1.71-6.205 1.176-2.206 3.843-3.004 5.962-1.78l33.752 19.468c2.119 1.224 2.886 4 1.71 6.205-.811 1.506-2.302 2.35-3.843 2.35z" fill="url(#bpaint6_linear)"/><path d="M4.383 67.532C1.965 67.532 0 65.487 0 62.97V43.502c0-2.517 1.965-4.563 4.383-4.563 2.419 0 4.384 2.046 4.384 4.563V62.97c0 2.517-1.965 4.562-4.384 4.562z" fill="url(#bpaint7_linear)"/><defs><linearGradient id="bpaint0_linear" x1="71.889" y1="43.503" x2="71.889" y2="24.035" gradientUnits="userSpaceOnUse"><stop stop-color="#C6F523"/><stop offset=".9" stop-color="#AFE63A"/></linearGradient><linearGradient id="bpaint1_linear" x1="71.889" y1="24.035" x2="37.514" y2="5.736" gradientUnits="userSpaceOnUse"><stop stop-color="#AFE63A"/><stop offset=".9" stop-color="#81C36D"/></linearGradient><linearGradient id="bpaint2_linear" x1="38.136" y1="4.567" x2="3.762" y2="22.866" gradientUnits="userSpaceOnUse"><stop stop-color="#81C36D"/><stop offset=".8" stop-color="#61AFB4"/></linearGradient><linearGradient id="bpaint3_linear" x1="4.384" y1="24.035" x2="38.759" y2="42.334" gradientUnits="userSpaceOnUse"><stop stop-color="#61AFB4"/><stop offset=".9" stop-color="#42A0DA"/></linearGradient><linearGradient id="bpaint4_linear" x1="38.136" y1="43.503" x2="38.136" y2="82.438" gradientUnits="userSpaceOnUse"><stop stop-color="#42A0DA"/><stop offset=".8" stop-color="#3B84BB"/></linearGradient><linearGradient id="bpaint5_linear" x1="71.889" y1="62.97" x2="37.514" y2="81.269" gradientUnits="userSpaceOnUse"><stop stop-color="#386D9B"/><stop offset=".7" stop-color="#3B84BB"/></linearGradient><linearGradient id="bpaint6_linear" x1="38.136" y1="82.438" x2="3.762" y2="64.139" gradientUnits="userSpaceOnUse"><stop offset=".3" stop-color="#3B84BB"/><stop offset=".9" stop-color="#366FA5"/></linearGradient><linearGradient id="bpaint7_linear" x1="4.384" y1="62.97" x2="4.384" y2="43.503" gradientUnits="userSpaceOnUse"><stop stop-color="#366FA5"/><stop offset="1" stop-color="#366998"/></linearGradient></defs></symbol><symbol fill="none" viewBox="0 0 38 31" id="micro" xmlns="http://www.w3.org/2000/svg"><path d="M33.074 14.042c-1.28 0-2.367-.874-2.559-2.122-.384-2.246-1.151-3.806-1.983-3.806-.832 0-1.535 1.497-1.983 3.681-.128.874-.96 1.498-1.855 1.498h-.832c-1.024 0-1.855-.749-1.92-1.747-.32-5.492-1.215-9.673-2.43-10.609a.49.49 0 00-.256-.125c-.064 0-.064 0-.128-.062h-.256c-.064 0-.064 0-.128.062-.064.063-.192.063-.256.125-1.151.936-2.11 5.18-2.43 10.609-.065.998-.896 1.747-1.92 1.747h-.832c-.895 0-1.727-.624-1.855-1.498-.384-2.184-1.151-3.681-1.983-3.681-.832 0-1.6 1.56-1.983 3.806-.192 1.186-1.28 2.122-2.56 2.122-2.75 0-4.925.686-4.925 1.497 0 .812 2.175 1.498 4.926 1.498 1.28 0 2.367.874 2.559 2.122.384 2.246 1.151 3.806 1.983 3.806.832 0 1.535-1.497 1.983-3.681.128-.874.96-1.498 1.855-1.498h.832c1.024 0 1.791.749 1.92 1.747.32 5.492 1.215 9.673 2.43 10.609a.49.49 0 00.256.124c.064 0 .064 0 .128.063h.256c.064 0 .064 0 .128-.063.064-.062.192-.062.256-.124 1.151-.936 2.11-5.18 2.43-10.609.065-.998.896-1.747 1.92-1.747h.832c.895 0 1.727.624 1.855 1.498.384 2.184 1.151 3.681 1.983 3.681.832 0 1.6-1.56 1.983-3.806.192-1.186 1.28-2.122 2.56-2.122 2.75 0 4.925-.686 4.925-1.498 0-.81-2.175-1.497-4.926-1.497z" fill="#211700"/></symbol><symbol fill="none" viewBox="0 0 27 27" id="patreon" xmlns="http://www.w3.org/2000/svg"><path d="M16.322 3.91c-3.97 0-7.2 3.23-7.2 7.2 0 3.958 3.23 7.178 7.2 7.178 3.958 0 7.178-3.22 7.178-7.178 0-3.97-3.22-7.2-7.178-7.2z" fill="#F96753"/><path d="M3.5 23.09V3.91h3.52v19.18H3.5z" fill="#052A49"/></symbol></svg>