<svg
 xmlns="http://www.w3.org/2000/svg"
 xmlns:xlink="http://www.w3.org/1999/xlink"
 width="326px" height="486px">
  <defs> 
  <mask id='mask1' x='0' y='0' width='326' height='486'>
  <path fill-rule="evenodd"  stroke="rgb(22, 152, 217)" stroke-width="4px" stroke-linecap="butt" stroke-linejoin="miter" fill="white"
   d="M310.000,482.000 L14.000,482.000 C7.373,482.000 2.000,476.627 2.000,470.000 L2.000,45.000 L45.000,2.000 L310.000,2.000 C316.627,2.000 322.000,7.372 322.000,14.000 L322.000,470.000 C322.000,476.627 316.627,482.000 310.000,482.000 Z"/>
 </mask>
    </defs>
	<path fill-rule="evenodd"  stroke="rgb(22, 152, 217)" stroke-width="4px" stroke-linecap="butt" stroke-linejoin="miter" fill="white"
   d="M310.000,482.000 L14.000,482.000 C7.373,482.000 2.000,476.627 2.000,470.000 L2.000,45.000 L45.000,2.000 L310.000,2.000 C316.627,2.000 322.000,7.372 322.000,14.000 L322.000,470.000 C322.000,476.627 316.627,482.000 310.000,482.000 Z" mask="mask1"/>
</svg>
