<svg width="38" height="29" viewBox="0 0 38 29" fill="none" xmlns="http://www.w3.org/2000/svg">
<path d="M5.6728 25.1508C5.6728 26.705 4.42945 28.0261 2.79755 28.0261C1.16564 28.0261 0 26.705 0 25.1508C0 23.5966 1.24335 22.2756 2.87526 22.2756C4.50716 22.2756 5.6728 23.5966 5.6728 25.1508Z" fill="#211700"/>
<path d="M5.6728 14.3492C5.6728 15.9034 4.42945 17.2244 2.79755 17.2244C1.16564 17.2244 0 15.9034 0 14.3492C0 12.795 1.24335 11.4739 2.87526 11.4739C4.50716 11.4739 5.6728 12.795 5.6728 14.3492Z" fill="#211700"/>
<path d="M16.4744 25.1508C16.4744 26.705 15.231 28.0261 13.5991 28.0261C12.0449 28.0261 10.7239 26.7827 10.7239 25.1508C10.7239 23.5189 11.9672 22.2756 13.5991 22.2756C15.1533 22.2756 16.4744 23.5966 16.4744 25.1508Z" fill="#211700"/>
<path d="M16.4744 14.3492C16.4744 15.9034 15.231 17.2244 13.5991 17.2244C12.0449 17.2244 10.7239 15.9811 10.7239 14.3492C10.7239 12.7173 11.9672 11.4739 13.5991 11.4739C15.1533 11.5516 16.4744 12.795 16.4744 14.3492Z" fill="#211700"/>
<path d="M38 14.3492C38 15.9034 36.7567 17.2244 35.1248 17.2244C33.5706 17.2244 32.2495 15.9811 32.2495 14.3492C32.2495 12.7173 33.4929 11.4739 35.1248 11.4739C36.679 11.5516 38 12.795 38 14.3492Z" fill="#211700"/>
<path d="M38 3.62526C38 5.17945 36.7567 6.50051 35.1248 6.50051C33.5706 6.50051 32.2495 5.25716 32.2495 3.62526C32.2495 1.99335 33.5706 0.75 35.1248 0.75C36.679 0.75 38 1.99335 38 3.62526Z" fill="#211700"/>
<path d="M27.1984 25.1508C27.1984 26.705 25.955 28.0261 24.3231 28.0261C22.6912 28.0261 21.4479 26.7827 21.4479 25.1508C21.4479 23.5189 22.6912 22.2756 24.3231 22.2756C25.955 22.2756 27.1984 23.5966 27.1984 25.1508Z" fill="#211700"/>
<path d="M27.1984 14.3492C27.1984 15.9034 25.955 17.2244 24.3231 17.2244C22.6912 17.2244 21.4479 15.9811 21.4479 14.3492C21.4479 12.7173 22.6912 11.4739 24.3231 11.4739C25.955 11.4739 27.1984 12.795 27.1984 14.3492Z" fill="#211700"/>
<path d="M27.1984 3.62526C27.1984 5.17945 25.955 6.50051 24.3231 6.50051C22.6912 6.50051 21.4479 5.25716 21.4479 3.62526C21.4479 1.99335 22.8466 0.75 24.4008 0.75C25.955 0.75 27.1984 1.99335 27.1984 3.62526Z" fill="#211700"/>
</svg>
