<svg width="38" height="31" viewBox="0 0 38 31" fill="none" xmlns="http://www.w3.org/2000/svg">
<path d="M33.0741 14.0418C31.7946 14.0418 30.7071 13.1681 30.5152 11.9201C30.1313 9.67357 29.3636 8.11351 28.532 8.11351C27.7003 8.11351 26.9966 9.61117 26.5488 11.7953C26.4209 12.6689 25.5892 13.2929 24.6936 13.2929H23.9899H23.862C22.8384 13.2929 22.0067 12.5441 21.9428 11.5457C21.6229 6.05422 20.7273 1.87325 19.5118 0.937208C19.4478 0.874805 19.3199 0.812403 19.2559 0.812403C19.1919 0.812403 19.1919 0.812403 19.1279 0.75C19.064 0.75 19.064 0.75 19 0.75C18.936 0.75 18.936 0.75 18.8721 0.75C18.8081 0.75 18.8081 0.75 18.7441 0.812403C18.6801 0.874805 18.5522 0.874805 18.4882 0.937208C17.3367 1.87325 16.3771 6.11662 16.0572 11.5457C15.9933 12.5441 15.1616 13.2929 14.138 13.2929H14.0101H13.3064C12.4108 13.2929 11.5791 12.6689 11.4512 11.7953C11.0673 9.61117 10.2997 8.11351 9.46801 8.11351C8.63636 8.11351 7.86869 9.67357 7.48485 11.9201C7.29293 13.1057 6.20539 14.0418 4.92593 14.0418C2.17508 14.0418 0 14.7282 0 15.5394C0 16.3507 2.17508 17.0371 4.92593 17.0371C6.20539 17.0371 7.29293 17.9107 7.48485 19.1588C7.86869 21.4053 8.63636 22.9653 9.46801 22.9653C10.2997 22.9653 11.0034 21.4677 11.4512 19.2836C11.5791 18.4099 12.4108 17.7859 13.3064 17.7859H14.0101H14.138C15.1616 17.7859 15.9293 18.5347 16.0572 19.5332C16.3771 25.0246 17.2727 29.2056 18.4882 30.1416C18.5522 30.204 18.6801 30.2664 18.7441 30.2664C18.8081 30.2664 18.8081 30.2664 18.8721 30.3288C18.936 30.3288 18.936 30.3288 19 30.3288C19.064 30.3288 19.064 30.3288 19.1279 30.3288C19.1919 30.3288 19.1919 30.3288 19.2559 30.2664C19.3199 30.204 19.4478 30.204 19.5118 30.1416C20.6633 29.2056 21.6229 24.9622 21.9428 19.5332C22.0067 18.5347 22.8384 17.7859 23.862 17.7859H23.9899H24.6936C25.5892 17.7859 26.4209 18.4099 26.5488 19.2836C26.9327 21.4677 27.7003 22.9653 28.532 22.9653C29.3636 22.9653 30.1313 21.4053 30.5152 19.1588C30.7071 17.9731 31.7946 17.0371 33.0741 17.0371C35.8249 17.0371 38 16.3507 38 15.5394C38 14.7282 35.8249 14.0418 33.0741 14.0418Z" fill="#211700"/>
</svg>
