<?xml version="1.0" encoding="utf-8"?><svg xmlns="http://www.w3.org/2000/svg" xmlns:xlink="http://www.w3.org/1999/xlink"><symbol viewBox="0 0 50 50" id="book" xmlns="http://www.w3.org/2000/svg"><path d="M41.406 0h-27.93a6.453 6.453 0 00-6.445 6.445V42.97A7.04 7.04 0 0014.063 50h27.343a1.563 1.563 0 100-3.125H14.063a3.91 3.91 0 01-3.907-3.906 3.91 3.91 0 013.906-3.907h27.344c.863 0 1.563-.7 1.563-1.562V1.562C42.969.7 42.269 0 41.406 0zm-31.25 36.273V6.445a3.32 3.32 0 013.32-3.32h.098c.27 0 .489.219.489.488v31.852c0 .256-.197.47-.452.487a6.976 6.976 0 00-2.75.758.487.487 0 01-.705-.437z"/><path d="M41.406 41.406H14.063a1.563 1.563 0 000 3.125h27.343a1.563 1.563 0 100-3.125z"/></symbol><symbol viewBox="0 0 50 50" id="brain" xmlns="http://www.w3.org/2000/svg"><path d="M23.497 11.729c-.647-1.917-1.431-2.94-1.879-2.94-.447 0-1.231 1.023-1.878 2.94.619.223 1.245.48 1.878.764a27.57 27.57 0 011.879-.764zm5.39 5.288c1.34-1.52 1.835-2.713 1.612-3.101-.397-.676-2.72-.31-3.491-.153a27.9 27.9 0 01.279 2.008c.557.405 1.093.818 1.6 1.246zm-4.403.373c-.45-.295-.894-.59-1.4-.883-.49-.283-.978-.53-1.466-.778-.487.248-.976.495-1.464.778-.508.292-.95.588-1.401.883-.03.537-.064 1.068-.064 1.653s.034 1.116.064 1.654c.45.294.893.59 1.4.882.489.282.978.53 1.465.777a29.65 29.65 0 001.465-.777c.507-.292.95-.588 1.401-.883.03-.537.064-1.068.064-1.653s-.034-1.116-.064-1.653zm-8.534-1.619a27.75 27.75 0 01.279-2.008c-.77-.156-3.099-.515-3.491.153-.223.388.272 1.58 1.612 3.101a28.16 28.16 0 011.6-1.246zm11.337 6.544a27.68 27.68 0 01-.28 2.008c.764.155 3.1.518 3.492-.153.223-.389-.272-1.58-1.612-3.1-.507.427-1.043.84-1.6 1.245z"/><path d="M40.658 18.691C40.47 8.353 32.001 0 21.618 0 11.118 0 2.575 8.543 2.575 19.043a19.059 19.059 0 005.86 13.713V50h20.508v-5.86H40.66V32.228h6.764L40.658 18.69zm-7.624 6.944c-1.261 2.193-4.277 2.05-6.742 1.527-.973 2.965-2.526 5.065-4.674 5.065-2.148 0-3.7-2.1-4.674-5.065-2.465.522-5.48.666-6.741-1.527-1.077-1.863-.03-4.263 2.059-6.592-2.089-2.329-3.136-4.729-2.06-6.592 1.258-2.18 4.28-2.049 6.742-1.527.973-2.965 2.526-5.065 4.674-5.065 2.148 0 3.701 2.1 4.674 5.065 2.467-.522 5.487-.655 6.742 1.527 1.077 1.863.03 4.263-2.06 6.592 2.09 2.329 3.136 4.729 2.06 6.592z"/><path d="M19.74 26.357c.647 1.917 1.43 2.94 1.878 2.94.448 0 1.232-1.023 1.879-2.94a27.621 27.621 0 01-1.879-.764c-.633.283-1.259.54-1.878.764zm-5.39-5.288c-1.34 1.52-1.835 2.712-1.612 3.1.39.672 2.728.308 3.49.154a27.686 27.686 0 01-.278-2.008 27.63 27.63 0 01-1.6-1.246z"/></symbol><symbol viewBox="0 0 50 50" id="chat" xmlns="http://www.w3.org/2000/svg"><g clip-path="url(#cclip0)"><path d="M32.538 11.234a17.101 17.101 0 00-15.35-9.574C7.71 1.66 0 9.326 0 18.75c0 2.56.55 5.015 1.635 7.303L.029 34.087a1.466 1.466 0 001.72 1.724l8.133-1.608c1.095.52 2.228.914 3.392 1.186-2.61-12.357 6.757-23.956 19.264-24.155z"/><path d="M48.365 38.553c.28-.592.524-1.195.733-1.808h-.053C52.701 26.01 45.01 14.73 33.657 14.18v-.002c-9.769-.45-17.885 7.372-17.885 17.07 0 9.416 7.652 17.076 17.064 17.09 2.553-.004 5-.553 7.282-1.636 8.907 1.761 8.212 1.636 8.417 1.636.925 0 1.617-.848 1.436-1.752l-1.606-8.033z"/></g><defs><clipPath id="cclip0"><path d="M0 0h50v50H0z"/></clipPath></defs></symbol><symbol viewBox="0 0 60 60" id="clipboard" xmlns="http://www.w3.org/2000/svg"><g clip-path="url(#dclip0)"><path d="M30.625 15h-16.25A4.38 4.38 0 0110 10.625v-3.75C10 5.84 10.84 5 11.875 5h4.01c.82-2.882 3.473-5 6.615-5 3.142 0 5.795 2.118 6.615 5h4.01C34.16 5 35 5.84 35 6.875v3.75A4.38 4.38 0 0130.625 15zM55 52.5c-.473 0-.905-.267-1.118-.69l-3.222-6.445A6.276 6.276 0 0150 42.57V20c0-2.758 2.242-5 5-5s5 2.242 5 5v22.57a6.27 6.27 0 01-.66 2.795l-3.223 6.445c-.212.422-.645.69-1.117.69zm3.222-7.695h.026-.026z"/><path d="M38.125 7.5H37.5v3.125a6.88 6.88 0 01-6.875 6.875h-16.25A6.88 6.88 0 017.5 10.625V7.5h-.625A6.88 6.88 0 000 14.375v38.75A6.88 6.88 0 006.875 60h31.25A6.88 6.88 0 0045 53.125v-38.75A6.88 6.88 0 0038.125 7.5zm-2.5 45H9.375a1.876 1.876 0 010-3.75h26.25a1.876 1.876 0 010 3.75zm0-7.5H9.375a1.876 1.876 0 010-3.75h26.25a1.876 1.876 0 010 3.75zm0-7.5H9.375a1.876 1.876 0 010-3.75h26.25a1.876 1.876 0 010 3.75zm0-7.5H9.375a1.876 1.876 0 010-3.75h26.25a1.876 1.876 0 010 3.75z"/></g><defs><clipPath id="dclip0"><path d="M0 0h60v60H0z"/></clipPath></defs></symbol><symbol id="close" viewBox="0 0 12 12" xml:space="preserve" xmlns="http://www.w3.org/2000/svg"><style>.est0{fill:none;stroke:#000}</style><path class="est0" d="M1 11L11 1M1 1l10 10"/></symbol><symbol viewBox="0 0 50 50" id="confidence" xmlns="http://www.w3.org/2000/svg"><g clip-path="url(#fclip0)"><path d="M25 19.238a8.3 8.3 0 100-16.601 8.3 8.3 0 000 16.601z"/><path d="M48.713 30.03l-9.051-9.051a9.21 9.21 0 00-6.163-2.709 11.208 11.208 0 01-8.5 3.898 11.208 11.208 0 01-8.498-3.898 9.211 9.211 0 00-6.163 2.709l-9.051 9.05A4.367 4.367 0 000 33.138c0 1.174.457 2.278 1.287 3.108l8.95 8.95a2.91 2.91 0 002.072.858 2.91 2.91 0 001.46-.39v1.407c0 .81.656 1.465 1.465 1.465h19.532c.809 0 1.465-.656 1.465-1.465v-1.407c.439.254.939.39 1.46.39a2.91 2.91 0 002.072-.858l8.95-8.95A4.365 4.365 0 0050 33.137a4.366 4.366 0 00-1.287-3.107zM13.769 40.44l-7.303-7.303 7.304-7.303v14.607zm22.462 0V25.835l7.303 7.303-7.303 7.304zm4.395-34.092c.28 0 .562-.08.812-.246l2.93-1.954a1.465 1.465 0 10-1.626-2.437l-2.93 1.953a1.465 1.465 0 00.814 2.684zm-.813 10.692l2.93 1.952a1.464 1.464 0 101.625-2.438l-2.93-1.952a1.465 1.465 0 00-1.626 2.437zm.617-6.688c0 .809.656 1.464 1.465 1.464H45.8a1.465 1.465 0 000-2.93h-3.907c-.808 0-1.464.656-1.464 1.466zM5.633 4.149l2.93 1.953a1.463 1.463 0 101.625-2.438l-2.93-1.953a1.465 1.465 0 00-1.625 2.438zm2.929 10.452l-2.93 1.954a1.465 1.465 0 101.626 2.437l2.93-1.953a1.465 1.465 0 10-1.626-2.438zM4.2 11.816h3.905a1.465 1.465 0 000-2.93H4.2a1.465 1.465 0 000 2.93z"/></g><defs><clipPath id="fclip0"><path d="M0 0h50v50H0z"/></clipPath></defs></symbol><symbol viewBox="0 0 210 210" id="done" xmlns="http://www.w3.org/2000/svg"><path d="M80.5 103.5L105 128l31-46"/></symbol><symbol viewBox="0 0 60 60" id="graduate" xmlns="http://www.w3.org/2000/svg"><path d="M48.75 30.938a.938.938 0 00-.938-.938H12.188a.938.938 0 00-.938.938V48.75h37.5V30.937zM30 43.124a3.75 3.75 0 110-7.5V37.5a1.875 1.875 0 101.875 1.875h1.875a3.75 3.75 0 01-3.75 3.75zm.253-31.912a.873.873 0 01-.506 0L22.2 9.056l-.516 4.069h16.632L37.8 9.056l-7.547 2.156zM7.669 52.5c-.11-.3-.166-.618-.169-.938v-.937a1.88 1.88 0 011.875-1.875v-2.719A4.687 4.687 0 006.019 52.5h1.65zM3.75 54.375h52.5v1.875H3.75v-1.875zm48.75-3.75v.938a2.81 2.81 0 01-.169.937h1.65c.257-.592.391-1.23.394-1.875a4.703 4.703 0 00-3.75-4.594v2.719a1.88 1.88 0 011.875 1.875zm0-12.187a2.825 2.825 0 00-1.875-2.654v8.354a6.57 6.57 0 011.875.562v-6.263zM9.375 35.784A2.826 2.826 0 007.5 38.438V44.7a6.596 6.596 0 011.875-.563v-8.353zm0 15.779a.937.937 0 00.938.937h39.374a.938.938 0 00.938-.938v-.937H9.375v.938zm15.347-23.438h10.547c.246-.182.478-.383.694-.6a8.384 8.384 0 002.474-5.962v-1.875a1.875 1.875 0 100-3.75V15H21.564v.938a1.875 1.875 0 100 3.75v1.875a8.473 8.473 0 003.159 6.562zm8.09-9.375a.938.938 0 011.876 0v1.875a.938.938 0 01-1.876 0V18.75zm-7.5 0a.938.938 0 011.875 0v1.875a.938.938 0 01-1.875 0V18.75zm1.875 5.625c0 .233.998.938 2.813.938 1.815 0 2.813-.705 2.813-.938h1.874c0 1.603-2.014 2.813-4.687 2.813-2.673 0-4.688-1.21-4.688-2.813h1.875z"/><path d="M39.375 7.031v7.032h1.875v-7.5L30 1.875 18.75 6.563 30 9.374l9.375-2.344z"/></symbol><symbol viewBox="0 0 50 50" id="internet" xmlns="http://www.w3.org/2000/svg"><g clip-path="url(#iclip0)"><path d="M34.641 26.563H15.36a.488.488 0 00-.489.5c.059 2.26.212 4.419.445 6.46a.488.488 0 00.603.42A36.705 36.705 0 0125 32.813c3.096 0 6.134.379 9.082 1.13a.488.488 0 00.603-.42c.233-2.041.386-4.2.445-6.46a.488.488 0 00-.489-.5zm.044-10.087a.488.488 0 00-.603-.419A36.706 36.706 0 0125 17.187a36.71 36.71 0 01-9.082-1.13.488.488 0 00-.603.42 73.865 73.865 0 00-.445 6.46c-.007.275.215.5.489.5H34.64a.488.488 0 00.489-.5 73.906 73.906 0 00-.445-6.46zm-.603-4.121c-.875-4.84-2.216-8.811-3.764-11.617a.486.486 0 00-.33-.242A25.237 25.237 0 0025 0c-1.695 0-3.364.17-4.988.497a.487.487 0 00-.33.241c-1.548 2.806-2.889 6.776-3.764 11.618a.487.487 0 00.35.556c2.786.75 5.713 1.15 8.732 1.15 3.019 0 5.946-.4 8.731-1.15a.487.487 0 00.35-.557zm1.31-10.105a.489.489 0 00-.656.623l.009.022c.95 2.47 1.722 5.276 2.3 8.31.058.303.38.476.666.359a33.54 33.54 0 005.48-2.867.49.49 0 00.094-.744 24.99 24.99 0 00-7.894-5.704zm3.351 21.187h10.682a.49.49 0 00.487-.53 24.754 24.754 0 00-4.015-11.64.49.49 0 00-.68-.14 36.596 36.596 0 01-7.211 3.69.488.488 0 00-.313.518 76.76 76.76 0 01.563 7.625.488.488 0 00.487.477zM15.918 37.645c.875 4.84 2.216 8.811 3.764 11.617.07.125.19.213.33.242a25.332 25.332 0 009.976-.001.486.486 0 00.33-.241c1.548-2.806 2.889-6.776 3.764-11.618a.487.487 0 00-.351-.556A33.528 33.528 0 0025 35.938c-3.019 0-5.946.4-8.731 1.15a.487.487 0 00-.35.556zm-5.211-1.946c.426-.18.856-.352 1.287-.516a.488.488 0 00.313-.518 76.788 76.788 0 01-.563-7.625.488.488 0 00-.487-.477H.575a.49.49 0 00-.487.53 24.756 24.756 0 004.015 11.64.49.49 0 00.68.14 36.587 36.587 0 015.924-3.174zm32.484 5.604a33.524 33.524 0 00-5.48-2.867.489.489 0 00-.666.36c-.578 3.033-1.35 5.838-2.3 8.31a1.926 1.926 0 00-.008.021c-.158.408.257.806.655.624a24.993 24.993 0 007.894-5.704.49.49 0 00-.095-.744zM38.256 27.04a76.786 76.786 0 01-.563 7.625.488.488 0 00.313.518 36.612 36.612 0 017.21 3.689.49.49 0 00.681-.139 24.755 24.755 0 004.015-11.64.49.49 0 00-.487-.53H38.743a.488.488 0 00-.487.477zM6.809 8.697a33.537 33.537 0 005.48 2.867.489.489 0 00.666-.36c.578-3.033 1.35-5.838 2.3-8.31l.008-.021c.158-.408-.257-.806-.655-.624a24.998 24.998 0 00-7.894 5.704.49.49 0 00.095.744zm4.925 14.741c.052-2.784.247-5.503.573-8.103a.488.488 0 00-.313-.518 36.61 36.61 0 01-7.21-3.69.49.49 0 00-.681.14 24.756 24.756 0 00-4.015 11.64.49.49 0 00.487.53h11.159zm2.874 24.312c.398.183.813-.215.656-.623l-.009-.022c-.95-2.47-1.722-5.276-2.3-8.31a.489.489 0 00-.666-.359 33.532 33.532 0 00-5.48 2.867.49.49 0 00-.094.744 24.99 24.99 0 007.894 5.704z"/></g><defs><clipPath id="iclip0"><path d="M0 0h50v50H0z"/></clipPath></defs></symbol><symbol viewBox="0 0 50 50" id="lamp" xmlns="http://www.w3.org/2000/svg"><g clip-path="url(#jclip0)"><path d="M25 7.202c-.863 0-1.563-.7-1.563-1.562V1.563a1.563 1.563 0 013.125 0V5.64c0 .862-.7 1.562-1.562 1.562zm13.69 5.671a1.563 1.563 0 01-1.104-2.669l2.883-2.883a1.563 1.563 0 112.21 2.21l-2.883 2.884a1.567 1.567 0 01-1.106.458zm9.748 13.69H44.36a1.563 1.563 0 010-3.125h4.078a1.563 1.563 0 010 3.125zm-6.865 16.573c-.4 0-.8-.153-1.104-.459l-2.884-2.883a1.563 1.563 0 112.21-2.21l2.884 2.883a1.563 1.563 0 01-1.106 2.669zm-33.146 0a1.563 1.563 0 01-1.104-2.669l2.883-2.884a1.563 1.563 0 112.21 2.21l-2.883 2.884a1.559 1.559 0 01-1.106.459zM5.64 26.563H1.563a1.563 1.563 0 010-3.125H5.64a1.563 1.563 0 010 3.125zm5.67-13.69c-.4 0-.8-.152-1.104-.458L7.323 9.53a1.563 1.563 0 112.21-2.21l2.884 2.883a1.563 1.563 0 01-1.107 2.669zM31.25 43.75v2.604c0 2-1.646 3.646-3.646 3.646h-5.208c-1.75 0-3.646-1.333-3.646-4.25v-2h12.5zm2.938-30.083c-3.417-2.771-7.917-3.854-12.313-2.917-5.52 1.146-10 5.646-11.146 11.167-1.167 5.666.959 11.291 5.5 14.729 1.23.917 2.084 2.333 2.375 3.98v.02c.042-.02.104-.02.146-.02h12.5c.042 0 .063 0 .104.02v-.02c.292-1.584 1.23-3.042 2.667-4.167C37.54 33.666 39.583 29.5 39.583 25c0-4.416-1.958-8.541-5.395-11.333zm-1.376 12.375a1.574 1.574 0 01-1.562-1.563 5.726 5.726 0 00-5.73-5.729 1.574 1.574 0 01-1.562-1.562c0-.854.709-1.563 1.563-1.563 4.875 0 8.854 3.98 8.854 8.854 0 .855-.708 1.563-1.563 1.563z"/><path d="M18.604 40.625h.146c-.042 0-.104 0-.146.02v-.02zm12.75 0v.02c-.041-.02-.062-.02-.104-.02h.104z"/></g><defs><clipPath id="jclip0"><path d="M0 0h50v50H0z"/></clipPath></defs></symbol><symbol viewBox="0 0 60 60" id="learning" xmlns="http://www.w3.org/2000/svg"><path d="M0 38.036V56.25h6.429V40.178H8.57V56.25h19.286V40.178H30V56.25h6.429V38.036a5.363 5.363 0 00-5.358-5.358H5.357A5.363 5.363 0 000 38.036zm24.643-17.143a6.429 6.429 0 11-12.858 0 6.429 6.429 0 0112.858 0zM60 43.393H38.571v6.428h18.215A3.214 3.214 0 0060 46.607v-3.214z"/><path d="M2.143 31.27a7.426 7.426 0 012.143-.648V5.892h51.428v33.215H38.571v2.143h19.286V6.964a3.214 3.214 0 00-3.214-3.214H5.357a3.214 3.214 0 00-3.214 3.214V31.27z"/><path d="M45 14.464a3.214 3.214 0 11-6.429 0 3.214 3.214 0 016.429 0z"/><path d="M53.571 36.964V8.036H6.43v22.5h24.64a7.5 7.5 0 017.415 6.428H53.57zm-35.357-7.5a8.571 8.571 0 01-8.571-8.571 8.571 8.571 0 018.571-8.572 8.571 8.571 0 018.572 8.572 8.581 8.581 0 01-8.572 8.571zM41.786 9.107a5.357 5.357 0 11-5.357 5.357 5.363 5.363 0 015.357-5.357zm-7.5 17.143v3.214h-2.143V26.25a5.363 5.363 0 015.357-5.357h8.571a5.363 5.363 0 015.358 5.357v6.428h-2.143V26.25a3.215 3.215 0 00-3.215-3.214H37.5a3.215 3.215 0 00-3.214 3.214z"/></symbol><symbol viewBox="0 0 24 24" id="location" xmlns="http://www.w3.org/2000/svg"><path d="M12 2C8.13 2 5 5.13 5 9c0 5.25 7 13 7 13s7-7.75 7-13c0-3.87-3.13-7-7-7zm0 9.5a2.5 2.5 0 110-5 2.5 2.5 0 010 5z"/></symbol><symbol viewBox="0 0 60 60" id="online-lesson" xmlns="http://www.w3.org/2000/svg"><path d="M54.14 21.563H27.423a1.172 1.172 0 00-1.172 1.171v16.407a1.172 1.172 0 001.172 1.172H54.14a1.172 1.172 0 001.172-1.172V22.734a1.172 1.172 0 00-1.172-1.172zM36.563 35.624V26.25l9.376 4.688-9.376 4.687zm11.25-22.264a1.172 1.172 0 00-1.172-1.172H17.109a1.172 1.172 0 00-1.172 1.171V15h31.876v-1.64z"/><path d="M15.938 16.875v16.64a1.172 1.172 0 001.171 1.172h7.266V20.86a1.172 1.172 0 011.172-1.172h22.265v-2.812H15.939z"/><path d="M9.375 46.875h22.5v-4.688h-6.328a1.172 1.172 0 01-1.172-1.171v-4.453h-7.266a3.05 3.05 0 01-3.047-3.047V13.359a3.05 3.05 0 013.047-3.046h14.766v-3.75h-22.5v40.312z"/><path d="M36.563 10.313v-7.5a.938.938 0 00-.938-.938h-30a.937.937 0 00-.938.938v54.374a.937.937 0 00.938.938h30a.938.938 0 00.938-.938v-15H33.75v5.626a.938.938 0 01-.938.937H8.439a.938.938 0 01-.938-.938V5.626a.937.937 0 01.938-.938h24.374a.937.937 0 01.938.938v4.688h2.813zM20.624 50.624a2.813 2.813 0 110 5.625 2.813 2.813 0 010-5.625z"/></symbol><symbol viewBox="0 0 60 60" id="pencil" xmlns="http://www.w3.org/2000/svg"><g clip-path="url(#nclip0)"><path d="M55.497 5.44l-3.581-3.581A6.305 6.305 0 0047.428 0c-1.695 0-3.289.66-4.487 1.859L40.268 4.53l12.556 12.556 2.673-2.672a6.304 6.304 0 001.859-4.488 6.3 6.3 0 00-1.86-4.487zm-10.175 9.041L20.816 38.987l5.054 5.055 24.506-24.507-5.053-5.054zM37.82 6.98L13.314 31.486l5.054 5.054 24.506-24.506L37.82 6.98z"/><path d="M58.269 46.73H41.827a6.642 6.642 0 00-6.635 6.635 3.177 3.177 0 01-3.173 3.173H6.635a3.177 3.177 0 01-3.173-3.173v-2.31a3.177 3.177 0 013.171-3.173l4.575-.002h.005c.052 0 .104-.004.156-.008.022-.002.043-.006.064-.009l.068-.008L22.833 45.9 11.456 34.523 9.749 44.42l-3.118.002a6.643 6.643 0 00-6.63 6.634v2.31A6.642 6.642 0 006.634 60h25.384a6.642 6.642 0 006.635-6.635 3.177 3.177 0 013.173-3.173h16.442a1.73 1.73 0 100-3.461z"/></g><defs><clipPath id="nclip0"><path d="M0 0h60v60H0z"/></clipPath></defs></symbol><symbol viewBox="0 0 22 22" id="phone" xmlns="http://www.w3.org/2000/svg"><g clip-path="url(#oclip0)"><path d="M21.694 18.294l-3.102 3.077c-.457.47-1.064.628-1.655.629-2.614-.078-5.085-1.362-7.113-2.68-3.33-2.423-6.385-5.427-8.303-9.056C.786 8.742-.077 6.799.005 5.1c.008-.64.18-1.267.63-1.679l3.102-3.1c.644-.548 1.267-.358 1.679.28L7.91 5.334c.263.56.112 1.16-.28 1.561L6.49 8.038a.561.561 0 00-.117.326c.438 1.696 1.766 3.26 2.938 4.335 1.173 1.076 2.434 2.534 4.07 2.88.202.056.45.075.595-.06l1.33-1.351c.457-.347 1.12-.517 1.608-.233h.024l4.5 2.657c.661.414.73 1.215.257 1.702z"/></g><defs><clipPath id="oclip0"><path d="M0 0h22v22H0z"/></clipPath></defs></symbol><symbol viewBox="0 0 50 50" id="puzzle" xmlns="http://www.w3.org/2000/svg"><path d="M43.778 34.788L50 28.566l-6.222-6.222 1.002-1.003a4.454 4.454 0 000-6.29 4.421 4.421 0 00-3.145-1.303 4.42 4.42 0 00-3.145 1.302l-1.003 1.003-6.222-6.222-1.836 1.836v2.902c3.248.774 5.67 3.7 5.67 7.182 0 3.481-2.422 6.408-5.67 7.181v9h-5.386l-1.074 1.073 8.296 8.296 6.222-6.222.864.864a4.454 4.454 0 006.291 0 4.453 4.453 0 000-6.29l-.864-.865z"/><path d="M26.496 34.999v-8.8h1.222a4.453 4.453 0 004.448-4.448 4.453 4.453 0 00-4.448-4.449h-1.222V8.503h-8.8V7.085a4.453 4.453 0 00-4.448-4.448 4.453 4.453 0 00-4.449 4.448v1.418H0v8.8h1.222a4.455 4.455 0 014.361 3.57 1.505 1.505 0 010 1.756 4.456 4.456 0 01-4.36 3.57H0V35h8.8v-1.42a4.453 4.453 0 014.448-4.449 4.453 4.453 0 014.448 4.449v1.418h8.8z"/></symbol><symbol viewBox="0 0 24 24" id="telegram" xmlns="http://www.w3.org/2000/svg"><path d="M12 24c6.629 0 12-5.371 12-12S18.629 0 12 0 0 5.371 0 12s5.371 12 12 12zM5.491 11.74l11.57-4.461c.537-.194 1.006.131.832.943l.001-.001-1.97 9.281c-.146.658-.537.818-1.084.508l-3-2.211-1.447 1.394c-.16.16-.295.295-.605.295l.213-3.053 5.56-5.023c.242-.213-.054-.333-.373-.121l-6.871 4.326-2.962-.924c-.643-.204-.657-.643.136-.953z"/></symbol><symbol viewBox="0 0 24 24" id="time" xmlns="http://www.w3.org/2000/svg"><path d="M12.25 2c-5.514 0-10 4.486-10 10s4.486 10 10 10 10-4.486 10-10-4.486-10-10-10zM18 13h-6.75V6h2v5H18v2z"/></symbol><symbol viewBox="0 0 24 24" id="vk" xmlns="http://www.w3.org/2000/svg"><path d="M21.579 6.855c.14-.465 0-.806-.662-.806h-2.193c-.558 0-.813.295-.953.619 0 0-1.115 2.719-2.695 4.482-.51.513-.743.675-1.021.675-.139 0-.341-.162-.341-.627V6.855c0-.558-.161-.806-.626-.806H9.642c-.348 0-.558.258-.558.504 0 .528.79.65.871 2.138v3.228c0 .707-.127.836-.407.836-.743 0-2.551-2.73-3.624-5.853-.209-.607-.42-.852-.98-.852H2.752c-.627 0-.752.295-.752.619 0 .582.743 3.462 3.461 7.27 1.812 2.602 4.363 4.012 6.687 4.012 1.393 0 1.565-.313 1.565-.853v-1.966c0-.626.133-.752.574-.752.324 0 .882.164 2.183 1.417 1.486 1.486 1.732 2.153 2.567 2.153h2.192c.626 0 .939-.313.759-.931-.197-.615-.907-1.51-1.849-2.57-.512-.603-1.277-1.253-1.51-1.578-.325-.42-.231-.604 0-.976.001 0 2.672-3.761 2.95-5.04z"/></symbol><symbol viewBox="0 0 50 50" id="warning" xmlns="http://www.w3.org/2000/svg"><g clip-path="url(#tclip0)"><path d="M42.391 0H7.61C3.413 0 0 3.413 0 7.609v23.913c0 4.195 3.413 7.608 7.609 7.608h23.463l10.552 10.553a1.086 1.086 0 001.854-.77v-9.86c3.683-.53 6.522-3.705 6.522-7.531V7.609C50 3.413 46.587 0 42.391 0zM25 32.609a3.265 3.265 0 01-3.26-3.261A3.265 3.265 0 0125 26.087a3.265 3.265 0 013.26 3.26A3.265 3.265 0 0125 32.61zm4.34-22.592l-.938 10.744c-.124 1.759-1.622 3.152-3.402 3.152-1.8 0-3.296-1.394-3.42-3.172l-.917-10.71a3.279 3.279 0 01.86-2.468 3.273 3.273 0 012.39-1.041h2.174c.902 0 1.772.378 2.389 1.041.613.66.928 1.554.863 2.454z"/></g><defs><clipPath id="tclip0"><path d="M0 0h50v50H0z"/></clipPath></defs></symbol><symbol viewBox="0 0 24 24" id="whatsapp" xmlns="http://www.w3.org/2000/svg"><path d="M12.003 0h-.006C5.38 0 0 5.382 0 12c0 2.625.846 5.058 2.284 7.034L.79 23.49l4.613-1.474a11.896 11.896 0 006.6 1.984C18.619 24 24 18.616 24 12c0-6.617-5.38-12-11.997-12zm6.982 16.945c-.289.818-1.438 1.496-2.354 1.694-.628.134-1.447.24-4.204-.903-3.526-1.461-5.797-5.045-5.974-5.277-.17-.232-1.425-1.897-1.425-3.62 0-1.722.875-2.56 1.227-2.92.29-.295.768-.43 1.227-.43.148 0 .282.007.402.013.352.015.53.036.762.593.29.697.994 2.419 1.079 2.596.085.177.17.417.05.65-.112.24-.211.346-.388.55-.177.204-.345.36-.522.579-.162.19-.345.394-.141.747.204.345.909 1.495 1.947 2.42 1.34 1.192 2.426 1.573 2.814 1.735.29.12.635.091.846-.133.269-.29.6-.77.938-1.243.24-.338.543-.38.86-.26.324.112 2.039.96 2.391 1.135.353.177.585.261.671.41.084.148.084.845-.206 1.664z"/></symbol><symbol viewBox="0 0 50 50" id="work" xmlns="http://www.w3.org/2000/svg"><path d="M41.667 12.5h-8.334V8.333a4.152 4.152 0 00-4.166-4.166h-8.334a4.152 4.152 0 00-4.166 4.166V12.5H8.333c-2.312 0-4.146 1.854-4.146 4.167l-.02 22.916a4.152 4.152 0 004.166 4.167h33.334a4.152 4.152 0 004.166-4.167V16.667a4.152 4.152 0 00-4.166-4.167zm-12.5 0h-8.334V8.333h8.334V12.5z"/></symbol></svg>