<svg xmlns="http://www.w3.org/2000/svg" viewBox="0 0 147.14 62.05"><path d="M0 40.68h9.44v9.44H0zM28.9 2H9.44v38.68h9.45V11.52h8.22c10.17 0 16.81 5.37 16.81 14.59s-6.5 14.57-16.81 14.57h-8.22v9.44h10c14.93 0 23.31-8.58 23.31-24S43.83 2 28.9 2zm72.95 48.12H90.92L87.19 39.4H69.53l-3.86 10.72H55L73.06 2h10.73zM78.4 13.83l-6.33 17.88h12.59zm57.01 1.48c-.4-4.65-3.46-7.15-9-7.15-4.8 0-7.67 2-7.67 5.47 0 4.18 5.07 4.52 14.53 7.22 8.46 2.42 13.86 5.73 13.86 13.76 0 11.33-9.86 15.51-19.52 15.51-12.87 0-20.46-6.27-20.6-17.13h10.33c.2 6.48 4.4 9 10.73 9 5.47 0 8.8-2.43 8.8-6.41 0-3.78-3.2-4.45-13-7.29-7.73-2.22-15.12-4.18-15.12-14C108.76 5.67 116 0 127 0c10 0 18.06 4.59 18.26 15.31zM11.08 59.46v2.48h-.77v-6.57h1.8a2.33 2.33 0 0 1 1.63.52 1.81 1.81 0 0 1 .58 1.44 2 2 0 0 1-.64 1.53 2.45 2.45 0 0 1-1.74.6zm0-3.39v2.69h.8a1.83 1.83 0 0 0 1.22-.36 1.29 1.29 0 0 0 .42-1c0-.87-.52-1.3-1.54-1.3zm9.19 5.87h-.91l-1.1-1.84c-.11-.17-.2-.31-.3-.44a1.59 1.59 0 0 0-.29-.29 1 1 0 0 0-.32-.17 1.48 1.48 0 0 0-.39-.05h-.63v2.79h-.77v-6.57h2a2.92 2.92 0 0 1 .8.11 1.73 1.73 0 0 1 .63.33 1.52 1.52 0 0 1 .42.55 1.78 1.78 0 0 1 .15.76 1.81 1.81 0 0 1-.1.63 1.63 1.63 0 0 1-.3.51 1.89 1.89 0 0 1-.45.39 2.59 2.59 0 0 1-.61.24 1.58 1.58 0 0 1 .29.17 1.19 1.19 0 0 1 .23.22c.07.09.15.18.22.29L19 60zm-3.94-5.87v2.38h1.05a1.78 1.78 0 0 0 .53-.08 1.46 1.46 0 0 0 .42-.25 1.12 1.12 0 0 0 .28-.4 1.32 1.32 0 0 0 .1-.53 1 1 0 0 0-.34-.82 1.44 1.44 0 0 0-1-.3zm7.4 5.98a2.87 2.87 0 0 1-2.24-.92 3.4 3.4 0 0 1-.84-2.39 3.62 3.62 0 0 1 .86-2.53 3 3 0 0 1 2.33-1 2.81 2.81 0 0 1 2.19.92 3.4 3.4 0 0 1 .83 2.4 3.61 3.61 0 0 1-.86 2.59 3 3 0 0 1-2.27.93zm.06-6.05a2.15 2.15 0 0 0-1.69.75 3.33 3.33 0 0 0 0 3.91 2 2 0 0 0 1.64.74 2.17 2.17 0 0 0 1.71-.7 2.92 2.92 0 0 0 .62-2 3 3 0 0 0-.61-2 2.08 2.08 0 0 0-1.67-.7zm6 3.59a3 3 0 0 1-.49 1.82 1.58 1.58 0 0 1-1.33.64 1.48 1.48 0 0 1-.63-.11v-.76a1.08 1.08 0 0 0 .64.18c.7 0 1-.59 1-1.76v-4.23h.77zm5.15 2.35h-3.48v-6.57h3.34v.7h-2.57v2.19h2.37V59h-2.37v2.3h2.71zm5.74-.27a3.83 3.83 0 0 1-1.82.38 2.92 2.92 0 0 1-2.24-.9 3.33 3.33 0 0 1-.84-2.37 3.51 3.51 0 0 1 .94-2.55 3.27 3.27 0 0 1 2.41-1 3.88 3.88 0 0 1 1.55.27v.82a3.17 3.17 0 0 0-1.56-.32 2.36 2.36 0 0 0-1.83.76 2.83 2.83 0 0 0-.71 2 2.7 2.7 0 0 0 .66 1.91 2.25 2.25 0 0 0 1.73.71 3.18 3.18 0 0 0 1.71-.44zm5.22-5.6H44v5.87h-.77v-5.87h-1.9v-.7h4.57zm22.02 5.87v-6.57h1.87a2.06 2.06 0 0 1 1.35.42 1.36 1.36 0 0 1 .5 1.09 1.56 1.56 0 0 1-.31 1 1.61 1.61 0 0 1-.83.58 1.66 1.66 0 0 1 1.06.5 1.54 1.54 0 0 1 .4 1.11 1.72 1.72 0 0 1-.6 1.36 2.25 2.25 0 0 1-1.53.52zm.77-5.87v2.12h.78a1.51 1.51 0 0 0 1-.3 1.07 1.07 0 0 0 .36-.86q0-1-1.26-1zm0 2.81v2.37h1a1.59 1.59 0 0 0 1-.32 1.11 1.11 0 0 0 .38-.88q0-1.17-1.59-1.17zm9.41.41c0 1.84-.83 2.76-2.5 2.76s-2.39-.88-2.39-2.66v-4H74v4c0 1.35.57 2 1.71 2s1.64-.65 1.64-2v-4h.77zm2.41 2.65h-.77v-6.57h.77zm5.14 0h-3.41v-6.57H83v5.88h2.64zm1.01 0v-6.57h1.81c2.32 0 3.47 1.07 3.47 3.21A3.22 3.22 0 0 1 91 61a3.54 3.54 0 0 1-2.58.92zm.77-5.87v5.18h1a2.79 2.79 0 0 0 2-.69 2.62 2.62 0 0 0 .72-2c0-1.68-.9-2.52-2.69-2.52zm24.73 5.61v-.91a2.17 2.17 0 0 0 .37.25 3.66 3.66 0 0 0 .46.18 3.89 3.89 0 0 0 .49.12 2.39 2.39 0 0 0 .44 0 1.78 1.78 0 0 0 1.08-.22.89.89 0 0 0 .36-.76.85.85 0 0 0-.12-.46 1.53 1.53 0 0 0-.32-.36 3.18 3.18 0 0 0-.49-.31l-.61-.32c-.23-.11-.44-.23-.64-.35a3.07 3.07 0 0 1-.52-.39 1.6 1.6 0 0 1-.34-.49 1.44 1.44 0 0 1-.13-.64 1.42 1.42 0 0 1 .2-.78 1.68 1.68 0 0 1 .51-.55 2.53 2.53 0 0 1 .73-.32 3.46 3.46 0 0 1 .84-.11 3.15 3.15 0 0 1 1.42.24v.86a2.58 2.58 0 0 0-1.5-.4 2.92 2.92 0 0 0-.5 0 1.83 1.83 0 0 0-.45.17 1.05 1.05 0 0 0-.32.31.85.85 0 0 0-.12.56.94.94 0 0 0 .09.43.9.9 0 0 0 .28.34 2.58 2.58 0 0 0 .44.29l.61.31c.24.12.46.24.67.37a2.69 2.69 0 0 1 .55.43 1.83 1.83 0 0 1 .38.51 1.53 1.53 0 0 1 .14.66 1.63 1.63 0 0 1-.19.82 1.78 1.78 0 0 1-.51.55 2.27 2.27 0 0 1-.75.3 4.19 4.19 0 0 1-.89.09 2.76 2.76 0 0 1-.38 0L113 62l-.45-.12a1.55 1.55 0 0 1-.39-.2zm10.1-2.39c0 1.84-.83 2.76-2.5 2.76s-2.39-.88-2.39-2.66v-4h.77v4c0 1.35.57 2 1.7 2s1.65-.65 1.65-2v-4h.77zm2.41.17v2.48h-.77v-6.57h1.8a2.36 2.36 0 0 1 1.64.52 1.84 1.84 0 0 1 .58 1.44 2 2 0 0 1-.65 1.53 2.45 2.45 0 0 1-1.74.6zm0-3.39v2.69h.8a1.81 1.81 0 0 0 1.22-.36 1.29 1.29 0 0 0 .42-1c0-.87-.51-1.3-1.54-1.3zm5.25 3.39v2.48h-.77v-6.57H131a2.33 2.33 0 0 1 1.63.52 1.81 1.81 0 0 1 .58 1.44 2 2 0 0 1-.64 1.53 2.45 2.45 0 0 1-1.74.6zm0-3.39v2.69h.81a1.83 1.83 0 0 0 1.27-.36 1.29 1.29 0 0 0 .42-1c0-.87-.52-1.3-1.54-1.3zm7.9 5.87h-3.41v-6.57h.77v5.88h2.64zm4.69-6.57l-2.17 4.15v2.42h-.77v-2.41l-2.11-4.16h.87l1.47 3s.07.17.16.41a2 2 0 0 1 .17-.41l1.54-3z" fill="#fff" opacity=".8" data-name="Слой 2"/></svg>