<?xml version="1.0" encoding="utf-8"?>
<!-- Generator: Adobe Illustrator 24.1.2, SVG Export Plug-In . SVG Version: 6.00 Build 0)  -->
<svg version="1.1" xmlns="http://www.w3.org/2000/svg" xmlns:xlink="http://www.w3.org/1999/xlink" x="0px" y="0px" width="253" height="126.9"
	 viewBox="0 0 253 126.9" xml:space="preserve">
<style type="text/css">
	.st0{fill-rule:evenodd;clip-rule:evenodd;fill:#0093D7;}
	.st1{fill-rule:evenodd;clip-rule:evenodd;fill:#FFC815;}
	.st2{fill-rule:evenodd;clip-rule:evenodd;fill:#A3CD3B;}
</style>
<g id="Слой_1">
	<path class="st0" d="M205.2,27.3c30.3,24.2,47.9,60.9,47.8,99.6h-54c0-25.3-10.4-43.4-27.5-57.3L205.2,27.3z"/>
</g>
<g id="Слой_2">
	<path class="st1" d="M0,126.9c0-39,18.2-75.9,49.2-99.6L84,69.6c-18.7,14.6-28.4,31.9-28.4,57.3H0L0,126.9z"/>
</g>
<g id="Слой_3">
	<path class="st2" d="M54.6,23c43.8-30.7,102-30.7,145.8,0l-34.5,43c-14.7-9.9-26.3-12.2-38.4-12.2c-12.1,0-26.2,4.4-38.4,12.2
		L54.6,23z"/>
</g>
</svg>
