<?xml version="1.0" encoding="UTF-8"?>
<!DOCTYPE svg PUBLIC "-//W3C//DTD SVG 1.1//EN" "http://www.w3.org/Graphics/SVG/1.1/DTD/svg11.dtd">
<svg xmlns="http://www.w3.org/2000/svg" xmlns:xlink="http://www.w3.org/1999/xlink">
<symbol id="clock" viewBox="0 0 16 16">
	<path fill="#BEA4E1" fill-rule="evenodd" d="M8 15.333A7.333 7.333 0 118 .667a7.333 7.333 0 010 14.666zM8 14A6 6 0 108 2a6 6 0 000 12zm3.333-6.667H8.667V4H7.333v4.667h4V7.333z" clip-rule="evenodd"/>
</symbol>
<symbol id="geo" viewBox="0 0 12 16">
	<path fill="#BEA4E1" fill-rule="evenodd" d="M6 15.552l.438-.383C10.126 11.949 12 9.138 12 6.667c0-3.5-2.731-6-6-6s-6 2.5-6 6c0 2.47 1.874 5.282 5.562 8.502l.438.383zm0-1.776c-3.129-2.82-4.667-5.21-4.667-7.11C1.333 3.932 3.443 2 6 2s4.667 1.931 4.667 4.667c0 1.9-1.538 4.289-4.667 7.109zM6 3.333A3.333 3.333 0 116 10a3.333 3.333 0 010-6.667zM4 6.667a2 2 0 114 0 2 2 0 01-4 0z" clip-rule="evenodd"/>
</symbol>
</svg>