<?xml version="1.0" encoding="utf-8"?>
<!-- Generator: Adobe Illustrator 17.0.1, SVG Export Plug-In . SVG Version: 6.00 Build 0)  -->
<!DOCTYPE svg PUBLIC "-//W3C//DTD SVG 1.1//EN" "http://www.w3.org/Graphics/SVG/1.1/DTD/svg11.dtd">
<svg version="1.1" id="Capa_1" xmlns="http://www.w3.org/2000/svg" xmlns:xlink="http://www.w3.org/1999/xlink" x="0px" y="0px"
	 width="595.28px" height="841.89px" viewBox="0 0 595.28 841.89" enable-background="new 0 0 595.28 841.89" xml:space="preserve">
<g>
	<g>
		<path fill="#634036" d="M586.56,612.839h-14.156v-34.826c0-4.816-3.904-8.72-8.72-8.72c-4.816,0-8.72,3.904-8.72,8.72v34.826
			h-19.437v-14.715c0-4.816-3.904-8.72-8.72-8.72s-8.72,3.904-8.72,8.72v14.715h-25.663v-51.842
			c4.648,1.109,9.347,1.654,14.009,1.654c15.8,0,31.178-6.252,42.749-17.932c3.697-3.733,6.899-7.921,9.515-12.445
			c2.411-4.168,0.987-9.502-3.182-11.914c-4.168-2.411-9.502-0.986-11.914,3.182c-1.871,3.235-4.162,6.23-6.81,8.904
			c-11.124,11.231-27.194,15.404-42.263,11.076c-4.329-15.291-0.185-31.6,10.989-42.88c11.123-11.229,27.183-15.405,42.265-11.075
			c0.813,2.873,1.336,5.816,1.559,8.77c0.364,4.802,4.549,8.407,9.352,8.037c4.802-0.363,8.401-4.551,8.037-9.352
			c-0.363-4.792-1.291-9.558-2.764-14.182c-0.702-2.189-1.927-4.207-3.531-5.824c-0.943-0.953-2.027-1.752-3.185-2.409
			c9.716-15.174,12.359-34.045,6.716-51.76c-0.702-2.19-1.928-4.208-3.537-5.831c-1.035-1.044-2.239-1.906-3.534-2.593
			c10.016-15.264,12.786-34.389,7.071-52.324c-0.702-2.19-1.928-4.208-3.537-5.831c-1.627-1.643-3.646-2.886-5.835-3.595
			c-6.075-1.974-12.366-2.975-18.7-2.975c-4.027,0-7.996,0.398-11.863,1.173v-64.026c0-4.816-3.904-8.72-8.72-8.72
			s-8.72,3.904-8.72,8.72v18.337c-4.053-4.275-8.758-7.993-14.026-10.999v-37.665c0-4.816-3.904-8.72-8.72-8.72
			c-4.816,0-8.72,3.904-8.72,8.72v37.499c-5.385,3.033-10.185,6.813-14.312,11.166v-18.339c0-4.816-3.904-8.72-8.72-8.72
			c-4.816,0-8.72,3.904-8.72,8.72v64.026c-3.866-0.776-7.834-1.173-11.86-1.173c-6.334,0-12.626,1.001-18.694,2.973
			c-2.203,0.714-4.227,1.963-5.832,3.587c-1.629,1.641-2.859,3.669-3.55,5.854c-5.714,17.925-2.944,37.047,7.074,52.313
			c-1.3,0.688-2.503,1.547-3.524,2.582c-1.631,1.642-2.861,3.675-3.55,5.855c-5.644,17.704-3.001,36.574,6.718,51.745
			c-1.164,0.658-2.242,1.453-3.168,2.393c-1.632,1.642-2.862,3.675-3.551,5.854c-6.983,21.9-1.315,45.605,14.79,61.861
			c11.451,11.561,26.64,17.929,42.767,17.929c4.711,0,9.398-0.556,13.988-1.65v51.843H374.015v-26.574c0-4.816-3.904-8.72-8.72-8.72
			c-4.816,0-8.72,3.904-8.72,8.72v26.574h-47.807v-63.617c4.631,1.109,9.321,1.666,14.002,1.666c6.61,0,13.202-1.107,19.581-3.318
			c4.551-1.577,6.961-6.545,5.383-11.094c-1.578-4.551-6.547-6.958-11.094-5.383c-8.348,2.893-17.221,3.115-25.769,0.653
			c-4.329-15.291-0.185-31.6,10.989-42.88c11.123-11.229,27.183-15.405,42.265-11.075c3.489,12.326,1.532,25.382-5.452,36.039
			c-2.64,4.027-1.514,9.434,2.514,12.073c4.027,2.64,9.433,1.515,12.073-2.514c10.144-15.48,12.715-34.545,7.05-52.323
			c-0.702-2.189-1.927-4.206-3.531-5.824c-1.073-1.085-2.326-1.974-3.669-2.669c10.121-15.301,12.938-34.511,7.199-52.525
			c-0.702-2.187-1.927-4.204-3.525-5.814c-0.944-0.956-2.029-1.757-3.189-2.415c9.716-15.173,12.359-34.044,6.714-51.759
			c-0.701-2.187-1.924-4.203-3.537-5.832c-1.035-1.044-2.239-1.906-3.533-2.592c10.015-15.265,12.785-34.389,7.07-52.324
			c-0.701-2.187-1.924-4.203-3.537-5.832c-1.627-1.643-3.648-2.887-5.835-3.595c-6.075-1.974-12.366-2.975-18.7-2.975
			c-4.076,0-8.092,0.41-12.004,1.205v-64.058c0-4.816-3.904-8.72-8.72-8.72c-4.816,0-8.72,3.904-8.72,8.72v18.191
			c-4.059-4.252-8.762-7.95-14.027-10.936v-38.037c0-4.816-3.904-8.72-8.72-8.72c-4.816,0-8.72,3.904-8.72,8.72v38.037
			c-5.388,3.054-10.19,6.853-14.311,11.23v-18.485c0-4.816-3.904-8.72-8.72-8.72c-4.816,0-8.72,3.904-8.72,8.72v64.001
			c-3.822-0.757-7.741-1.149-11.72-1.149c-6.334,0-12.625,1.001-18.692,2.973c-2.204,0.714-4.23,1.963-5.839,3.593
			c-1.625,1.638-2.852,3.665-3.545,5.849c-5.714,17.925-2.944,37.048,7.074,52.311c-1.3,0.688-2.504,1.55-3.529,2.587
			c-1.627,1.639-2.855,3.669-3.545,5.85c-5.644,17.704-3.001,36.573,6.717,51.745c-1.164,0.658-2.243,1.454-3.167,2.394
			c-1.629,1.639-2.858,3.668-3.551,5.853c-5.739,18-2.921,37.21,7.203,52.509c-1.351,0.699-2.6,1.584-3.653,2.653
			c-1.63,1.641-2.859,3.671-3.551,5.854c-6.983,21.902-1.315,45.606,14.79,61.863c11.452,11.561,26.64,17.929,42.767,17.929
			c4.712,0,9.4-0.556,13.988-1.65v63.621h-62.188v-14.715c0-4.816-3.904-8.72-8.72-8.72s-8.72,3.904-8.72,8.72v14.715h-19.437
			v-30.478c0-4.816-3.904-8.72-8.72-8.72s-8.72,3.904-8.72,8.72v30.478h-54.525v-51.844c4.592,1.095,9.279,1.651,13.989,1.651
			c16.128,0,31.316-6.367,42.767-17.927c16.103-16.259,21.771-39.963,14.787-61.879c-0.702-2.189-1.927-4.207-3.531-5.824
			c-0.943-0.953-2.027-1.752-3.185-2.409c9.716-15.173,12.359-34.044,6.715-51.76c-0.702-2.19-1.928-4.208-3.537-5.831
			c-1.035-1.044-2.239-1.906-3.533-2.592c0.667-1.013,1.313-2.04,1.916-3.093c2.397-4.177,0.953-9.506-3.224-11.903
			c-4.177-2.395-9.506-0.953-11.903,3.224c-1.615,2.814-3.561,5.432-5.768,7.833c-0.675-0.023-1.35-0.04-2.025-0.04
			c-13.779,0-26.866,4.662-37.529,13.228c-1.284-0.244-2.565-0.528-3.837-0.894c-4.329-15.29-0.185-31.6,10.989-42.88
			c11.129-11.232,27.197-15.408,42.265-11.077c0.621,2.195,1.074,4.436,1.351,6.681c0.589,4.78,4.944,8.176,9.722,7.586
			c4.78-0.589,8.176-4.942,7.586-9.722c-0.469-3.8-1.299-7.586-2.473-11.27c-0.702-2.19-1.928-4.208-3.537-5.831
			c-1.627-1.643-3.647-2.887-5.834-3.595c-10.109-3.286-20.603-3.804-30.563-1.79v-64.038c0-4.816-3.904-8.72-8.72-8.72
			s-8.72,3.904-8.72,8.72v18.337c-4.053-4.275-8.758-7.993-14.026-10.999V256.52c0-4.816-3.904-8.72-8.72-8.72
			s-8.72,3.904-8.72,8.72v37.499c-5.385,3.033-10.185,6.813-14.312,11.166v-18.339c0-4.816-3.904-8.72-8.72-8.72
			s-8.72,3.904-8.72,8.72v64.026c-3.866-0.776-7.834-1.173-11.86-1.173c-6.334,0-12.626,1.001-18.694,2.973
			c-2.203,0.714-4.227,1.963-5.832,3.587c-1.629,1.641-2.859,3.669-3.55,5.854c-5.713,17.925-2.944,37.047,7.074,52.313
			c-1.3,0.688-2.503,1.547-3.524,2.582c-1.631,1.642-2.862,3.675-3.55,5.855c-5.644,17.704-3.001,36.574,6.718,51.745
			c-1.164,0.658-2.242,1.453-3.168,2.393c-1.632,1.642-2.862,3.675-3.551,5.854c-6.983,21.9-1.315,45.605,14.79,61.861
			c11.451,11.561,26.64,17.929,42.767,17.929c4.711,0,9.398-0.556,13.988-1.65v51.843H50.852v-14.715c0-4.816-3.904-8.72-8.72-8.72
			s-8.72,3.904-8.72,8.72v14.715H8.72c-4.816,0-8.72,3.904-8.72,8.72s3.904,8.72,8.72,8.72h577.84c4.816,0,8.72-3.904,8.72-8.72
			C595.28,616.743,591.376,612.839,586.56,612.839z M164.664,532.447c-8.15,8.228-18.939,12.759-30.377,12.759
			c-4.008,0-7.998-0.565-11.886-1.684c-4.329-15.291-0.185-31.6,10.989-42.88c8.153-8.229,18.94-12.761,30.377-12.761
			c4.003,0,7.989,0.564,11.888,1.686C179.98,504.859,175.835,521.166,164.664,532.447z M133.39,440.649
			c8.153-8.229,18.94-12.761,30.377-12.761c4.008,0,7.997,0.565,11.888,1.685c4.083,14.437,0.61,29.774-9.188,40.935
			c-0.899-0.041-1.797-0.066-2.699-0.066c-14.115,0-27.511,4.879-38.313,13.847c-1.024-0.215-2.043-0.464-3.053-0.755
			C118.071,468.242,122.216,451.931,133.39,440.649z M100.756,543.523c-3.886,1.117-7.877,1.683-11.886,1.683
			c-11.437,0-22.225-4.532-30.377-12.762c-11.17-11.274-15.313-27.574-10.988-42.88c3.886-1.117,7.877-1.684,11.886-1.684
			c11.437,0,22.225,4.531,30.376,12.759C100.941,511.923,105.086,528.231,100.756,543.523z M100.755,483.532
			c-1.01,0.291-2.029,0.539-3.052,0.755C86.9,475.318,73.504,470.44,59.39,470.44c-0.9,0-1.8,0.026-2.697,0.066
			c-9.799-11.156-13.273-26.483-9.187-40.935c3.886-1.118,7.877-1.685,11.887-1.685c11.437,0,22.224,4.532,30.374,12.761
			C100.943,451.932,105.087,468.243,100.755,483.532z M100.756,422.782c-1.267,0.365-2.549,0.649-3.834,0.895
			c-10.664-8.566-23.751-13.229-37.531-13.229c-0.676,0-1.35,0.017-2.023,0.04c-10.305-11.21-14.039-26.893-9.864-41.664
			c3.886-1.117,7.876-1.685,11.885-1.685c11.436,0,22.225,4.532,30.377,12.761C100.943,391.184,105.087,407.497,100.756,422.782z
			 M102.156,367.628c-3.438-3.471-7.219-6.463-11.256-8.966c-0.965-3.645-1.479-7.451-1.479-11.35
			c0-15.928,8.45-30.389,22.158-38.11c13.705,7.718,22.154,22.18,22.154,38.11c0,3.901-0.513,7.712-1.48,11.358
			c-4.027,2.493-7.81,5.482-11.253,8.958c-3.704,3.74-6.849,7.877-9.421,12.293C109.005,375.505,105.86,371.367,102.156,367.628z
			 M354.026,458.692c-14.034-0.423-27.834,4.096-39.048,12.981c-1.378-0.256-2.75-0.553-4.108-0.944
			c-4.327-15.29-0.184-31.6,10.989-42.88c8.153-8.229,18.941-12.761,30.378-12.761c4.003,0,7.989,0.564,11.888,1.686
			C368.329,431.641,364.508,447.457,354.026,458.692z M321.86,367.856c8.153-8.229,18.942-12.761,30.378-12.761
			c4.008,0,7.996,0.565,11.886,1.685c4.084,14.438,0.613,29.774-9.187,40.936c-0.899-0.041-1.797-0.066-2.699-0.066
			c-14.115,0-27.511,4.877-38.313,13.846c-1.024-0.216-2.043-0.465-3.053-0.756C306.542,395.448,310.686,379.137,321.86,367.856z
			 M352.24,294.347c4.007,0,7.996,0.566,11.885,1.685c4.175,14.759,0.442,30.446-9.863,41.663c-0.674-0.022-1.348-0.04-2.023-0.04
			c-13.78,0-26.867,4.663-37.533,13.23c-1.286-0.246-2.567-0.53-3.834-0.895c-4.329-15.291-0.185-31.601,10.989-42.881
			C330.014,298.879,340.802,294.347,352.24,294.347z M289.226,531.745c-3.886,1.118-7.877,1.685-11.886,1.685
			c-11.438,0-22.225-4.532-30.378-12.762c-11.171-11.275-15.316-27.576-10.988-42.88c3.886-1.117,7.877-1.684,11.886-1.684
			c11.436,0,22.224,4.532,30.377,12.761C289.412,500.145,293.556,516.455,289.226,531.745z M289.226,470.729
			c-1.358,0.391-2.732,0.689-4.112,0.944c-10.614-8.426-23.593-13.01-37.254-13.01c-0.594,0-1.187,0.017-1.78,0.035
			c-10.488-11.23-14.313-27.045-10.106-41.925c3.886-1.118,7.878-1.685,11.887-1.685c11.436,0,22.224,4.532,30.376,12.76
			C289.412,439.131,293.557,455.44,289.226,470.729z M235.974,356.778c3.884-1.118,7.876-1.685,11.885-1.685
			c11.436,0,22.224,4.532,30.377,12.761c11.177,11.282,15.32,27.594,10.989,42.883c-1.012,0.291-2.03,0.539-3.054,0.756
			c-10.801-8.968-24.196-13.846-38.312-13.846c-0.901,0-1.8,0.026-2.699,0.066C235.362,386.558,231.889,371.226,235.974,356.778z
			 M289.226,349.99c-1.267,0.365-2.549,0.648-3.834,0.895c-10.665-8.568-23.752-13.23-37.532-13.23c-0.674,0-1.349,0.017-2.022,0.04
			c-10.306-11.212-14.04-26.896-9.864-41.663c3.886-1.118,7.876-1.685,11.885-1.685c11.437,0,22.225,4.532,30.378,12.761
			C289.413,318.392,293.557,334.705,289.226,349.99z M290.626,294.834c-3.439-3.471-7.22-6.463-11.256-8.966
			c-0.964-3.644-1.478-7.451-1.478-11.349c0-15.928,8.449-30.389,22.158-38.11c13.705,7.718,22.154,22.18,22.154,38.11
			c0,3.897-0.513,7.705-1.478,11.35c-4.037,2.502-7.818,5.495-11.256,8.965c-3.704,3.74-6.849,7.877-9.422,12.293
			C297.475,302.712,294.33,298.574,290.626,294.834z M538.594,470.503c-14.786-0.672-29.37,4.146-41.005,13.787
			c-1.028-0.216-2.05-0.466-3.062-0.757c-4.33-15.291-0.186-31.602,10.988-42.885c8.152-8.229,18.941-12.761,30.377-12.761
			c4.008,0,7.998,0.565,11.888,1.685C551.863,444.007,548.391,459.343,538.594,470.503z M535.894,367.14
			c4.008,0,7.997,0.566,11.886,1.685c4.174,14.758,0.441,30.448-9.865,41.663c-0.674-0.023-1.347-0.04-2.023-0.04
			c-13.78,0-26.867,4.663-37.532,13.23c-1.287-0.246-2.568-0.53-3.834-0.894c-4.329-15.29-0.185-31.6,10.989-42.881
			C513.669,371.673,524.457,367.14,535.894,367.14z M472.88,543.523c-3.886,1.117-7.877,1.683-11.886,1.683
			c-11.437,0-22.225-4.532-30.378-12.762c-11.168-11.274-15.313-27.574-10.988-42.88c3.886-1.117,7.877-1.684,11.886-1.684
			c11.437,0,22.225,4.531,30.376,12.759C473.066,511.923,477.21,528.231,472.88,543.523z M472.88,483.532
			c-1.01,0.291-2.029,0.539-3.052,0.755c-10.802-8.969-24.198-13.846-38.313-13.846c-0.9,0-1.8,0.026-2.697,0.066
			c-9.799-11.156-13.273-26.483-9.187-40.935c3.886-1.118,7.877-1.685,11.887-1.685c11.436,0,22.224,4.532,30.374,12.761
			C473.067,451.932,477.211,468.243,472.88,483.532z M472.88,422.782c-1.267,0.365-2.549,0.649-3.834,0.895
			c-10.664-8.566-23.751-13.229-37.531-13.229c-0.675,0-1.35,0.017-2.023,0.04c-10.305-11.21-14.039-26.893-9.864-41.664
			c3.886-1.117,7.876-1.685,11.885-1.685c11.436,0,22.225,4.532,30.378,12.761C473.067,391.184,477.211,407.497,472.88,422.782z
			 M474.28,367.628c-3.438-3.471-7.219-6.463-11.256-8.966c-0.965-3.645-1.478-7.451-1.478-11.35c0-15.928,8.45-30.389,22.158-38.11
			c13.705,7.718,22.154,22.18,22.154,38.11c0,3.897-0.513,7.706-1.478,11.351c-4.037,2.502-7.817,5.495-11.256,8.965
			c-3.704,3.74-6.849,7.877-9.421,12.293C481.13,375.505,477.985,371.367,474.28,367.628z"/>
	</g>
</g>
<g>
	<g>
		<path fill="#634036" d="M91.407,649.898H60.865c-4.816,0-8.72,3.904-8.72,8.72c0,4.816,3.904,8.72,8.72,8.72h30.543
			c4.816,0,8.72-3.904,8.72-8.72C100.127,653.802,96.223,649.898,91.407,649.898z"/>
	</g>
</g>
<g>
	<g>
		<path fill="#634036" d="M165.241,649.898h-30.543c-4.816,0-8.72,3.904-8.72,8.72c0,4.816,3.904,8.72,8.72,8.72h30.543
			c4.816,0,8.72-3.904,8.72-8.72C173.961,653.802,170.058,649.898,165.241,649.898z"/>
	</g>
</g>
<g>
	<g>
		<path fill="#634036" d="M239.076,649.898h-30.542c-4.816,0-8.72,3.904-8.72,8.72c0,4.816,3.904,8.72,8.72,8.72h30.542
			c4.816,0,8.72-3.904,8.72-8.72C247.796,653.802,243.892,649.898,239.076,649.898z"/>
	</g>
</g>
<g>
	<g>
		<path fill="#634036" d="M312.91,649.898h-30.542c-4.816,0-8.72,3.904-8.72,8.72c0,4.816,3.904,8.72,8.72,8.72h30.542
			c4.816,0,8.72-3.904,8.72-8.72C321.63,653.802,317.726,649.898,312.91,649.898z"/>
	</g>
</g>
<g>
	<g>
		<path fill="#634036" d="M386.746,649.898h-30.541c-4.816,0-8.72,3.904-8.72,8.72c0,4.816,3.904,8.72,8.72,8.72h30.541
			c4.816,0,8.72-3.904,8.72-8.72C395.466,653.802,391.562,649.898,386.746,649.898z"/>
	</g>
</g>
<g>
	<g>
		<path fill="#634036" d="M460.58,649.898h-30.543c-4.816,0-8.72,3.904-8.72,8.72c0,4.816,3.904,8.72,8.72,8.72h30.543
			c4.816,0,8.72-3.904,8.72-8.72C469.3,653.802,465.397,649.898,460.58,649.898z"/>
	</g>
</g>
<g>
	<g>
		<path fill="#634036" d="M534.415,649.898h-30.543c-4.816,0-8.72,3.904-8.72,8.72c0,4.816,3.904,8.72,8.72,8.72h30.543
			c4.816,0,8.72-3.904,8.72-8.72C543.135,653.802,539.231,649.898,534.415,649.898z"/>
	</g>
</g>
</svg>
