<?xml version="1.0" encoding="iso-8859-1"?>
<!-- Generator: Adobe Illustrator 19.0.0, SVG Export Plug-In . SVG Version: 6.00 Build 0)  -->
<svg version="1.1" id="Capa_1" xmlns="http://www.w3.org/2000/svg" xmlns:xlink="http://www.w3.org/1999/xlink" x="0px" y="0px"
	 viewBox="0 0 512 512" style="enable-background:new 0 0 512 512;" xml:space="preserve">
<g>
	<g>
		<path fill="#634036" d="M171.951,199.442c-59.923,0-108.674,48.958-108.674,109.135s48.751,109.135,108.674,109.135
			c28.196,0,54.921-10.796,75.253-30.399c2.982-2.875,3.069-7.623,0.194-10.605c-2.874-2.981-7.622-3.069-10.605-0.194
			c-17.522,16.894-40.549,26.197-64.842,26.198c-51.652,0-93.675-42.229-93.675-94.136c0-51.906,42.022-94.136,93.675-94.136
			c51.652,0,93.675,42.229,93.675,94.136c0,16.024-4.076,31.843-11.785,45.747c-2.009,3.622-0.7,8.187,2.922,10.195
			c3.623,2.01,8.188,0.7,10.196-2.922c8.94-16.124,13.666-34.458,13.667-53.02C280.625,248.4,231.874,199.442,171.951,199.442z"/>
	</g>
</g>
<g>
	<g>
		<path fill="#634036" d="M150.748,75.414c-1.39-1.39-3.33-2.19-5.3-2.19s-3.91,0.8-5.3,2.19c-1.4,1.4-2.2,3.33-2.2,5.31c0,1.97,0.8,3.91,2.2,5.3
			c1.39,1.4,3.33,2.2,5.3,2.2s3.91-0.8,5.3-2.2c1.4-1.4,2.2-3.33,2.2-5.3C152.948,78.744,152.148,76.814,150.748,75.414z"/>
	</g>
</g>
<g>
	<g>
		<path fill="#634036" d="M177.248,95.654c-1.39-1.4-3.32-2.2-5.3-2.2c-1.97,0-3.91,0.8-5.3,2.2c-1.4,1.39-2.2,3.33-2.2,5.3s0.8,3.9,2.2,5.3
			s3.33,2.2,5.3,2.2s3.91-0.8,5.3-2.2c1.4-1.39,2.2-3.33,2.2-5.3C179.448,98.974,178.648,97.044,177.248,95.654z"/>
	</g>
</g>
<g>
	<g>
		<path fill="#634036" d="M203.757,75.414c-1.4-1.39-3.33-2.19-5.3-2.19c-1.98,0-3.91,0.8-5.31,2.19c-1.4,1.4-2.2,3.33-2.2,5.31
			c0,1.97,0.8,3.9,2.2,5.3c1.4,1.4,3.33,2.2,5.31,2.2c1.97,0,3.9-0.8,5.3-2.2c1.39-1.39,2.19-3.33,2.19-5.3
			C205.947,78.744,205.147,76.814,203.757,75.414z"/>
	</g>
</g>
<g>
	<g>
		<path fill="#634036" d="M230.257,95.654c-1.39-1.4-3.33-2.2-5.3-2.2c-1.98,0-3.91,0.8-5.31,2.2c-1.39,1.39-2.19,3.33-2.19,5.3s0.8,3.91,2.19,5.3
			c1.4,1.4,3.33,2.2,5.31,2.2c1.97,0,3.9-0.8,5.3-2.2c1.4-1.39,2.2-3.33,2.2-5.3S231.657,97.044,230.257,95.654z"/>
	</g>
</g>
<g>
	<g>
		<path fill="#634036" d="M124.248,95.654c-1.39-1.4-3.33-2.2-5.3-2.2c-1.98,0-3.91,0.8-5.31,2.2c-1.39,1.39-2.19,3.33-2.19,5.3s0.8,3.91,2.19,5.3
			c1.4,1.4,3.33,2.2,5.31,2.2c1.97,0,3.91-0.8,5.3-2.2c1.4-1.39,2.2-3.33,2.2-5.3S125.648,97.044,124.248,95.654z"/>
	</g>
</g>
<g>
	<g>
		<path fill="#634036" d="M219.599,298.81c-0.523-1.62-1.433-3.111-2.625-4.307c-0.112-0.112-0.238-0.209-0.355-0.316
			c4.989-8.818,6.187-19.419,2.985-29.417c-0.523-1.62-1.433-3.111-2.625-4.307c-1.207-1.214-2.706-2.132-4.324-2.653
			c-3.676-1.189-7.485-1.791-11.32-1.791c-1.529,0-3.041,0.105-4.535,0.29c-0.355-13.474-7.904-25.589-19.924-31.786
			c-3.037-1.561-6.823-1.561-9.86,0.004c-12.014,6.192-19.564,18.308-19.918,31.782c-1.494-0.185-3.006-0.29-4.535-0.29
			c-3.835,0-7.644,0.603-11.312,1.789c-1.633,0.526-3.134,1.447-4.327,2.649c-1.206,1.209-2.118,2.708-2.636,4.328
			c-3.199,9.987-2.001,20.585,2.982,29.4c-0.114,0.105-0.238,0.2-0.347,0.31c-1.208,1.211-2.12,2.711-2.636,4.329
			c-3.165,9.88-2.026,20.358,2.823,29.119c-0.06,0.058-0.128,0.108-0.188,0.167c-1.208,1.211-2.12,2.711-2.636,4.328
			c-4.233,13.213-0.797,27.514,8.965,37.318c6.937,6.97,16.137,10.808,25.907,10.808c1.773,0,3.538-0.143,5.287-0.398v5.593
			c0,4.142,3.358,7.5,7.5,7.5c4.142,0,7.5-3.358,7.5-7.5v-5.593c1.751,0.256,3.515,0.399,5.287,0.399
			c9.77,0,18.971-3.838,25.908-10.807c9.76-9.807,13.196-24.107,8.96-37.334c-0.522-1.619-1.433-3.11-2.622-4.302
			c-0.063-0.063-0.135-0.116-0.199-0.177C221.628,319.183,222.766,308.701,219.599,298.81z M201.335,271.02
			c1.53,0,3.056,0.163,4.56,0.487c1.406,6.582-0.271,13.39-4.563,18.551c-7.719,0-15.078,2.406-21.251,6.85
			c-1.335-7.061,0.835-14.333,5.977-19.499C190.16,273.289,195.586,271.02,201.335,271.02z M138.005,271.507
			c1.503-0.324,3.029-0.487,4.56-0.487c5.749,0,11.175,2.269,15.277,6.389c5.143,5.167,7.313,12.441,5.977,19.5
			c-6.173-4.444-13.532-6.849-21.251-6.85C138.275,284.899,136.598,278.092,138.005,271.507z M138.005,305.544
			c1.503-0.324,3.029-0.487,4.56-0.487c5.75,0,11.175,2.269,15.277,6.389c5.051,5.075,7.235,12.183,6.045,19.124
			c-6.187-4.475-13.573-6.897-21.322-6.897c-0.112,0-0.223,0.012-0.335,0.013C138.186,318.579,136.635,311.956,138.005,305.544z
			 M163.725,365.077c-1.504,0.324-3.03,0.487-4.562,0.487c-5.75,0-11.175-2.269-15.276-6.39c-5.266-5.289-7.426-12.789-5.882-20.016
			c1.503-0.324,3.029-0.487,4.56-0.487c5.751,0,11.176,2.269,15.277,6.388C163.11,350.353,165.27,357.857,163.725,365.077z
			 M175.429,266.827c-1.269,1.275-2.426,2.629-3.478,4.043c-1.052-1.415-2.209-2.769-3.479-4.044
			c-1.817-1.825-3.792-3.429-5.889-4.812c-0.334-1.529-0.518-3.107-0.518-4.718c0-7.473,3.737-14.301,9.885-18.308
			c6.148,4.007,9.884,10.835,9.884,18.308c0,1.611-0.184,3.189-0.518,4.719C179.221,263.398,177.246,265.002,175.429,266.827z
			 M200.013,359.177c-4.101,4.119-9.526,6.388-15.276,6.388c-1.53,0-3.055-0.163-4.561-0.488
			c-1.545-7.221,0.615-14.725,5.883-20.016c4.101-4.12,9.526-6.389,15.276-6.389c1.529,0,3.053,0.163,4.561,0.488
			C207.439,346.383,205.278,353.886,200.013,359.177z M201.67,323.686c-0.112-0.001-0.223-0.013-0.335-0.013
			c-7.748,0-15.134,2.422-21.321,6.898c-1.19-6.942,0.994-14.05,6.045-19.124c4.102-4.12,9.527-6.389,15.277-6.389
			c1.53,0,3.056,0.163,4.56,0.487C207.265,311.952,205.713,318.577,201.67,323.686z"/>
	</g>
</g>
<g>
	<g>
		<path fill="#634036" d="M507.376,445.756l-35.924-36.088c-2.923-2.936-7.671-2.946-10.607-0.024c-2.936,2.922-2.946,7.671-0.024,10.607
			l35.924,36.086c0.242,0.243,0.315,0.622,0.183,0.943c-0.127,0.309-0.417,0.508-0.738,0.508H391.742l-51.292-48.465
			c-1.288-1.288-2.637-2.493-4.033-3.625l24.409-24.521c8.11-8.146,18.96-12.632,30.551-12.632c11.592,0,22.442,4.486,30.551,12.633
			l16.996,17.073c2.922,2.935,7.67,2.946,10.607,0.024c2.935-2.922,2.946-7.671,0.024-10.607l-16.996-17.072
			c-10.945-10.996-25.57-17.051-41.181-17.051c-15.61,0-30.235,6.055-41.181,17.05l-27.166,27.29
			c-0.363-0.143-0.727-0.285-1.094-0.42v-70.504c0-4.142-3.358-7.5-7.5-7.5c-4.142,0-7.5,3.358-7.5,7.5v67.418
			c-0.965-0.053-1.933-0.086-2.907-0.086c-13.837,0-26.801,5.367-36.505,15.114l-48.161,48.381H36.786
			C24.773,457.788,15,447.955,15,435.87c0-9.703,6.363-18.195,15.562-20.962h18.438c4.142,0,7.5-3.358,7.5-7.5
			c0-4.142-3.358-7.5-7.5-7.5H36.964V170.463h269.972v6.135h-9.815c-4.142,0-7.5,3.358-7.5,7.5c0,4.142,3.358,7.5,7.5,7.5h9.815
			v10.91h-9.815c-4.142,0-7.5,3.358-7.5,7.5c0,4.142,3.358,7.5,7.5,7.5h9.815v10.91h-9.815c-4.142,0-7.5,3.358-7.5,7.5
			c0,4.142,3.358,7.5,7.5,7.5h9.815v10.91h-9.815c-4.142,0-7.5,3.358-7.5,7.5s3.358,7.5,7.5,7.5h9.815v24.635
			c0,4.142,3.358,7.5,7.5,7.5c4.142,0,7.5-3.358,7.5-7.5V170.463h7.289c6.893,0,12.5-5.607,12.5-12.5v-32.913
			c0-6.893-5.607-12.5-12.5-12.5h-29.931c-2.513-2.501-5.175-4.781-7.977-6.807l-25.93-18.745
			c-3.358-2.428-8.046-1.672-10.472,1.684c-2.427,3.357-1.672,8.045,1.684,10.472l18.53,13.395H68.768l65.355-47.246
			c20.503-14.824,55.145-14.825,75.65,0l21.829,15.781c3.357,2.427,8.045,1.673,10.472-1.684c2.427-3.357,1.673-8.045-1.684-10.472
			l-21.829-15.781c-25.703-18.582-67.523-18.582-93.226,0L52.58,105.744c-2.802,2.026-5.464,4.306-7.977,6.807H14.676
			c-6.893,0-12.5,5.607-12.5,12.5v32.913c0,6.893,5.607,12.5,12.5,12.5h7.288v231.64C8.785,407.921,0,421.074,0,435.87
			c0,20.357,16.502,36.919,36.786,36.919h459.403c6.42,0,12.153-3.842,14.605-9.789C513.24,457.069,511.898,450.301,507.376,445.756
			z M17.176,155.463v-6.456h78.827c4.142,0,7.5-3.358,7.5-7.5c0-4.142-3.358-7.5-7.5-7.5H17.176v-6.457h309.549v6.457h-70.731
			c-4.142,0-7.5,3.358-7.5,7.5c0,4.142,3.358,7.5,7.5,7.5h70.731v6.456H17.176z M240.527,457.788l37.627-37.798
			c6.868-6.898,16.058-10.697,25.875-10.697c9.818,0,19.007,3.799,25.876,10.698l39.998,37.797H240.527z"/>
	</g>
</g>
<g>
	<g>
		<path fill="#634036" d="M398.025,385.31c-1.4-1.4-3.33-2.2-5.31-2.2c-1.97,0-3.9,0.8-5.3,2.2c-1.4,1.39-2.2,3.32-2.2,5.3c0,1.97,0.8,3.9,2.2,5.3
			c1.4,1.4,3.33,2.2,5.3,2.2c1.98,0,3.91-0.8,5.31-2.2c1.39-1.4,2.19-3.33,2.19-5.3C400.215,388.63,399.415,386.7,398.025,385.31z"
			/>
	</g>
</g>
<g>
	<g>
		<path fill="#634036" d="M425.054,406.8c-1.39-1.39-3.33-2.19-5.3-2.19c-1.98,0-3.91,0.8-5.31,2.19c-1.39,1.4-2.19,3.33-2.19,5.31
			c0,1.97,0.8,3.91,2.19,5.3c1.4,1.4,3.33,2.2,5.31,2.2c1.97,0,3.9-0.8,5.3-2.2c1.4-1.4,2.2-3.33,2.2-5.3
			C427.254,410.13,426.454,408.2,425.054,406.8z"/>
	</g>
</g>
<g>
	<g>
		<path fill="#634036" d="M452.084,423.78c-1.39-1.4-3.33-2.2-5.3-2.2s-3.91,0.8-5.3,2.2c-1.4,1.39-2.2,3.33-2.2,5.3s0.8,3.91,2.2,5.3
			c1.39,1.4,3.33,2.2,5.3,2.2s3.91-0.8,5.3-2.2c1.4-1.39,2.2-3.33,2.2-5.3S453.484,425.17,452.084,423.78z"/>
	</g>
</g>
<g>
	<g>
		<path fill="#634036" d="M379.995,406.8c-1.39-1.39-3.32-2.19-5.3-2.19c-1.97,0-3.91,0.8-5.3,2.19c-1.4,1.4-2.2,3.33-2.2,5.31
			c0,1.97,0.8,3.9,2.2,5.3c1.39,1.4,3.33,2.2,5.3,2.2s3.91-0.8,5.3-2.2c1.4-1.39,2.2-3.33,2.2-5.3
			C382.195,410.13,381.395,408.2,379.995,406.8z"/>
	</g>
</g>
<g>
	<g>
		<path fill="#634036" d="M307.916,421.51c-1.4-1.39-3.33-2.19-5.31-2.19c-1.97,0-3.91,0.8-5.3,2.19c-1.4,1.4-2.2,3.33-2.2,5.31
			c0,1.97,0.8,3.9,2.2,5.3s3.329,2.2,5.3,2.2c1.98,0,3.91-0.8,5.31-2.2c1.39-1.39,2.19-3.33,2.19-5.3
			C310.106,424.84,309.306,422.91,307.916,421.51z"/>
	</g>
</g>
<g>
	<g>
		<path fill="#634036" d="M336.075,433.96c-1.4-1.4-3.33-2.2-5.31-2.2c-1.97,0-3.91,0.8-5.3,2.2c-1.4,1.4-2.2,3.33-2.2,5.3
			c0,1.98,0.8,3.91,2.2,5.31c1.4,1.39,3.33,2.19,5.3,2.19c1.98,0,3.91-0.8,5.31-2.19c1.39-1.4,2.19-3.33,2.19-5.31
			C338.265,437.29,337.465,435.36,336.075,433.96z"/>
	</g>
</g>
<g>
	<g>
		<path fill="#634036" d="M282.006,433.96c-1.4-1.4-3.33-2.2-5.3-2.2c-1.98,0-3.91,0.8-5.31,2.2c-1.39,1.4-2.19,3.33-2.19,5.3
			c0,1.98,0.8,3.91,2.19,5.31c1.4,1.39,3.33,2.19,5.31,2.19c1.97,0,3.9-0.8,5.3-2.19c1.4-1.4,2.2-3.33,2.2-5.31
			C284.206,437.29,283.406,435.36,282.006,433.96z"/>
	</g>
</g>
<g>
</g>
<g>
</g>
<g>
</g>
<g>
</g>
<g>
</g>
<g>
</g>
<g>
</g>
<g>
</g>
<g>
</g>
<g>
</g>
<g>
</g>
<g>
</g>
<g>
</g>
<g>
</g>
<g>
</g>
</svg>
