<?xml version="1.0" encoding="iso-8859-1"?>
<!-- Generator: Adobe Illustrator 19.0.0, SVG Export Plug-In . SVG Version: 6.00 Build 0)  -->
<svg version="1.1" id="Capa_1" xmlns="http://www.w3.org/2000/svg" xmlns:xlink="http://www.w3.org/1999/xlink" x="0px" y="0px"
	 viewBox="0 0 512 512" style="enable-background:new 0 0 512 512;" xml:space="preserve">
<g>
	<g>
		<path fill="#634036" d="M114.825,262.404c-0.2-0.492-0.2-0.492-16.645-30.295c-1.667-3.011-4.842-4.881-8.286-4.881
			c-3.454,0-6.633,1.876-8.29,4.888c-16.432,29.781-16.432,29.781-16.625,30.256c-0.014,0.032-0.027,0.064-0.039,0.097
			c-1.221,3.095-1.839,6.331-1.839,9.618c0,14.62,12.018,26.514,26.793,26.514c14.775,0,26.795-11.894,26.795-26.514
			C116.689,268.807,116.071,265.573,114.825,262.404z M89.893,283.595c-6.5,0-11.787-5.163-11.787-11.508
			c0-1.261,0.217-2.514,0.648-3.73c1.186-2.158,6.609-11.993,11.139-20.203c4.527,8.206,9.951,18.041,11.139,20.202
			c0.432,1.219,0.65,2.473,0.65,3.73C101.682,278.432,96.393,283.595,89.893,283.595z"/>
	</g>
</g>
<g>
	<g>
		<path fill="#634036" d="M113.27,153.377v0.001c-0.305-0.712-1.728-3.287-16.631-30.295c-1.661-3.018-4.838-4.893-8.29-4.893
			c-3.448,0-6.623,1.871-8.286,4.884c-14.638,26.528-16.283,29.508-16.631,30.302l-0.002-0.001
			c-1.219,3.095-1.837,6.326-1.837,9.602c0,14.599,12.002,26.477,26.756,26.477c14.753,0,26.758-11.877,26.758-26.478
			C115.107,159.7,114.49,156.471,113.27,153.377z M88.35,174.448c-6.479,0-11.75-5.147-11.75-11.472
			c-0.001-1.255,0.218-2.505,0.65-3.722c1.123-2.051,6.182-11.224,11.1-20.136c4.918,8.913,9.977,18.086,11.104,20.139
			c0.43,1.215,0.648,2.465,0.648,3.719C100.103,169.302,94.83,174.448,88.35,174.448z"/>
	</g>
</g>
<g>
	<g>
		<path fill="#634036" d="M178.757,210.058c-0.02-0.046-0.037-0.092-0.057-0.137c-0.185-0.447-0.185-0.447-13.429-24.445
			c-1.595-2.896-4.643-4.694-7.954-4.694c-3.335,0-6.391,1.814-7.95,4.689c-13.28,24.064-13.28,24.064-13.482,24.577
			c-1.047,2.661-1.579,5.443-1.579,8.268c0,12.564,10.322,22.786,23.01,22.786c12.689,0,23.013-10.223,23.013-22.787
			C180.329,215.497,179.8,212.719,178.757,210.058z M157.316,226.096c-4.414,0-8.005-3.491-8.005-7.782
			c0.001-0.808,0.136-1.615,0.401-2.401c0.9-1.642,4.158-7.547,7.604-13.794c3.441,6.234,6.697,12.141,7.607,13.794
			c0.266,0.789,0.4,1.596,0.4,2.401C165.323,222.605,161.729,226.096,157.316,226.096z"/>
	</g>
</g>
<g>
	<g>
		<path fill="#634036" d="M204.564,351.252H178.2c-4.145,0-7.503,3.359-7.503,7.503s3.358,7.503,7.503,7.503h26.364
			c4.145,0,7.503-3.359,7.503-7.503S208.709,351.252,204.564,351.252z"/>
	</g>
</g>
<g>
	<g>
		<path fill="#634036" d="M196.874,405.732h-11.961c-4.145,0-7.503,3.359-7.503,7.503s3.358,7.503,7.503,7.503h11.961
			c4.145,0,7.503-3.359,7.503-7.503S201.019,405.732,196.874,405.732z"/>
	</g>
</g>
<g>
	<g>
		<path fill="#634036" d="M204.565,432.972h-26.364c-4.145,0-7.503,3.359-7.503,7.503c0,4.144,3.358,7.503,7.503,7.503h26.364
			c4.145,0,7.503-3.359,7.503-7.503C212.068,436.331,208.71,432.972,204.565,432.972z"/>
	</g>
</g>
<g>
	<g>
		<path fill="#634036" d="M431.736,356.067H398.3c-6.481,0-11.754,5.274-11.754,11.755v76.886c0,6.481,5.273,11.755,11.754,11.755h33.436
			c6.481,0,11.754-5.273,11.754-11.755v-76.886C443.49,361.341,438.217,356.067,431.736,356.067z M428.485,441.459h-26.934v-70.386
			h26.934V441.459z"/>
	</g>
</g>
<g>
	<g>
		<path fill="#634036" d="M406.879,24.436h-36.013c-4.145,0-7.503,3.359-7.503,7.503c0,4.144,3.359,7.503,7.503,7.503h36.013
			c4.145,0,7.503-3.359,7.503-7.503C414.382,27.795,411.023,24.436,406.879,24.436z"/>
	</g>
</g>
<g>
	<g>
		<path fill="#634036" d="M463.232,104.082l-4.387-7.743c-2.042-3.605-6.619-4.873-10.227-2.831c-3.605,2.042-4.873,6.62-2.831,10.226l4.387,7.743
			c0.711,1.254,1.491,4.215,1.491,5.656v3.408H207.823v-3.408c0-1.442,0.779-4.402,1.491-5.657l25.616-45.233
			c0.221-0.239,0.783-0.567,1.1-0.641h187.423c0.322,0.074,0.875,0.397,1.098,0.64l5.371,9.482
			c2.042,3.605,6.617,4.873,10.227,2.831c3.605-2.042,4.873-6.62,2.831-10.226l-5.424-9.574c-0.453-0.802-1.006-1.564-1.628-2.28
			V12.505C435.93,5.609,430.32,0,423.425,0H235.787c-6.896,0-12.505,5.609-12.505,12.505v44.296
			c-0.51,0.621-0.969,1.271-1.354,1.953l-25.671,45.328c-1.993,3.518-3.439,9.007-3.439,13.052v203.163H59.038
			c-4.918,0-9.484,2.652-11.92,6.926c-2.44,4.285-2.38,9.573,0.154,13.799l24.359,40.657l17.074,118.577
			C89.669,506.95,95.505,512,102.278,512h351.593c7.058,0,12.8-5.737,12.8-12.79V117.133
			C466.671,113.089,465.223,107.6,463.232,104.082z M420.923,15.006v35.591H255.9l35.591-35.591H420.923z M238.288,15.006h31.981
			l-31.981,31.982V15.006z M207.823,135.547h243.842v38.944h-63.162c-1.186-1.782-2.452-3.516-3.815-5.182
			c-2.628-3.208-7.357-3.676-10.559-1.052c-3.206,2.624-3.677,7.352-1.053,10.558c7.444,9.093,11.543,20.582,11.543,32.349
			c0,28.22-23.01,51.179-51.296,51.179c-28.285,0-51.296-22.958-51.296-51.179c0-28.22,23.01-51.18,51.296-51.18
			c6.547,0,12.919,1.21,18.941,3.6c3.849,1.528,8.212-0.355,9.74-4.208c1.528-3.851-0.355-8.213-4.207-9.741
			c-7.79-3.09-16.024-4.657-24.474-4.657c-22.979,0-43.26,11.734-55.161,29.512h-70.338V135.547z M451.665,243.83v61.46
			c-18.091,19.939-36.901,28.228-59.014,26.051c-20.994-2.068-42.153-12.951-64.555-24.473
			c-20.903-10.751-42.516-21.868-64.426-25.35c-20.483-3.255-38.879,0.575-55.847,11.679V243.83h67.871
			c11.42,19.997,32.965,33.519,57.628,33.519c24.663,0,46.208-13.522,57.628-33.519H451.665z M397.209,228.824
			c1.564-5.626,2.415-11.543,2.415-17.659c0-7.414-1.268-14.739-3.671-21.667h55.712v39.326H397.209z M207.823,189.497h62.865
			c-2.366,6.794-3.667,14.079-3.667,21.667c0,6.116,0.852,12.033,2.415,17.66h-61.613V189.497z M207.822,311.913
			c16.287-13.816,33.364-18.774,53.491-15.577c19.538,3.105,40.068,13.664,59.918,23.875c22.668,11.658,46.107,23.714,69.948,26.063
			c2.782,0.274,5.523,0.411,8.232,0.411c18.989,0,36.249-6.747,52.253-20.456v138.248H297.385l18.507-128.536
			c0.568-3.934-0.602-7.916-3.218-10.929c-2.606-2.996-6.381-4.715-10.354-4.715h-94.498V311.913z M269.459,335.303l-6.219,43.189
			h-10.244c-4.145,0-7.503,3.359-7.503,7.503c0,4.143,3.358,7.503,7.503,7.503h8.083l-10.443,72.542H130.305l-10.445-72.542h99.125
			c4.145,0,7.503-3.359,7.503-7.503c0-4.144-3.358-7.503-7.503-7.503H117.698l-0.695-4.841c-0.729-5.069-2.435-9.869-5.068-14.266
			l-14.431-24.082H269.459z M103.396,496.995L86.269,378.048c-0.143-0.985-0.479-1.933-0.99-2.787l-23.941-39.958H80.01
			l19.052,31.795c1.605,2.679,2.644,5.602,3.087,8.691l14.228,98.823c0.533,3.693,3.696,6.433,7.427,6.433h133.332
			c3.73,0,6.894-2.741,7.427-6.433l20.056-139.308h16.205l-23.283,161.691H103.396z M451.666,496.995L451.666,496.995H292.705
			l2.521-17.511h156.441V496.995z"/>
	</g>
</g>
<g>
	<g>
		<path fill="#634036" d="M350.858,193.498h-36.013c-4.145,0-7.503,3.359-7.503,7.503c0,4.143,3.358,7.503,7.503,7.503h36.013
			c4.145,0,7.503-3.359,7.503-7.503C358.361,196.858,355.003,193.498,350.858,193.498z"/>
	</g>
</g>
<g>
	<g>
		<path fill="#634036" d="M345.21,217.507h-24.716c-4.145,0-7.503,3.359-7.503,7.503s3.358,7.503,7.503,7.503h24.716
			c4.145,0,7.503-3.359,7.503-7.503S349.355,217.507,345.21,217.507z"/>
	</g>
</g>
<g>
</g>
<g>
</g>
<g>
</g>
<g>
</g>
<g>
</g>
<g>
</g>
<g>
</g>
<g>
</g>
<g>
</g>
<g>
</g>
<g>
</g>
<g>
</g>
<g>
</g>
<g>
</g>
<g>
</g>
</svg>
