<?xml version="1.0" encoding="iso-8859-1"?>
<!-- Generator: Adobe Illustrator 19.0.0, SVG Export Plug-In . SVG Version: 6.00 Build 0)  -->
<svg version="1.1" id="Capa_1" xmlns="http://www.w3.org/2000/svg" xmlns:xlink="http://www.w3.org/1999/xlink" x="0px" y="0px"
	 viewBox="0 0 512.002 512.002" style="enable-background:new 0 0 512.002 512.002;" xml:space="preserve">
<g>
	<g>
		<path fill="#634036" d="M463.147,28.037c-2.929-2.929-7.678-2.929-10.606,0l-7.758,7.758c-2.929,2.929-2.929,7.678,0,10.607
			c1.464,1.464,3.384,2.197,5.303,2.197s3.839-0.732,5.303-2.197l7.758-7.758C466.076,35.715,466.076,30.966,463.147,28.037z"/>
	</g>
</g>
<g>
	<g>
		<path fill="#634036" d="M311.389,352.145c-10.739,0-19.476,8.737-19.476,19.476c0,4.142,3.358,7.5,7.5,7.5c4.142,0,7.5-3.358,7.5-7.5
			c0-2.468,2.008-4.476,4.476-4.476c2.468,0,4.476,2.008,4.476,4.476c0,4.142,3.358,7.5,7.5,7.5c4.142,0,7.5-3.358,7.5-7.5
			C330.865,360.882,322.128,352.145,311.389,352.145z"/>
	</g>
</g>
<g>
	<g>
		<path fill="#634036" d="M340.504,440.69c-2.533-8.504-10.504-14.444-19.384-14.444c-9.505,0-17.827,6.743-19.788,16.034
			c-0.857,4.052,1.735,8.032,5.788,8.887c0.522,0.11,1.043,0.163,1.557,0.163c3.47,0,6.585-2.422,7.331-5.952
			c0.505-2.395,2.655-4.132,5.112-4.132c2.295,0,4.355,1.532,5.008,3.726c1.183,3.97,5.358,6.23,9.329,5.047
			C339.427,448.836,341.686,444.66,340.504,440.69z"/>
	</g>
</g>
<g>
	<g>
		<path fill="#634036" d="M387.314,396.372c-1.962-9.291-10.284-16.034-19.788-16.034c-9.504,0-17.826,6.743-19.788,16.033
			c-0.856,4.053,1.735,8.032,5.788,8.888c0.522,0.111,1.043,0.164,1.557,0.164c3.47,0,6.585-2.421,7.331-5.952
			c0.506-2.395,2.656-4.132,5.112-4.132s4.606,1.738,5.111,4.132c0.856,4.052,4.836,6.644,8.888,5.789
			C385.578,404.404,388.169,400.424,387.314,396.372z"/>
	</g>
</g>
<g>
	<g>
		<path fill="#634036" d="M297.837,397.586c-3.44-6.946-10.388-11.26-18.134-11.26c-8.878,0-16.85,5.939-19.384,14.443
			c-1.183,3.97,1.076,8.146,5.046,9.329c0.715,0.213,1.435,0.315,2.145,0.315c3.231,0,6.215-2.105,7.185-5.36
			c0.654-2.194,2.714-3.727,5.009-3.727c2.003,0,3.799,1.117,4.689,2.914c1.838,3.712,6.334,5.231,10.049,3.395
			C298.154,405.798,299.674,401.299,297.837,397.586z"/>
	</g>
</g>
<g>
	<g>
		<path fill="#634036" d="M494.5,256.338h-93.487c-1.667-13.836-13.471-24.597-27.749-24.597c-14.278,0-26.083,10.761-27.75,24.597h-24.145
			l25.831-79.297c2.295,2.07,5.232,3.215,8.353,3.215c3.343,0,6.482-1.298,8.839-3.655l30.497-30.497
			c2.945-2.945,4.098-7.004,3.484-10.833l82.947-82.947c5.736-5.736,8.952-13.344,9.054-21.423
			c0.103-8.15-2.967-15.766-8.646-21.444c-11.706-11.706-30.936-11.523-42.866,0.407l-82.947,82.947
			c-0.655-0.104-1.319-0.171-1.995-0.171c-3.343,0-6.482,1.298-8.839,3.655l-30.497,30.498c-4.718,4.718-4.854,12.292-0.438,17.193
			l-139.52,45.447c-22.223,4.414-42.534,15.316-58.768,31.549c-10.375,10.374-18.521,22.363-24.212,35.356H17.5
			c-9.649,0-17.5,7.851-17.5,17.5v8.941c0,9.649,7.851,17.5,17.5,17.5h6.958c2.973,19.29,8.349,38.063,15.951,55.917
			c0.051,0.129,0.104,0.256,0.162,0.382c7.916,18.496,18.224,36.001,30.752,52.051c26.195,33.56,60.912,59.28,100.534,74.529v15.549
			c0,6.893,5.607,12.5,12.5,12.5h143.287c6.892,0,12.5-5.607,12.5-12.5v-15.571c34.825-13.412,66.275-35.187,91.081-63.151
			c2.749-3.099,2.465-7.839-0.633-10.587c-3.099-2.749-7.838-2.464-10.587,0.633c-23.766,26.79-54.032,47.535-87.546,60.005H179.542
			c-53.933-20.065-96.477-59.394-120.664-109.068h218.665c3.939,0,7.208-3.048,7.482-6.977
			c0.852-12.211,11.118-21.777,23.371-21.777c8.784,0,16.759,4.853,20.814,12.666c0.966,1.861,2.667,3.233,4.69,3.783
			s4.185,0.227,5.96-0.889c3.727-2.344,8.031-3.583,12.448-3.583c8.808,0,16.793,4.873,20.84,12.717
			c1.287,2.494,3.859,4.061,6.665,4.061h73.064c-4.373,8.934-9.338,17.585-14.9,25.853c-2.312,3.437-1.4,8.097,2.037,10.409
			c1.284,0.864,2.739,1.278,4.179,1.278c2.413,0,4.782-1.163,6.23-3.315c8.072-12,14.983-24.746,20.691-37.999
			c0.297-0.518,0.534-1.073,0.702-1.659c7.464-17.701,12.77-36.29,15.705-55.258h6.981c9.649,0,17.5-7.851,17.5-17.5v-8.941
			C512,264.188,504.149,256.338,494.5,256.338z M449.469,20.471c6.082-6.082,15.796-6.264,21.653-0.407
			c2.794,2.794,4.305,6.576,4.253,10.648c-0.052,4.143-1.708,8.052-4.662,11.006l-21.239,21.239l-21.246-21.246L449.469,20.471z
			 M417.623,52.316l21.246,21.246l-49.421,49.421l-21.246-21.246L417.623,52.316z M353.92,108.669l28.595,28.595l-26.962,26.962
			l-28.595-28.595L353.92,108.669z M186.856,485.037h138.287v11.171H186.856V485.037z M373.264,246.74
			c5.981,0,11.015,4.079,12.5,9.597h-25.001C362.249,250.82,367.283,246.74,373.264,246.74z M311.649,237.748l-6.056,18.59h-3.08
			L311.649,237.748z M301.106,225.191L285.8,256.338h-6.375L301.106,225.191z M261.147,256.338h-15.694l51.647-51.647
			L261.147,256.338z M240.844,216.725c2.367,3.399,7.041,4.237,10.44,1.87l35.208-24.509l-62.252,62.252h-26.844
			c7.145-5.678,14.288-10.75,21.258-15.043c0.119-0.073,0.236-0.15,0.351-0.23l3.279-2.282c3.4-2.367,4.237-7.04,1.871-10.44
			c-2.366-3.401-7.041-4.236-10.44-1.871l-3.108,2.164c-11.96,7.385-24.348,16.827-36.405,27.703h-25.079
			c0.346-0.353,0.673-0.715,1.023-1.065c14.539-14.539,31.293-25.643,48.453-32.113c0.225-0.084,0.446-0.18,0.662-0.287
			l66.734-32.796l-23.282,16.207C239.315,208.651,238.477,213.325,240.844,216.725z M126.464,231.588
			c14.224-14.223,32.027-23.74,51.484-27.521c0.302-0.059,0.6-0.136,0.892-0.231l74.596-24.299l-60.47,29.718
			c-19.019,7.233-37.485,19.472-53.425,35.412c-3.759,3.759-7.272,7.668-10.589,11.671h-20.664
			C112.976,247.346,119.06,238.993,126.464,231.588z M52.266,345.969c-5.774-14.546-10.043-29.841-12.638-45.69h42.531
			c-0.196,16.09,3.032,31.587,9.335,45.69H52.266z M99.07,315.07c-0.199,0.934-0.38,1.862-0.552,2.787
			c-0.983-5.728-1.443-11.604-1.359-17.577h6.162C101.553,305.203,100.121,310.145,99.07,315.07z M112.051,337.995
			c-0.346-6.148,0.192-12.781,1.689-19.796c1.271-5.957,3.184-11.957,5.655-17.92h14.624c-7.413,10.006-13.589,19.892-18.174,29.215
			C114.371,332.493,113.121,335.317,112.051,337.995z M125.065,345.969c1.075-2.969,2.465-6.246,4.24-9.855
			c5.549-11.284,13.679-23.536,23.683-35.835H180.3l-45.69,45.69H125.065z M155.822,345.969l45.69-45.69h28.017
			c-5.111,6.035-10.628,12.034-16.485,17.891c-10.554,10.554-21.496,19.971-32.208,27.799H155.822z M287.349,312.346
			c-0.095,0.292-0.172,0.59-0.231,0.892c-0.866,4.454-2.036,8.82-3.49,13.077c-5.961,5.039-10.392,11.858-12.426,19.654h-19.293
			c0.921-1.01,1.849-2.017,2.738-3.04c2.718-3.126,2.387-7.863-0.739-10.581c-3.126-2.718-7.864-2.388-10.581,0.739
			c-2.357,2.711-4.852,5.386-7.415,7.949c-1.7,1.7-3.437,3.333-5.191,4.933H204.99c6.377-5.409,12.648-11.179,18.661-17.193
			c9.261-9.261,17.736-18.884,25.164-28.498h15.974c-1.253,2.716-2.616,5.425-4.096,8.105c-2.002,3.626-0.685,8.189,2.941,10.19
			c3.628,2.002,8.189,0.684,10.19-2.941c2.789-5.052,5.215-10.206,7.277-15.354h10.177L287.349,312.346z M459.537,345.969H384.06
			c-7.112-10.454-18.897-16.778-31.754-16.778c-4.751,0-9.423,0.875-13.804,2.562c-7.209-9.108-18.206-14.538-30.108-14.538
			c-2.362,0-4.678,0.223-6.931,0.639c0.092-0.433,0.202-0.859,0.288-1.293l5.304-16.281H472.32
			C469.731,315.909,465.428,331.248,459.537,345.969z M497,282.779c0,1.355-1.145,2.5-2.5,2.5h-477c-1.355,0-2.5-1.145-2.5-2.5
			v-8.941c0-1.355,1.145-2.5,2.5-2.5h477c1.355,0,2.5,1.145,2.5,2.5V282.779z"/>
	</g>
</g>
<g>
	<g>
		<path fill="#634036" d="M412.684,190.823c-11.289,0-20.474,9.184-20.474,20.474s9.185,20.474,20.474,20.474s20.474-9.185,20.474-20.474
			S423.974,190.823,412.684,190.823z M412.684,216.771c-3.018,0-5.474-2.456-5.474-5.474s2.456-5.474,5.474-5.474
			s5.474,2.455,5.474,5.474C418.158,214.315,415.703,216.771,412.684,216.771z"/>
	</g>
</g>
<g>
	<g>
		<path fill="#634036" d="M128.59,149.553c-12.94,0-23.468,10.528-23.468,23.468s10.528,23.468,23.468,23.468s23.468-10.528,23.468-23.468
			C152.058,160.08,141.53,149.553,128.59,149.553z M128.59,181.488c-4.669,0-8.468-3.799-8.468-8.468s3.799-8.468,8.468-8.468
			s8.468,3.799,8.468,8.468S133.259,181.488,128.59,181.488z"/>
	</g>
</g>
<g>
	<g>
		<path fill="#634036" d="M179.487,119.612c-11.289,0-20.474,9.185-20.474,20.474c0.001,11.29,9.185,20.474,20.474,20.474
			c11.29,0,20.474-9.185,20.474-20.474C199.961,128.796,190.776,119.612,179.487,119.612z M179.487,145.561
			c-3.018,0-5.474-2.456-5.474-5.474c0.001-3.019,2.456-5.474,5.474-5.474c3.019,0,5.474,2.456,5.474,5.474
			S182.505,145.561,179.487,145.561z"/>
	</g>
</g>
<g>
	<g>
		<path fill="#634036" d="M130.586,67.717c-16.242,0-29.456,13.214-29.456,29.456s13.214,29.456,29.456,29.456s29.456-13.214,29.456-29.456
			S146.828,67.717,130.586,67.717z M130.586,111.629c-7.971,0-14.456-6.485-14.456-14.456c0-7.971,6.485-14.456,14.456-14.456
			s14.456,6.485,14.456,14.456C145.042,105.144,138.557,111.629,130.586,111.629z"/>
	</g>
</g>
<g>
</g>
<g>
</g>
<g>
</g>
<g>
</g>
<g>
</g>
<g>
</g>
<g>
</g>
<g>
</g>
<g>
</g>
<g>
</g>
<g>
</g>
<g>
</g>
<g>
</g>
<g>
</g>
<g>
</g>
</svg>
