<svg width="21" height="16" viewBox="0 0 21 16" fill="none" xmlns="http://www.w3.org/2000/svg">
<path d="M20.3783 5.45215C20.5306 5.33105 20.7572 5.44434 20.7572 5.63574V13.624C20.7572 14.6592 19.9174 15.499 18.8822 15.499H2.6322C1.59705 15.499 0.757202 14.6592 0.757202 13.624V5.63965C0.757202 5.44434 0.979858 5.33496 1.13611 5.45605C2.01111 6.13574 3.17126 6.99902 7.15564 9.89355C7.97986 10.4951 9.37048 11.7607 10.7572 11.7529C12.1517 11.7646 13.5697 10.4717 14.3627 9.89355C18.347 6.99902 19.5033 6.13184 20.3783 5.45215ZM10.7572 10.499C11.6635 10.5146 12.9681 9.3584 13.6244 8.88184C18.808 5.12012 19.2025 4.79199 20.3978 3.85449C20.6244 3.67871 20.7572 3.40527 20.7572 3.11621V2.37402C20.7572 1.33887 19.9174 0.499023 18.8822 0.499023H2.6322C1.59705 0.499023 0.757202 1.33887 0.757202 2.37402V3.11621C0.757202 3.40527 0.890015 3.6748 1.11658 3.85449C2.31189 4.78809 2.70642 5.12012 7.89001 8.88184C8.54626 9.3584 9.85095 10.5146 10.7572 10.499Z" fill="#1A3376"/>
</svg>
