<?xml version="1.0" encoding="utf-8"?>
<!-- Generator: Adobe Illustrator 24.1.2, SVG Export Plug-In . SVG Version: 6.00 Build 0)  -->
<svg version="1.1" id="svg_1" xmlns="http://www.w3.org/2000/svg" xmlns:xlink="http://www.w3.org/1999/xlink" x="0px" y="0px"
	 viewBox="0 0 459 444" width="459" height="444" xml:space="preserve">
<style type="text/css">
	.st0{fill-rule:evenodd;clip-rule:evenodd;fill:#E30514;fill-opacity:0.15;}
	.st1{fill-rule:evenodd;clip-rule:evenodd;fill:#000000;fill-opacity:1;}
</style>
<path class="st0" d="M400.78,80.42c26.06,35.69,28.48,80.82,34.75,124.57c7.21,50.35,30.6,105.19,4.41,148.79
	c-26.39,43.95-84.41,54.76-134.14,67.21c-45.53,11.41-91.28,9.67-137.37,0.8c-51.12-9.84-111.63-12.48-142.22-54.6
	c-30.51-42-11.69-99.98-7.66-151.74C22.14,169.54,33.53,124.63,57,85.01c15.77-26.62,69.68-53.28,97.33-61.94
	c45.58-14.27,118.34-10.96,134.93-4.79C331.27,33.89,374.34,44.23,400.78,80.42z"/>

<mask xmlns="http://www.w3.org/2000/svg" id="mask0" mask-type="alpha" maskUnits="userSpaceOnUse" x="0" y="0" width="459" height="444">
<path class="st1" d="M400.78,80.42c26.06,35.69,28.48,80.82,34.75,124.57c7.21,50.35,30.6,105.19,4.41,148.79
	c-26.39,43.95-84.41,54.76-134.14,67.21c-45.53,11.41-91.28,9.67-137.37,0.8c-51.12-9.84-111.63-12.48-142.22-54.6
	c-30.51-42-11.69-99.98-7.66-151.74C22.14,169.54,33.53,124.63,57,85.01c15.77-26.62,69.68-53.28,97.33-61.94
	c45.58-14.27,118.34-10.96,134.93-4.79C331.27,33.89,374.34,44.23,400.78,80.42z"/>
</mask>
<g xmlns="http://www.w3.org/2000/svg" mask="url(#mask0)">
<rect x="40" y="50" width="500" height="500" fill="url(#pattern0)"/>
</g>
<defs xmlns="http://www.w3.org/2000/svg">
<pattern id="pattern0" patternContentUnits="objectBoundingBox" width="1" height="1">
<use xmlns:xlink="http://www.w3.org/1999/xlink" xlink:href="#image0" transform="scale(0.0015)"/>
</pattern>
<image id="image0" width="500" height="500" xmlns:xlink="http://www.w3.org/1999/xlink" xlink:href="boygirl.png"/>
</defs>
</svg>
