<?xml version="1.0" encoding="utf-8"?>
<!-- Generator: Adobe Illustrator 24.1.2, SVG Export Plug-In . SVG Version: 6.00 Build 0)  -->
<svg version="1.1" id="vector_3" xmlns="http://www.w3.org/2000/svg" xmlns:xlink="http://www.w3.org/1999/xlink" x="0px" y="0px"
	 viewBox="0 0 609 470"  width="609" height="470" xml:space="preserve">
<style type="text/css">
	.st0{fill-rule:evenodd;clip-rule:evenodd;fill:#E30514;fill-opacity:0.1;}
	.st1{fill:none;}
</style>
<path class="st0" d="M297.4,92.4c81.1-3.2,167.9,0.2,227.8,36.2c62,37.2,78.6,94.6,82.2,149.7c3.8,58.1,2.8,123.3-62,162.9
	c-63.7,39-160.9,26.9-248,27C210.1,468.3,89.5,476,45,444.5C16,424-6.8,336.9,2.5,278.3c8.4-53,32.3-97.2,93.2-132.5
	C152.2,113,222.1,95.4,297.4,92.4z"/>
<g>
<rect x="50" y="25" width="450" height="450" fill="url(#pattern0)"/>
</g>
<defs xmlns="http://www.w3.org/2000/svg">
<pattern id="pattern0" patternContentUnits="objectBoundingBox" width="1" height="1">
<use xmlns:xlink="http://www.w3.org/1999/xlink" xlink:href="#image0" transform="scale(0.002)"/>
</pattern>
<image id="image0" width="500" height="500" xmlns:xlink="http://www.w3.org/1999/xlink" xlink:href="table.png"/>
</defs>
</svg>
