<svg xmlns="http://www.w3.org/2000/svg" viewBox="0 0 102.49 119.6"><defs><style>.cls-3{fill:#fff;fill-rule:evenodd}</style></defs><g id="Слой_2" data-name="Слой 2"><g opacity=".8" id="hover"><path d="M14.23 101.23l6.14.76c-2 8.28-15.21 9.71-18.76 1.66a10.6 10.6 0 0 1-.73-4.32 10.81 10.81 0 0 1 .89-4.69C5.19 87.42 17.69 87.67 20 96l-6 .86a3.21 3.21 0 0 0-5.67-1.11 6 6 0 0 0-1 3.77 5.14 5.14 0 0 0 1 3.41c2 2.4 5.15 1 5.94-1.7zm23.31-6h-4.68v13.12h-6.47V95.24H21.7v-5.1h15.84v5.1zm2.34 20.06V90.13h6v2.69c2.65-3.58 7.83-4.59 10.67-.31 2.41 3.66 2.75 10.39-.17 13.87a6.64 6.64 0 0 1-10 .21v8.71zm6.48-16c0 5.5 5.62 5.65 5.62-.15s-5.62-5.51-5.62.15zm14.38 0c0-12.61 19.36-12.72 19.36-.1s-19.36 12.7-19.36.1zm6.47 0c0 6.23 6.4 6.24 6.4-.07s-6.4-6.06-6.4.07zm34.79 9.07h-6.07v-9l-6.35 9h-6.14V90.14h6.11v9.08L96 90.14h6v18.22z" fill="#fff"/><path class="cls-3" d="M0 119.6h102.49v-4.19H0v4.19zM1 0h8.79c0 12.35.15 24.45-4 36.33H1V0zm47.45 0H102v84.55h-1.52v-.67a7.81 7.81 0 0 0-4.88-7.23h6.4L82.67 21.89H64.39l-11 29.45v-15h-5V0zM85 84.55H1V57.48h11.5V47.21h29.44v10.27h9.19L44 76.65h17.13l2.62-9h19.11l2.66 9h4.29a7.8 7.8 0 0 0-4.87 7.23v.67zm-5.66-28.78l-6-19.69-6 19.69zM34.2 36.33V11.6H22.75v.6q0 9.8-3.24 24.13z"/><path class="cls-3" d="M92.73 79.31a4.57 4.57 0 1 1-4.58 4.57 4.57 4.57 0 0 1 4.58-4.57z"/></g></g></svg>