<svg xmlns="http://www.w3.org/2000/svg" viewBox="0 0 203.6 90.09"><g data-name="Слой 2"><path d="M94.76 59.15V37.86h1.49l14.69 18.52V37.86h1.52v21.29h-1.18l-15-18.92v18.92zm30.24.37a7.25 7.25 0 0 1-5.37-2.28 8.06 8.06 0 0 1-2.24-5.88 8.28 8.28 0 0 1 2.11-5.75 6.79 6.79 0 0 1 5.25-2.34 6.45 6.45 0 0 1 5.16 2.31 8.68 8.68 0 0 1 2 5.81 5 5 0 0 1 0 .61H119a6.6 6.6 0 0 0 2 4.46 5.79 5.79 0 0 0 4.13 1.66 7.07 7.07 0 0 0 5.32-2.44l1 .92a8.47 8.47 0 0 1-6.45 2.92zm-6-8.86h11.29a7.35 7.35 0 0 0-1.61-4.28 4.86 4.86 0 0 0-4-1.74 5.12 5.12 0 0 0-3.89 1.72 6.89 6.89 0 0 0-1.79 4.3zm17.25-11.07v-2h1.86v2zm.18 19.56V43.64h1.49v15.51zm12.57.28a4.56 4.56 0 0 1-3.14-1.08 4 4 0 0 1-1.21-3.18V45h-2.26v-1.36h2.26v-5h1.49v5h5.44V45h-5.44v10q0 3 3.1 3a5.66 5.66 0 0 0 2.28-.55v1.4a6 6 0 0 1-2.52.58zm-47.76 30.66a11.67 11.67 0 0 1-7.12-2.38L95 86.5a10 10 0 0 0 6.27 2.19 6.18 6.18 0 0 0 4.42-1.56 5.8 5.8 0 0 0 1.66-4.47v-2.25A7.63 7.63 0 0 1 95.67 82a7.37 7.37 0 0 1 0-10.6 7.69 7.69 0 0 1 11.68 1.4v-3.16h1.49v13.11a7.16 7.16 0 0 1-2 5.27 7.61 7.61 0 0 1-5.6 2.07zm-.24-7.52a6.61 6.61 0 0 0 4.47-1.69 5.42 5.42 0 0 0 1.94-4.27 5.32 5.32 0 0 0-1.93-4.24 6.65 6.65 0 0 0-4.48-1.66 6 6 0 0 0-4.26 1.63 6.07 6.07 0 0 0 0 8.54 5.86 5.86 0 0 0 4.26 1.69zm13.5 2.59V69.64h1.5v4.41a8.23 8.23 0 0 1 2.78-3.43 6.46 6.46 0 0 1 4.1-1.22V71h-.16a6.3 6.3 0 0 0-4.77 2.07 8 8 0 0 0-2 5.69v6.36zm16.88.36a6.91 6.91 0 0 1-4.18-1.31 4.2 4.2 0 0 1-1.81-3.62 4.33 4.33 0 0 1 1.86-3.71 8.24 8.24 0 0 1 4.92-1.34 20.33 20.33 0 0 1 5.15.67v-.67A4.52 4.52 0 0 0 136 72a5.44 5.44 0 0 0-3.78-1.22 10.58 10.58 0 0 0-4.86 1.25l-.55-1.31a13.16 13.16 0 0 1 5.51-1.34 6.64 6.64 0 0 1 4.89 1.7 5.92 5.92 0 0 1 1.59 4.38v9.68h-1.46v-2.57a6.86 6.86 0 0 1-5.96 2.95zm.09-1.4a6.53 6.53 0 0 0 4.16-1.35 4.19 4.19 0 0 0 1.72-3.42v-1.77a21.6 21.6 0 0 0-5.27-.7 6.24 6.24 0 0 0-3.77 1 3.18 3.18 0 0 0-1.31 2.68 3 3 0 0 0 1.33 2.59 5.19 5.19 0 0 0 3.14.97zM144.13 90V69.64h1.49v3.47q2.52-3.83 6.39-3.83a7.3 7.3 0 0 1 5.26 2.23 8.72 8.72 0 0 1 0 11.76 7.32 7.32 0 0 1-11.65-1.46V90zm7.73-5.93a5.77 5.77 0 0 0 4.35-1.81 6.77 6.77 0 0 0 1.73-4.88 6.69 6.69 0 0 0-1.78-4.84 5.77 5.77 0 0 0-4.3-1.85 6.06 6.06 0 0 0-4.43 1.9 6.52 6.52 0 0 0-1.9 4.82 6.44 6.44 0 0 0 1.9 4.78 6.12 6.12 0 0 0 4.43 1.9zm12.35 1.09V63h1.49v9.58a6 6 0 0 1 5.59-3.25 5.91 5.91 0 0 1 4.55 1.78 6.46 6.46 0 0 1 1.66 4.61v9.49H176v-9.27a5.5 5.5 0 0 0-1.31-3.86 4.64 4.64 0 0 0-3.62-1.43 5.19 5.19 0 0 0-3.85 1.56 5.46 5.46 0 0 0-1.53 4v9zm18.67-19.56v-2h1.86v2zm.19 19.56V69.64h1.49v15.52zm14.2.36a7.51 7.51 0 0 1-5.63-2.37 8.34 8.34 0 0 1 0-11.48 7.46 7.46 0 0 1 5.61-2.39 8 8 0 0 1 6.18 2.89l-1 1.06a7.27 7.27 0 0 0-5.17-2.55 5.87 5.87 0 0 0-4.43 2A6.77 6.77 0 0 0 191 77.4a6.66 6.66 0 0 0 1.86 4.76 6 6 0 0 0 4.53 2 6.87 6.87 0 0 0 5.14-2.64l1.1 1a8.22 8.22 0 0 1-6.36 3zM80.22 80.99v4.96L4.14 35.15v50.8H0V27.41l4.14 2.77 76.08 50.81zm0-80.99v58.54l-4.12-2.77L0 4.97V0l76.1 50.82V0h4.12zm0 67.28v4.97L.01 18.68v-4.97l80.21 53.57z" fill="#707570" data-name="1"/></g></svg>