<svg xmlns="http://www.w3.org/2000/svg" viewBox="0 0 25.24 21.47"><g data-name="Слой 2"><path d="M25.22 1.28a3.76 3.76 0 0 1-.09.65c-.13.62-.28 1.24-.4 1.87s-.29 1.55-.44 2.32c-.06.31-.15.62-.21.93-.14.71-.27 1.42-.42 2.12-.24 1.17-.5 2.34-.75 3.51-.19.91-.37 1.82-.56 2.72s-.38 1.88-.56 2.82a16.65 16.65 0 0 1-.31 1.83 1.78 1.78 0 0 1-1 1.36 1.26 1.26 0 0 1-1.14-.18c-.6-.37-1.15-.8-1.72-1.21l-1.93-1.44-1.9-1.42a.56.56 0 0 0-.79 0c-.51.49-1 1-1.51 1.5A16.81 16.81 0 0 1 10 20a.79.79 0 0 1-1.11-.07.74.74 0 0 1-.14-.22c-.32-.74-.6-1.5-.86-2.26-.35-1-.67-2-1-3-.15-.46-.3-.91-.41-1.38s-.41-.68-1-.83-1-.33-1.56-.48l-1.44-.43c-.61-.17-1.22-.36-1.82-.59a1 1 0 0 1-.66-1 1.19 1.19 0 0 1 .83-.94C2.39 8.2 4 7.63 5.54 7c1.08-.41 2.16-.86 3.25-1.27.88-.33 1.78-.63 2.67-1 .59-.22 1.17-.5 1.76-.72.86-.33 1.74-.63 2.61-.95l1.65-.63 2.05-.78L21.38 1c.8-.31 1.58-.67 2.4-.9a1.08 1.08 0 0 1 1.39.6 1.05 1.05 0 0 1 .05.58zm-4.68 2.77l-.1-.05a3.82 3.82 0 0 0-.46.21c-1 .65-2.11 1.31-3.16 2l-5.39 3.4q-1.86 1.18-3.75 2.34c-.29.18-.31.37-.18.67a9.58 9.58 0 0 1 .5 1.24c.14.44.26.88.41 1.32.23.72.47 1.43.71 2.14 0 .14.13.27.19.41.07-.14.15-.28.21-.43s0-.11 0-.17c.07-.68.16-1.36.2-2a2.69 2.69 0 0 1 1-2c1.73-1.53 3.44-3.13 5.18-4.71 1.47-1.33 3-2.63 4.42-4a.43.43 0 0 0 .22-.37z" fill="#1a2128" data-name="Слой 1"/></g></svg>