<svg xmlns="http://www.w3.org/2000/svg" viewBox="0 0 22.66 24.96"><g data-name="Слой 2"><path d="M5.2 22.76l.09-2.19c0-.37-.27-.52-.54-.62A6.71 6.71 0 0 1 1.89 18a6.24 6.24 0 0 1-1.33-2.42C.34 14.8.19 14 0 13.21a1.22 1.22 0 0 1 0-.27v-4.4a8.31 8.31 0 0 1 .25-1.38v-.62a7.71 7.71 0 0 1 1.29-3 6.61 6.61 0 0 1 2.62-2.12C4.77 1.16 5.36.86 6 .66a13.34 13.34 0 0 1 2-.39C8.91.15 9.83 0 10.76 0a17 17 0 0 1 2.14.1c.63.06 1.26.12 1.88.24a11.58 11.58 0 0 1 4.83 1.71 6 6 0 0 1 2 2.46 11.3 11.3 0 0 1 .8 3.49c.08.9.23 1.78.25 2.68a14.89 14.89 0 0 1-.2 2 3.66 3.66 0 0 1-.13 1.18 14.15 14.15 0 0 1-.7 2.49 6 6 0 0 1-1 1.64 5.2 5.2 0 0 1-2.18 1.64 21.24 21.24 0 0 1-2.29.77 16.87 16.87 0 0 1-2.34.32c-.9.09-1.8.15-2.7.2a2.53 2.53 0 0 1-.78-.09 1.16 1.16 0 0 0-1.14.3c-1.23 1.2-2.39 2.47-3.57 3.7-.07.08-.24.16-.28.13a.42.42 0 0 1-.15-.31v-1.89zm1-18.52a2.42 2.42 0 0 0-2.28 2.54 2.59 2.59 0 0 0 .2.82 20.7 20.7 0 0 0 1.27 2.59 16.93 16.93 0 0 0 5.74 6.06 28.66 28.66 0 0 0 2.77 1.53 2.19 2.19 0 0 0 1.52.36 3.13 3.13 0 0 0 2.3-2 .85.85 0 0 0-.22-1.08c-.84-.64-1.69-1.26-2.54-1.89l-.16-.06a1.43 1.43 0 0 0-1.73.68 1.19 1.19 0 0 1-1.61.37A6.81 6.81 0 0 1 8 10.86c-.24-.51-.52-1.08-.09-1.63a6.4 6.4 0 0 1 .79-.77 1 1 0 0 0 .21-1.29C8.4 6.38 7.85 5.6 7.28 4.84a1.31 1.31 0 0 0-1.08-.6zm11.47 6.08h.09c-.17-.73-.32-1.46-.52-2.18a5.42 5.42 0 0 0-1.76-2.62 6.63 6.63 0 0 0-3.42-1.42 3.87 3.87 0 0 0-.83-.1c-.12 0-.22.16-.33.24.1.07.2.2.31.21A7.58 7.58 0 0 1 13.5 5a5.12 5.12 0 0 1 2.32 1.65 6.23 6.23 0 0 1 1.24 3 5.67 5.67 0 0 0 .18 1 1.11 1.11 0 0 0 .25.32 2.64 2.64 0 0 0 .18-.38 1.5 1.5 0 0 0 0-.27zm-6-4.64l-.26.24c.09.1.17.24.29.27.35.12.72.18 1.07.27a3.08 3.08 0 0 1 2.33 2.08c.16.49.23 1 .36 1.52a1 1 0 0 0 .23.34 2.91 2.91 0 0 0 .26-.33.34.34 0 0 0 0-.2 6.32 6.32 0 0 0-.54-2 4.58 4.58 0 0 0-3.74-2.16zm.61 1.81l-.28.19c.1.07.19.19.3.21a1.73 1.73 0 0 1 1.43 1.32 1.21 1.21 0 0 0 .11.37c0 .08.14.13.22.19s.16-.19.15-.28a2.78 2.78 0 0 0-.11-.5 2.09 2.09 0 0 0-1.88-1.47z" fill="#1a2128" data-name="Слой 1"/></g></svg>