<svg xmlns="http://www.w3.org/2000/svg" viewBox="0 0 24.17 24.45"><defs><style>.cls-1{fill:#1a2128}</style></defs><g id="Слой_2" data-name="Слой 2"><g id="Слой_1-2" data-name="Слой 1"><path class="cls-1" d="M12.27 0a11.51 11.51 0 0 1 4.55.94 12.25 12.25 0 0 1 5.83 5.25 10.69 10.69 0 0 1 1 2.45 14.24 14.24 0 0 1 .52 3.11A11.78 11.78 0 0 1 24 13.8c-.09.54-.2 1.07-.34 1.6a6.62 6.62 0 0 1-.36 1.06 12.53 12.53 0 0 1-3.15 4.4 14.08 14.08 0 0 1-2.32 1.6 13.73 13.73 0 0 1-2.53 1 12.42 12.42 0 0 1-2.1.34 7.23 7.23 0 0 1-1.31.06c-.59 0-1.18-.17-1.77-.23a7.42 7.42 0 0 1-2.79-.89 2 2 0 0 0-1.81 0c-1 .39-2.09.72-3.14 1.06-.66.22-1.32.44-2 .64a.37.37 0 0 1-.38-.05c-.06 0 0-.21 0-.31.23-.75.46-1.49.72-2.23s.46-1.27.68-1.9.38-1.15.56-1.73a.52.52 0 0 0-.07-.32c-.28-.61-.6-1.2-.86-1.82-.17-.44-.25-.92-.39-1.38a12.65 12.65 0 0 1-.24-3.88A4.69 4.69 0 0 1 .59 9.7 10.24 10.24 0 0 1 1 8.18a14.83 14.83 0 0 1 1-2.09 11.62 11.62 0 0 1 2.4-3A12.43 12.43 0 0 1 8 .83a14.5 14.5 0 0 1 2.77-.74 12.45 12.45 0 0 1 1.5-.09zM3.35 21.06h.17l2.71-.87a1 1 0 0 1 .94 0 9.88 9.88 0 0 0 3.72 1.36 10.1 10.1 0 0 0 3.29-.08A8.55 8.55 0 0 0 17.63 20 9.61 9.61 0 0 0 22 12a8.09 8.09 0 0 0-.59-3.4 20.64 20.64 0 0 0-1.06-2.1 8.5 8.5 0 0 0-2.63-2.64 9.6 9.6 0 0 0-8-1.26 12 12 0 0 0-2.36 1 9.52 9.52 0 0 0-4 4.78A9.65 9.65 0 0 0 4.11 17c.28.43.55.82.17 1.32v.16l-.81 2.19a2.06 2.06 0 0 0-.12.39z"/><path class="cls-1" d="M15.47 18a3.65 3.65 0 0 1-1.83-.45 14.59 14.59 0 0 1-2-.94 11 11 0 0 1-3.53-3.41c-.44-.66-.87-1.34-1.25-2a4.07 4.07 0 0 1-.39-3 3.17 3.17 0 0 1 1.27-1.91 1.55 1.55 0 0 1 1.68 0c.22.1.36.44.46.7.24.6.38 1.25.67 1.82a1.08 1.08 0 0 1-.23 1.32 7.55 7.55 0 0 1-.54.59.39.39 0 0 0-.06.54 8.29 8.29 0 0 0 3.37 3.37 1.23 1.23 0 0 0 .59.21 1 1 0 0 0 .54-.27c.31-.31.58-.66.87-1a.49.49 0 0 1 .66-.12l2.46 1.32a.64.64 0 0 1 .32.7A2.87 2.87 0 0 1 15.47 18z"/></g></g></svg>