<svg width="597" height="318" viewBox="0 0 597 318" fill="none" xmlns="http://www.w3.org/2000/svg">
<path d="M305.284 68.4763C305.284 72.2122 302.226 75.2775 298.5 75.2775C294.774 75.2775 291.717 72.2122 291.717 68.4763C291.717 64.7404 294.774 61.675 298.5 61.675C302.226 61.7708 305.284 64.7404 305.284 68.4763Z" fill="#95D445"/>
<path d="M214.994 116.564C214.994 120.3 211.937 123.365 208.211 123.365C204.485 123.365 201.427 120.3 201.427 116.564C201.427 112.828 204.485 109.763 208.211 109.763C211.937 109.763 214.994 112.828 214.994 116.564Z" fill="#95D445"/>
<path d="M214.994 212.644C214.994 216.38 211.937 219.445 208.211 219.445C204.485 219.445 201.427 216.38 201.427 212.644C201.427 208.908 204.485 205.842 208.211 205.842C211.937 205.842 214.994 208.908 214.994 212.644Z" fill="#95D445"/>
<path d="M305.284 260.731C305.284 264.467 302.226 267.533 298.5 267.533C294.774 267.533 291.717 264.467 291.717 260.731C291.717 256.996 294.774 253.93 298.5 253.93C302.226 253.93 305.284 256.9 305.284 260.731Z" fill="#95D445"/>
<path d="M305.284 164.556C305.284 168.292 302.226 171.357 298.5 171.357C294.774 171.357 291.717 168.292 291.717 164.556C291.717 160.82 294.774 157.755 298.5 157.755C302.226 157.85 305.284 160.82 305.284 164.556Z" fill="#95D445"/>
<path d="M395.572 116.564C395.572 120.3 392.515 123.365 388.789 123.365C385.063 123.365 382.005 120.3 382.005 116.564C382.005 112.828 385.063 109.763 388.789 109.763C392.515 109.763 395.572 112.828 395.572 116.564Z" fill="#95D445"/>
<path d="M395.572 212.644C395.572 216.38 392.515 219.445 388.789 219.445C385.063 219.445 382.005 216.38 382.005 212.644C382.005 208.908 385.063 205.842 388.789 205.842C392.515 205.842 395.572 208.908 395.572 212.644Z" fill="#95D445"/>
<path d="M214.994 188.6C214.994 192.336 211.937 195.401 208.211 195.401C204.485 195.401 201.427 192.336 201.427 188.6C201.427 184.864 204.485 181.799 208.211 181.799C211.937 181.799 214.994 184.864 214.994 188.6Z" fill="#95D445"/>
<path d="M237.543 104.59C237.543 108.326 234.486 111.391 230.759 111.391C227.033 111.391 223.976 108.326 223.976 104.59C223.976 100.854 227.033 97.7887 230.759 97.7887C234.486 97.7887 237.543 100.758 237.543 104.59Z" fill="#95D445"/>
<path d="M372.929 104.59C372.929 108.326 369.871 111.391 366.145 111.391C362.419 111.391 359.362 108.326 359.362 104.59C359.362 100.854 362.419 97.7887 366.145 97.7887C369.967 97.7887 372.929 100.758 372.929 104.59Z" fill="#95D445"/>
<path d="M260.091 92.5201C260.091 96.256 257.034 99.3214 253.308 99.3214C249.581 99.3214 246.524 96.256 246.524 92.5201C246.524 88.7842 249.581 85.7189 253.308 85.7189C257.129 85.7189 260.091 88.7842 260.091 92.5201Z" fill="#95D445"/>
<path d="M350.38 92.5201C350.38 96.256 347.323 99.3214 343.597 99.3214C339.87 99.3214 336.813 96.256 336.813 92.5201C336.813 88.7842 339.87 85.7189 343.597 85.7189C347.323 85.7189 350.38 88.7842 350.38 92.5201Z" fill="#95D445"/>
<path d="M282.735 80.5461C282.735 84.282 279.678 87.3474 275.952 87.3474C272.226 87.3474 269.168 84.282 269.168 80.5461C269.168 76.8102 272.226 73.7449 275.952 73.7449C279.678 73.7449 282.735 76.8102 282.735 80.5461Z" fill="#95D445"/>
<path d="M327.832 80.5461C327.832 84.282 324.774 87.3474 321.048 87.3474C317.322 87.3474 314.265 84.282 314.265 80.5461C314.265 76.8102 317.322 73.7449 321.048 73.7449C324.774 73.7449 327.832 76.8102 327.832 80.5461Z" fill="#95D445"/>
<path d="M305.284 212.644C305.284 216.38 302.226 219.445 298.5 219.445C294.774 219.445 291.717 216.38 291.717 212.644C291.717 208.908 294.774 205.842 298.5 205.842C302.226 205.842 305.284 208.908 305.284 212.644Z" fill="#95D445"/>
<path d="M282.735 248.662C282.735 252.398 279.678 255.463 275.952 255.463C272.226 255.463 269.168 252.398 269.168 248.662C269.168 244.926 272.226 241.86 275.952 241.86C279.678 241.86 282.735 244.926 282.735 248.662Z" fill="#95D445"/>
<path d="M327.832 248.662C327.832 252.398 324.774 255.463 321.048 255.463C317.322 255.463 314.265 252.398 314.265 248.662C314.265 244.926 317.322 241.86 321.048 241.86C324.774 241.86 327.832 244.926 327.832 248.662Z" fill="#95D445"/>
<path d="M260.091 236.688C260.091 240.423 257.034 243.489 253.308 243.489C249.581 243.489 246.524 240.423 246.524 236.688C246.524 232.952 249.581 229.886 253.308 229.886C257.129 229.886 260.091 232.952 260.091 236.688Z" fill="#95D445"/>
<path d="M305.284 236.688C305.284 240.423 302.226 243.489 298.5 243.489C294.774 243.489 291.717 240.423 291.717 236.688C291.717 232.952 294.774 229.886 298.5 229.886C302.226 229.886 305.284 232.952 305.284 236.688Z" fill="#95D445"/>
<path d="M350.38 236.688C350.38 240.423 347.323 243.489 343.597 243.489C339.87 243.489 336.813 240.423 336.813 236.688C336.813 232.952 339.87 229.886 343.597 229.886C347.323 229.886 350.38 232.952 350.38 236.688Z" fill="#95D445"/>
<path d="M237.543 224.618C237.543 228.354 234.486 231.419 230.759 231.419C227.033 231.419 223.976 228.354 223.976 224.618C223.976 220.882 227.033 217.816 230.759 217.816C234.486 217.912 237.543 220.882 237.543 224.618Z" fill="#95D445"/>
<path d="M372.929 224.618C372.929 228.354 369.871 231.419 366.145 231.419C362.419 231.419 359.362 228.354 359.362 224.618C359.362 220.882 362.419 217.816 366.145 217.816C369.967 217.912 372.929 220.882 372.929 224.618Z" fill="#95D445"/>
<path d="M305.284 188.6C305.284 192.336 302.226 195.401 298.5 195.401C294.774 195.401 291.717 192.336 291.717 188.6C291.717 184.864 294.774 181.799 298.5 181.799C302.226 181.799 305.284 184.864 305.284 188.6Z" fill="#95D445"/>
<path d="M282.735 152.582C282.735 156.318 279.678 159.383 275.952 159.383C272.226 159.383 269.168 156.318 269.168 152.582C269.168 148.846 272.226 145.781 275.952 145.781C279.678 145.781 282.735 148.846 282.735 152.582Z" fill="#95D445"/>
<path d="M260.091 140.608C260.091 144.344 257.034 147.409 253.308 147.409C249.581 147.409 246.524 144.344 246.524 140.608C246.524 136.872 249.581 133.807 253.308 133.807C257.129 133.807 260.091 136.872 260.091 140.608Z" fill="#95D445"/>
<path d="M237.543 128.538C237.543 132.274 234.486 135.339 230.759 135.339C227.033 135.339 223.976 132.274 223.976 128.538C223.976 124.802 227.033 121.737 230.759 121.737C234.486 121.737 237.543 124.802 237.543 128.538Z" fill="#95D445"/>
<path d="M212.988 164.556C212.988 167.142 210.886 169.346 208.211 169.346C205.631 169.346 203.434 167.238 203.434 164.556C203.434 161.97 205.536 159.766 208.211 159.766C210.791 159.862 212.988 161.97 212.988 164.556Z" fill="#69BB72"/>
<path d="M258.085 68.4763C258.085 71.0627 255.983 73.2659 253.307 73.2659C250.728 73.2659 248.53 71.1585 248.53 68.4763C248.53 65.8899 250.632 63.6867 253.307 63.6867C255.983 63.7825 258.085 65.8899 258.085 68.4763Z" fill="#69BB72"/>
<path d="M348.374 68.4763C348.374 71.0627 346.272 73.2659 343.597 73.2659C341.017 73.2659 338.819 71.1585 338.819 68.4763C338.819 65.8899 340.921 63.6867 343.597 63.6867C346.272 63.7825 348.374 65.8899 348.374 68.4763Z" fill="#69BB72"/>
<path d="M280.633 56.5023C280.633 59.0887 278.531 61.2919 275.856 61.2919C273.276 61.2919 271.079 59.1844 271.079 56.5023C271.079 53.9159 273.181 51.7126 275.856 51.7126C278.531 51.7126 280.633 53.9159 280.633 56.5023Z" fill="#69BB72"/>
<path d="M325.826 56.5023C325.826 59.0887 323.724 61.2919 321.048 61.2919C318.469 61.2919 316.271 59.1844 316.271 56.5023C316.271 53.9159 318.373 51.7126 321.048 51.7126C323.724 51.7126 325.826 53.9159 325.826 56.5023Z" fill="#69BB72"/>
<path d="M303.277 44.5282C303.277 47.1146 301.175 49.3178 298.5 49.3178C295.92 49.3178 293.723 47.2104 293.723 44.5282C293.723 41.9418 295.825 39.7386 298.5 39.7386C301.08 39.7386 303.277 41.846 303.277 44.5282Z" fill="#69BB72"/>
<path d="M258.085 116.564C258.085 119.15 255.983 121.354 253.307 121.354C250.728 121.354 248.53 119.246 248.53 116.564C248.53 113.978 250.632 111.774 253.307 111.774C255.983 111.774 258.085 113.978 258.085 116.564Z" fill="#69BB72"/>
<path d="M348.374 116.564C348.374 119.15 346.272 121.354 343.597 121.354C341.017 121.354 338.819 119.246 338.819 116.564C338.819 113.978 340.921 111.774 343.597 111.774C346.272 111.774 348.374 113.978 348.374 116.564Z" fill="#69BB72"/>
<path d="M190.344 104.59C190.344 107.176 188.242 109.38 185.567 109.38C182.988 109.38 180.79 107.272 180.79 104.59C180.79 102.004 182.892 99.8004 185.567 99.8004C188.242 99.8004 190.344 101.908 190.344 104.59Z" fill="#69BB72"/>
<path d="M280.633 104.59C280.633 107.176 278.531 109.38 275.856 109.38C273.276 109.38 271.079 107.272 271.079 104.59C271.079 102.004 273.181 99.8004 275.856 99.8004C278.531 99.8004 280.633 101.908 280.633 104.59Z" fill="#69BB72"/>
<path d="M325.826 104.59C325.826 107.176 323.724 109.38 321.048 109.38C318.469 109.38 316.271 107.272 316.271 104.59C316.271 102.004 318.373 99.8004 321.048 99.8004C323.724 99.8004 325.826 101.908 325.826 104.59Z" fill="#69BB72"/>
<path d="M416.114 104.59C416.114 107.176 414.012 109.38 411.337 109.38C408.758 109.38 406.56 107.272 406.56 104.59C406.56 102.004 408.662 99.8004 411.337 99.8004C413.917 99.8004 416.114 101.908 416.114 104.59Z" fill="#69BB72"/>
<path d="M212.988 92.5201C212.988 95.1065 210.886 97.3097 208.211 97.3097C205.631 97.3097 203.434 95.2023 203.434 92.5201C203.434 89.9337 205.536 87.7305 208.211 87.7305C210.791 87.8263 212.988 89.9337 212.988 92.5201Z" fill="#69BB72"/>
<path d="M303.277 92.5201C303.277 95.1065 301.175 97.3097 298.5 97.3097C295.92 97.3097 293.723 95.2023 293.723 92.5201C293.723 89.9337 295.825 87.7305 298.5 87.7305C301.08 87.8263 303.277 89.9337 303.277 92.5201Z" fill="#69BB72"/>
<path d="M393.471 92.5201C393.471 95.1065 391.369 97.3097 388.693 97.3097C386.114 97.3097 383.916 95.2023 383.916 92.5201C383.916 89.9337 386.018 87.7305 388.693 87.7305C391.369 87.8263 393.471 89.9337 393.471 92.5201Z" fill="#69BB72"/>
<path d="M235.537 80.5461C235.537 83.1325 233.435 85.3357 230.759 85.3357C228.18 85.3357 225.982 83.2283 225.982 80.5461C225.982 77.9597 228.084 75.7565 230.759 75.7565C233.435 75.7565 235.537 77.8639 235.537 80.5461Z" fill="#69BB72"/>
<path d="M370.922 80.5461C370.922 83.1325 368.82 85.3357 366.145 85.3357C363.565 85.3357 361.368 83.2283 361.368 80.5461C361.368 77.9597 363.47 75.7565 366.145 75.7565C368.82 75.7565 370.922 77.8639 370.922 80.5461Z" fill="#69BB72"/>
<path d="M258.085 212.644C258.085 215.23 255.983 217.433 253.307 217.433C250.728 217.433 248.53 215.326 248.53 212.644C248.53 210.057 250.632 207.854 253.307 207.854C255.983 207.854 258.085 210.057 258.085 212.644Z" fill="#69BB72"/>
<path d="M348.374 212.644C348.374 215.23 346.272 217.433 343.597 217.433C341.017 217.433 338.819 215.326 338.819 212.644C338.819 210.057 340.921 207.854 343.597 207.854C346.272 207.854 348.374 210.057 348.374 212.644Z" fill="#69BB72"/>
<path d="M258.085 260.731C258.085 263.318 255.983 265.521 253.307 265.521C250.728 265.521 248.53 263.414 248.53 260.731C248.53 258.145 250.632 255.942 253.307 255.942C255.983 255.942 258.085 258.049 258.085 260.731Z" fill="#69BB72"/>
<path d="M348.374 260.731C348.374 263.318 346.272 265.521 343.597 265.521C341.017 265.521 338.819 263.414 338.819 260.731C338.819 258.145 340.921 255.942 343.597 255.942C346.272 255.942 348.374 258.049 348.374 260.731Z" fill="#69BB72"/>
<path d="M235.537 248.662C235.537 251.248 233.435 253.451 230.759 253.451C228.18 253.451 225.982 251.344 225.982 248.662C225.982 246.075 228.084 243.872 230.759 243.872C233.435 243.968 235.537 246.075 235.537 248.662Z" fill="#69BB72"/>
<path d="M370.922 248.662C370.922 251.248 368.82 253.451 366.145 253.451C363.565 253.451 361.368 251.344 361.368 248.662C361.368 246.075 363.47 243.872 366.145 243.872C368.82 243.968 370.922 246.075 370.922 248.662Z" fill="#69BB72"/>
<path d="M303.277 284.68C303.277 287.266 301.175 289.469 298.5 289.469C295.92 289.469 293.723 287.362 293.723 284.68C293.723 281.997 295.825 279.89 298.5 279.89C301.08 279.986 303.277 282.093 303.277 284.68Z" fill="#69BB72"/>
<path d="M280.633 272.706C280.633 275.292 278.531 277.495 275.856 277.495C273.276 277.495 271.079 275.388 271.079 272.706C271.079 270.023 273.181 267.916 275.856 267.916C278.531 267.916 280.633 270.119 280.633 272.706Z" fill="#69BB72"/>
<path d="M325.826 272.706C325.826 275.292 323.724 277.495 321.048 277.495C318.469 277.495 316.271 275.388 316.271 272.706C316.271 270.023 318.373 267.916 321.048 267.916C323.724 267.916 325.826 270.119 325.826 272.706Z" fill="#69BB72"/>
<path d="M212.988 236.688C212.988 239.274 210.886 241.477 208.211 241.477C205.631 241.477 203.434 239.37 203.434 236.688C203.434 234.101 205.536 231.898 208.211 231.898C210.791 231.898 212.988 234.005 212.988 236.688Z" fill="#69BB72"/>
<path d="M393.471 236.688C393.471 239.274 391.369 241.477 388.693 241.477C386.114 241.477 383.916 239.37 383.916 236.688C383.916 234.101 386.018 231.898 388.693 231.898C391.369 231.898 393.471 234.005 393.471 236.688Z" fill="#69BB72"/>
<path d="M190.344 224.618C190.344 227.204 188.242 229.407 185.567 229.407C182.988 229.407 180.79 227.3 180.79 224.618C180.79 222.031 182.892 219.828 185.567 219.828C188.242 219.924 190.344 222.031 190.344 224.618Z" fill="#69BB72"/>
<path d="M280.633 224.618C280.633 227.204 278.531 229.407 275.856 229.407C273.276 229.407 271.079 227.3 271.079 224.618C271.079 222.031 273.181 219.828 275.856 219.828C278.531 219.924 280.633 222.031 280.633 224.618Z" fill="#69BB72"/>
<path d="M325.826 224.618C325.826 227.204 323.724 229.407 321.048 229.407C318.469 229.407 316.271 227.3 316.271 224.618C316.271 222.031 318.373 219.828 321.048 219.828C323.724 219.924 325.826 222.031 325.826 224.618Z" fill="#69BB72"/>
<path d="M416.114 224.618C416.114 227.204 414.012 229.407 411.337 229.407C408.758 229.407 406.56 227.3 406.56 224.618C406.56 222.031 408.662 219.828 411.337 219.828C413.917 219.924 416.114 222.031 416.114 224.618Z" fill="#69BB72"/>
<path d="M258.085 164.556C258.085 167.142 255.983 169.346 253.307 169.346C250.728 169.346 248.53 167.238 248.53 164.556C248.53 161.97 250.632 159.766 253.307 159.766C255.983 159.862 258.085 161.97 258.085 164.556Z" fill="#69BB72"/>
<path d="M393.471 188.6C393.471 191.186 391.369 193.389 388.693 193.389C386.114 193.389 383.916 191.282 383.916 188.6C383.916 186.013 386.018 183.81 388.693 183.81C391.369 183.906 393.471 186.013 393.471 188.6Z" fill="#69BB72"/>
<path d="M190.344 152.582C190.344 155.168 188.242 157.371 185.567 157.371C182.988 157.371 180.79 155.264 180.79 152.582C180.79 149.995 182.892 147.792 185.567 147.792C188.242 147.792 190.344 149.995 190.344 152.582Z" fill="#69BB72"/>
<path d="M235.537 152.582C235.537 155.168 233.435 157.371 230.759 157.371C228.18 157.371 225.982 155.264 225.982 152.582C225.982 149.995 228.084 147.792 230.759 147.792C233.435 147.792 235.537 149.995 235.537 152.582Z" fill="#69BB72"/>
<path d="M325.826 152.582C325.826 155.168 323.724 157.371 321.048 157.371C318.469 157.371 316.271 155.264 316.271 152.582C316.271 149.995 318.373 147.792 321.048 147.792C323.724 147.792 325.826 149.995 325.826 152.582Z" fill="#69BB72"/>
<path d="M212.988 140.608C212.988 143.194 210.886 145.397 208.211 145.397C205.631 145.397 203.434 143.29 203.434 140.608C203.434 138.021 205.536 135.818 208.211 135.818C210.791 135.818 212.988 137.926 212.988 140.608Z" fill="#69BB72"/>
<path d="M303.277 140.608C303.277 143.194 301.175 145.397 298.5 145.397C295.92 145.397 293.723 143.29 293.723 140.608C293.723 138.021 295.825 135.818 298.5 135.818C301.08 135.818 303.277 137.926 303.277 140.608Z" fill="#69BB72"/>
<path d="M393.471 140.608C393.471 143.194 391.369 145.397 388.693 145.397C386.114 145.397 383.916 143.29 383.916 140.608C383.916 138.021 386.018 135.818 388.693 135.818C391.369 135.818 393.471 137.926 393.471 140.608Z" fill="#69BB72"/>
<path d="M190.344 128.538C190.344 131.124 188.242 133.328 185.567 133.328C182.988 133.328 180.79 131.22 180.79 128.538C180.79 125.952 182.892 123.748 185.567 123.748C188.242 123.844 190.344 125.952 190.344 128.538Z" fill="#69BB72"/>
<path d="M280.633 128.538C280.633 131.124 278.531 133.328 275.856 133.328C273.276 133.328 271.079 131.22 271.079 128.538C271.079 125.952 273.181 123.748 275.856 123.748C278.531 123.844 280.633 125.952 280.633 128.538Z" fill="#69BB72"/>
<path d="M370.922 128.538C370.922 131.124 368.82 133.328 366.145 133.328C363.565 133.328 361.368 131.22 361.368 128.538C361.368 125.952 363.47 123.748 366.145 123.748C368.82 123.844 370.922 125.952 370.922 128.538Z" fill="#69BB72"/>
<path d="M416.114 128.538C416.114 131.124 414.012 133.328 411.337 133.328C408.758 133.328 406.56 131.22 406.56 128.538C406.56 125.952 408.662 123.748 411.337 123.748C413.917 123.844 416.114 125.952 416.114 128.538Z" fill="#69BB72"/>
<path d="M190.344 200.67C190.344 203.256 188.242 205.459 185.567 205.459C182.988 205.459 180.79 203.352 180.79 200.67C180.79 198.083 182.892 195.88 185.567 195.88C188.242 195.88 190.344 197.987 190.344 200.67Z" fill="#69BB72"/>
<path d="M235.537 200.67C235.537 203.256 233.435 205.459 230.759 205.459C228.18 205.459 225.982 203.352 225.982 200.67C225.982 198.083 228.084 195.88 230.759 195.88C233.435 195.88 235.537 197.987 235.537 200.67Z" fill="#69BB72"/>
<path d="M280.633 200.67C280.633 203.256 278.531 205.459 275.856 205.459C273.276 205.459 271.079 203.352 271.079 200.67C271.079 198.083 273.181 195.88 275.856 195.88C278.531 195.88 280.633 197.987 280.633 200.67Z" fill="#69BB72"/>
<path d="M325.826 200.67C325.826 203.256 323.724 205.459 321.048 205.459C318.469 205.459 316.271 203.352 316.271 200.67C316.271 198.083 318.373 195.88 321.048 195.88C323.724 195.88 325.826 197.987 325.826 200.67Z" fill="#69BB72"/>
<path d="M370.922 200.67C370.922 203.256 368.82 205.459 366.145 205.459C363.565 205.459 361.368 203.352 361.368 200.67C361.368 198.083 363.47 195.88 366.145 195.88C368.82 195.88 370.922 197.987 370.922 200.67Z" fill="#69BB72"/>
<path d="M416.114 200.67C416.114 203.256 414.012 205.459 411.337 205.459C408.758 205.459 406.56 203.352 406.56 200.67C406.56 198.083 408.662 195.88 411.337 195.88C413.917 195.88 416.114 197.987 416.114 200.67Z" fill="#69BB72"/>
<path d="M190.344 176.626C190.344 179.212 188.242 181.415 185.567 181.415C182.988 181.415 180.79 179.308 180.79 176.626C180.79 174.039 182.892 171.836 185.567 171.836C188.242 171.836 190.344 173.944 190.344 176.626Z" fill="#69BB72"/>
<path d="M280.633 176.626C280.633 179.212 278.531 181.415 275.856 181.415C273.276 181.415 271.079 179.308 271.079 176.626C271.079 174.039 273.181 171.836 275.856 171.836C278.531 171.836 280.633 173.944 280.633 176.626Z" fill="#69BB72"/>
<path d="M325.826 176.626C325.826 179.212 323.724 181.415 321.048 181.415C318.469 181.415 316.271 179.308 316.271 176.626C316.271 174.039 318.373 171.836 321.048 171.836C323.724 171.836 325.826 173.944 325.826 176.626Z" fill="#69BB72"/>
<path d="M31.0726 20.4844C31.0726 22.4002 29.5439 23.8371 27.7286 23.8371C25.8177 23.8371 24.3845 22.3044 24.3845 20.4844C24.3845 18.5685 25.9132 17.1316 27.7286 17.1316C29.5439 17.0358 31.0726 18.5685 31.0726 20.4844Z" fill="#42ABB4"/>
<path d="M76.1693 20.4844C76.1693 22.4002 74.6406 23.8371 72.8252 23.8371C70.9144 23.8371 69.4812 22.3044 69.4812 20.4844C69.4812 18.5685 71.0099 17.1316 72.8252 17.1316C74.6406 17.0358 76.1693 18.5685 76.1693 20.4844Z" fill="#42ABB4"/>
<path d="M166.458 20.4844C166.458 22.4002 164.929 23.8371 163.114 23.8371C161.203 23.8371 159.77 22.3044 159.77 20.4844C159.77 18.5685 161.299 17.1316 163.114 17.1316C164.929 17.0358 166.458 18.5685 166.458 20.4844Z" fill="#42ABB4"/>
<path d="M211.651 20.4843C211.651 22.4002 210.122 23.8371 208.307 23.8371C206.491 23.8371 204.963 22.3044 204.963 20.4843C204.963 18.5685 206.491 17.1316 208.307 17.1316C210.122 17.1316 211.651 18.5685 211.651 20.4843Z" fill="#42ABB4"/>
<path d="M256.747 20.4844C256.747 22.4002 255.219 23.8371 253.403 23.8371C251.492 23.8371 250.059 22.3044 250.059 20.4844C250.059 18.5685 251.588 17.1316 253.403 17.1316C255.219 17.0358 256.747 18.5685 256.747 20.4844Z" fill="#42ABB4"/>
<path d="M301.844 20.4844C301.844 22.4002 300.315 23.8371 298.5 23.8371C296.589 23.8371 295.156 22.3044 295.156 20.4844C295.156 18.5685 296.684 17.1316 298.5 17.1316C300.411 17.0358 301.844 18.5685 301.844 20.4844Z" fill="#42ABB4"/>
<path d="M347.037 20.4843C347.037 22.4002 345.508 23.8371 343.693 23.8371C341.877 23.8371 340.349 22.3044 340.349 20.4843C340.349 18.5685 341.877 17.1316 343.693 17.1316C345.508 17.1316 347.037 18.5685 347.037 20.4843Z" fill="#42ABB4"/>
<path d="M392.133 20.4844C392.133 22.4002 390.604 23.8371 388.789 23.8371C386.878 23.8371 385.445 22.3044 385.445 20.4844C385.445 18.5685 386.974 17.1316 388.789 17.1316C390.604 17.0358 392.133 18.5685 392.133 20.4844Z" fill="#42ABB4"/>
<path d="M437.325 20.4844C437.325 22.4002 435.797 23.8371 433.981 23.8371C432.07 23.8371 430.637 22.3044 430.637 20.4844C430.637 18.5685 432.166 17.1316 433.981 17.1316C435.797 17.0358 437.325 18.5685 437.325 20.4844Z" fill="#42ABB4"/>
<path d="M482.422 20.4844C482.422 22.4002 480.893 23.8371 479.078 23.8371C477.167 23.8371 475.734 22.3044 475.734 20.4844C475.734 18.5685 477.263 17.1316 479.078 17.1316C480.893 17.0358 482.422 18.5685 482.422 20.4844Z" fill="#42ABB4"/>
<path d="M527.614 20.4844C527.614 22.4002 526.086 23.8371 524.27 23.8371C522.359 23.8371 520.926 22.3044 520.926 20.4844C520.926 18.5685 522.455 17.1316 524.27 17.1316C526.086 17.0358 527.614 18.5685 527.614 20.4844Z" fill="#42ABB4"/>
<path d="M572.711 20.4844C572.711 22.4002 571.182 23.8371 569.367 23.8371C567.456 23.8371 566.023 22.3044 566.023 20.4844C566.023 18.5685 567.552 17.1316 569.367 17.1316C571.182 17.0358 572.711 18.5685 572.711 20.4844Z" fill="#42ABB4"/>
<path d="M121.362 20.4843C121.362 22.4002 119.833 23.8371 118.018 23.8371C116.202 23.8371 114.674 22.3044 114.674 20.4843C114.674 18.5685 116.202 17.1316 118.018 17.1316C119.833 17.1316 121.362 18.5685 121.362 20.4843Z" fill="#42ABB4"/>
<path d="M31.0726 68.4763C31.0726 70.3921 29.5439 71.829 27.7286 71.829C25.8177 71.829 24.3845 70.2963 24.3845 68.4763C24.3845 66.5604 25.9132 65.1235 27.7286 65.1235C29.5439 65.1235 31.0726 66.6562 31.0726 68.4763Z" fill="#42ABB4"/>
<path d="M76.1693 68.4763C76.1693 70.3921 74.6406 71.829 72.8252 71.829C70.9144 71.829 69.4812 70.2963 69.4812 68.4763C69.4812 66.5604 71.0099 65.1235 72.8252 65.1235C74.6406 65.1235 76.1693 66.6562 76.1693 68.4763Z" fill="#42ABB4"/>
<path d="M166.458 68.4763C166.458 70.3921 164.929 71.829 163.114 71.829C161.203 71.829 159.77 70.2963 159.77 68.4763C159.77 66.5604 161.299 65.1235 163.114 65.1235C164.929 65.1235 166.458 66.6562 166.458 68.4763Z" fill="#42ABB4"/>
<path d="M211.651 68.4763C211.651 70.3921 210.122 71.829 208.307 71.829C206.491 71.829 204.963 70.2963 204.963 68.4763C204.963 66.5604 206.491 65.1235 208.307 65.1235C210.122 65.1235 211.651 66.6562 211.651 68.4763Z" fill="#42ABB4"/>
<path d="M392.133 68.4763C392.133 70.3921 390.604 71.829 388.789 71.829C386.878 71.829 385.445 70.2963 385.445 68.4763C385.445 66.5604 386.974 65.1235 388.789 65.1235C390.604 65.1235 392.133 66.6562 392.133 68.4763Z" fill="#42ABB4"/>
<path d="M437.325 68.4763C437.325 70.3921 435.797 71.829 433.981 71.829C432.07 71.829 430.637 70.2963 430.637 68.4763C430.637 66.5604 432.166 65.1235 433.981 65.1235C435.797 65.1235 437.325 66.6562 437.325 68.4763Z" fill="#42ABB4"/>
<path d="M482.422 68.4763C482.422 70.3921 480.893 71.829 479.078 71.829C477.167 71.829 475.734 70.2963 475.734 68.4763C475.734 66.5604 477.263 65.1235 479.078 65.1235C480.893 65.1235 482.422 66.6562 482.422 68.4763Z" fill="#42ABB4"/>
<path d="M527.614 68.4763C527.614 70.3921 526.086 71.829 524.27 71.829C522.359 71.829 520.926 70.2963 520.926 68.4763C520.926 66.5604 522.455 65.1235 524.27 65.1235C526.086 65.1235 527.614 66.6562 527.614 68.4763Z" fill="#42ABB4"/>
<path d="M572.711 68.4763C572.711 70.3921 571.182 71.829 569.367 71.829C567.456 71.829 566.023 70.2963 566.023 68.4763C566.023 66.5604 567.552 65.1235 569.367 65.1235C571.182 65.1235 572.711 66.6562 572.711 68.4763Z" fill="#42ABB4"/>
<path d="M121.362 68.4763C121.362 70.3921 119.833 71.829 118.018 71.829C116.202 71.829 114.674 70.2963 114.674 68.4763C114.674 66.5604 116.202 65.1235 118.018 65.1235C119.833 65.1235 121.362 66.6562 121.362 68.4763Z" fill="#42ABB4"/>
<path d="M53.6207 56.5022C53.6207 58.4181 52.092 59.8549 50.2766 59.8549C48.4613 59.8549 46.9326 58.3223 46.9326 56.5022C46.9326 54.5864 48.4613 53.1495 50.2766 53.1495C52.092 53.1495 53.6207 54.5864 53.6207 56.5022Z" fill="#42ABB4"/>
<path d="M98.7178 56.5022C98.7178 58.4181 97.1891 59.8549 95.3738 59.8549C93.4629 59.8549 92.0298 58.3223 92.0298 56.5022C92.0298 54.5864 93.5585 53.1495 95.3738 53.1495C97.2847 53.1495 98.7178 54.5864 98.7178 56.5022Z" fill="#42ABB4"/>
<path d="M189.006 56.5022C189.006 58.4181 187.478 59.8549 185.662 59.8549C183.847 59.8549 182.318 58.3223 182.318 56.5022C182.318 54.5864 183.847 53.1495 185.662 53.1495C187.478 53.1495 189.006 54.5864 189.006 56.5022Z" fill="#42ABB4"/>
<path d="M234.199 56.5022C234.199 58.4181 232.67 59.8549 230.855 59.8549C228.944 59.8549 227.511 58.3223 227.511 56.5022C227.511 54.5864 229.039 53.1495 230.855 53.1495C232.67 53.1495 234.199 54.5864 234.199 56.5022Z" fill="#42ABB4"/>
<path d="M369.585 56.5022C369.585 58.4181 368.056 59.8549 366.241 59.8549C364.33 59.8549 362.896 58.3223 362.896 56.5022C362.896 54.5864 364.425 53.1495 366.241 53.1495C368.056 53.1495 369.585 54.5864 369.585 56.5022Z" fill="#42ABB4"/>
<path d="M414.681 56.5022C414.681 58.4181 413.153 59.8549 411.337 59.8549C409.522 59.8549 407.993 58.3223 407.993 56.5022C407.993 54.5864 409.522 53.1495 411.337 53.1495C413.153 53.1495 414.681 54.5864 414.681 56.5022Z" fill="#42ABB4"/>
<path d="M459.873 56.5022C459.873 58.4181 458.345 59.8549 456.529 59.8549C454.618 59.8549 453.185 58.3223 453.185 56.5022C453.185 54.5864 454.714 53.1495 456.529 53.1495C458.345 53.1495 459.873 54.5864 459.873 56.5022Z" fill="#42ABB4"/>
<path d="M504.971 56.5022C504.971 58.4181 503.442 59.8549 501.626 59.8549C499.716 59.8549 498.282 58.3223 498.282 56.5022C498.282 54.5864 499.811 53.1495 501.626 53.1495C503.537 53.1495 504.971 54.5864 504.971 56.5022Z" fill="#42ABB4"/>
<path d="M550.163 56.5022C550.163 58.4181 548.634 59.8549 546.819 59.8549C544.908 59.8549 543.475 58.3223 543.475 56.5022C543.475 54.5864 545.003 53.1495 546.819 53.1495C548.634 53.1495 550.163 54.5864 550.163 56.5022Z" fill="#42ABB4"/>
<path d="M143.91 56.5022C143.91 58.4181 142.381 59.8549 140.566 59.8549C138.655 59.8549 137.222 58.3223 137.222 56.5022C137.222 54.5864 138.75 53.1495 140.566 53.1495C142.381 53.1495 143.91 54.5864 143.91 56.5022Z" fill="#42ABB4"/>
<path d="M31.0726 44.5282C31.0726 46.444 29.5439 47.8809 27.7286 47.8809C25.8177 47.8809 24.3845 46.3482 24.3845 44.5282C24.3845 42.6123 25.9132 41.1755 27.7286 41.1755C29.5439 41.0797 31.0726 42.6123 31.0726 44.5282Z" fill="#42ABB4"/>
<path d="M76.1693 44.5282C76.1693 46.444 74.6406 47.8809 72.8252 47.8809C70.9144 47.8809 69.4812 46.3482 69.4812 44.5282C69.4812 42.6123 71.0099 41.1755 72.8252 41.1755C74.6406 41.0797 76.1693 42.6123 76.1693 44.5282Z" fill="#42ABB4"/>
<path d="M166.458 44.5282C166.458 46.444 164.929 47.8809 163.114 47.8809C161.203 47.8809 159.77 46.3482 159.77 44.5282C159.77 42.6123 161.299 41.1755 163.114 41.1755C164.929 41.0797 166.458 42.6123 166.458 44.5282Z" fill="#42ABB4"/>
<path d="M211.651 44.5281C211.651 46.444 210.122 47.8809 208.307 47.8809C206.491 47.8809 204.963 46.3482 204.963 44.5281C204.963 42.6123 206.491 41.1754 208.307 41.1754C210.122 41.1754 211.651 42.6123 211.651 44.5281Z" fill="#42ABB4"/>
<path d="M256.747 44.5282C256.747 46.444 255.219 47.8809 253.403 47.8809C251.492 47.8809 250.059 46.3482 250.059 44.5282C250.059 42.6123 251.588 41.1755 253.403 41.1755C255.219 41.0797 256.747 42.6123 256.747 44.5282Z" fill="#42ABB4"/>
<path d="M347.037 44.5281C347.037 46.444 345.508 47.8809 343.693 47.8809C341.877 47.8809 340.349 46.3482 340.349 44.5281C340.349 42.6123 341.877 41.1754 343.693 41.1754C345.508 41.1754 347.037 42.6123 347.037 44.5281Z" fill="#42ABB4"/>
<path d="M392.133 44.5282C392.133 46.444 390.604 47.8809 388.789 47.8809C386.878 47.8809 385.445 46.3482 385.445 44.5282C385.445 42.6123 386.974 41.1755 388.789 41.1755C390.604 41.0797 392.133 42.6123 392.133 44.5282Z" fill="#42ABB4"/>
<path d="M437.325 44.5282C437.325 46.444 435.797 47.8809 433.981 47.8809C432.07 47.8809 430.637 46.3482 430.637 44.5282C430.637 42.6123 432.166 41.1755 433.981 41.1755C435.797 41.0797 437.325 42.6123 437.325 44.5282Z" fill="#42ABB4"/>
<path d="M482.422 44.5282C482.422 46.444 480.893 47.8809 479.078 47.8809C477.167 47.8809 475.734 46.3482 475.734 44.5282C475.734 42.6123 477.263 41.1755 479.078 41.1755C480.893 41.0797 482.422 42.6123 482.422 44.5282Z" fill="#42ABB4"/>
<path d="M527.614 44.5282C527.614 46.444 526.086 47.8809 524.27 47.8809C522.359 47.8809 520.926 46.3482 520.926 44.5282C520.926 42.6123 522.455 41.1755 524.27 41.1755C526.086 41.0797 527.614 42.6123 527.614 44.5282Z" fill="#42ABB4"/>
<path d="M572.711 44.5282C572.711 46.444 571.182 47.8809 569.367 47.8809C567.456 47.8809 566.023 46.3482 566.023 44.5282C566.023 42.6123 567.552 41.1755 569.367 41.1755C571.182 41.0797 572.711 42.6123 572.711 44.5282Z" fill="#42ABB4"/>
<path d="M121.362 44.5281C121.362 46.444 119.833 47.8809 118.018 47.8809C116.202 47.8809 114.674 46.3482 114.674 44.5281C114.674 42.6123 116.202 41.1754 118.018 41.1754C119.833 41.1754 121.362 42.6123 121.362 44.5281Z" fill="#42ABB4"/>
<path d="M53.6207 32.4584C53.6207 34.3742 52.092 35.8111 50.2766 35.8111C48.4613 35.8111 46.9326 34.2784 46.9326 32.4584C46.9326 30.5425 48.4613 29.1057 50.2766 29.1057C52.092 29.1057 53.6207 30.6383 53.6207 32.4584Z" fill="#42ABB4"/>
<path d="M98.7178 32.4584C98.7178 34.3742 97.1891 35.8111 95.3738 35.8111C93.4629 35.8111 92.0298 34.2784 92.0298 32.4584C92.0298 30.5425 93.5585 29.1057 95.3738 29.1057C97.2847 29.1057 98.7178 30.6383 98.7178 32.4584Z" fill="#42ABB4"/>
<path d="M189.006 32.4584C189.006 34.3742 187.478 35.8111 185.662 35.8111C183.847 35.8111 182.318 34.2784 182.318 32.4584C182.318 30.5425 183.847 29.1057 185.662 29.1057C187.478 29.1057 189.006 30.6383 189.006 32.4584Z" fill="#42ABB4"/>
<path d="M234.199 32.4584C234.199 34.3742 232.67 35.8111 230.855 35.8111C228.944 35.8111 227.511 34.2784 227.511 32.4584C227.511 30.5425 229.039 29.1057 230.855 29.1057C232.67 29.1057 234.199 30.6383 234.199 32.4584Z" fill="#42ABB4"/>
<path d="M279.296 32.4584C279.296 34.3742 277.767 35.8111 275.952 35.8111C274.136 35.8111 272.608 34.2784 272.608 32.4584C272.608 30.5425 274.136 29.1057 275.952 29.1057C277.767 29.1057 279.296 30.6383 279.296 32.4584Z" fill="#42ABB4"/>
<path d="M324.488 32.4584C324.488 34.3742 322.959 35.8111 321.144 35.8111C319.233 35.8111 317.8 34.2784 317.8 32.4584C317.8 30.5425 319.329 29.1057 321.144 29.1057C322.959 29.1057 324.488 30.6383 324.488 32.4584Z" fill="#42ABB4"/>
<path d="M369.585 32.4584C369.585 34.3742 368.056 35.8111 366.241 35.8111C364.33 35.8111 362.896 34.2784 362.896 32.4584C362.896 30.5425 364.425 29.1057 366.241 29.1057C368.056 29.1057 369.585 30.6383 369.585 32.4584Z" fill="#42ABB4"/>
<path d="M414.681 32.4584C414.681 34.3742 413.153 35.8111 411.337 35.8111C409.522 35.8111 407.993 34.2784 407.993 32.4584C407.993 30.5425 409.522 29.1057 411.337 29.1057C413.153 29.1057 414.681 30.6383 414.681 32.4584Z" fill="#42ABB4"/>
<path d="M459.873 32.4584C459.873 34.3742 458.345 35.8111 456.529 35.8111C454.618 35.8111 453.185 34.2784 453.185 32.4584C453.185 30.5425 454.714 29.1057 456.529 29.1057C458.345 29.1057 459.873 30.6383 459.873 32.4584Z" fill="#42ABB4"/>
<path d="M504.971 32.4584C504.971 34.3742 503.442 35.8111 501.626 35.8111C499.716 35.8111 498.282 34.2784 498.282 32.4584C498.282 30.5425 499.811 29.1057 501.626 29.1057C503.537 29.1057 504.971 30.6383 504.971 32.4584Z" fill="#42ABB4"/>
<path d="M550.163 32.4584C550.163 34.3742 548.634 35.8111 546.819 35.8111C544.908 35.8111 543.475 34.2784 543.475 32.4584C543.475 30.5425 545.003 29.1057 546.819 29.1057C548.634 29.1057 550.163 30.6383 550.163 32.4584Z" fill="#42ABB4"/>
<path d="M143.91 32.4584C143.91 34.3742 142.381 35.8111 140.566 35.8111C138.655 35.8111 137.222 34.2784 137.222 32.4584C137.222 30.5425 138.75 29.1057 140.566 29.1057C142.381 29.1057 143.91 30.6383 143.91 32.4584Z" fill="#42ABB4"/>
<path d="M31.0726 116.564C31.0726 118.48 29.5439 119.917 27.7286 119.917C25.8177 119.917 24.3845 118.384 24.3845 116.564C24.3845 114.648 25.9132 113.211 27.7286 113.211C29.5439 113.211 31.0726 114.648 31.0726 116.564Z" fill="#42ABB4"/>
<path d="M76.1693 116.564C76.1693 118.48 74.6406 119.917 72.8252 119.917C70.9144 119.917 69.4812 118.384 69.4812 116.564C69.4812 114.648 71.0099 113.211 72.8252 113.211C74.6406 113.211 76.1693 114.648 76.1693 116.564Z" fill="#42ABB4"/>
<path d="M166.458 116.564C166.458 118.48 164.929 119.917 163.114 119.917C161.203 119.917 159.77 118.384 159.77 116.564C159.77 114.648 161.299 113.211 163.114 113.211C164.929 113.211 166.458 114.648 166.458 116.564Z" fill="#42ABB4"/>
<path d="M301.844 116.564C301.844 118.48 300.315 119.917 298.5 119.917C296.589 119.917 295.156 118.384 295.156 116.564C295.156 114.648 296.684 113.211 298.5 113.211C300.411 113.211 301.844 114.648 301.844 116.564Z" fill="#42ABB4"/>
<path d="M437.325 116.564C437.325 118.48 435.797 119.917 433.981 119.917C432.07 119.917 430.637 118.384 430.637 116.564C430.637 114.648 432.166 113.211 433.981 113.211C435.797 113.211 437.325 114.648 437.325 116.564Z" fill="#42ABB4"/>
<path d="M482.422 116.564C482.422 118.48 480.893 119.917 479.078 119.917C477.167 119.917 475.734 118.384 475.734 116.564C475.734 114.648 477.263 113.211 479.078 113.211C480.893 113.211 482.422 114.648 482.422 116.564Z" fill="#42ABB4"/>
<path d="M527.614 116.564C527.614 118.48 526.086 119.917 524.27 119.917C522.359 119.917 520.926 118.384 520.926 116.564C520.926 114.648 522.455 113.211 524.27 113.211C526.086 113.211 527.614 114.648 527.614 116.564Z" fill="#42ABB4"/>
<path d="M572.711 116.564C572.711 118.48 571.182 119.917 569.367 119.917C567.456 119.917 566.023 118.384 566.023 116.564C566.023 114.648 567.552 113.211 569.367 113.211C571.182 113.211 572.711 114.648 572.711 116.564Z" fill="#42ABB4"/>
<path d="M121.362 116.564C121.362 118.48 119.833 119.917 118.018 119.917C116.202 119.917 114.674 118.384 114.674 116.564C114.674 114.648 116.202 113.211 118.018 113.211C119.833 113.211 121.362 114.648 121.362 116.564Z" fill="#42ABB4"/>
<path d="M53.6207 104.59C53.6207 106.506 52.092 107.943 50.2766 107.943C48.4613 107.943 46.9326 106.41 46.9326 104.59C46.9326 102.674 48.4613 101.237 50.2766 101.237C52.092 101.237 53.6207 102.674 53.6207 104.59Z" fill="#42ABB4"/>
<path d="M98.7178 104.59C98.7178 106.506 97.1891 107.943 95.3738 107.943C93.4629 107.943 92.0298 106.41 92.0298 104.59C92.0298 102.674 93.5585 101.237 95.3738 101.237C97.2847 101.141 98.7178 102.674 98.7178 104.59Z" fill="#42ABB4"/>
<path d="M459.873 104.59C459.873 106.506 458.345 107.943 456.529 107.943C454.618 107.943 453.185 106.41 453.185 104.59C453.185 102.674 454.714 101.237 456.529 101.237C458.345 101.141 459.873 102.674 459.873 104.59Z" fill="#42ABB4"/>
<path d="M504.971 104.59C504.971 106.506 503.442 107.943 501.626 107.943C499.716 107.943 498.282 106.41 498.282 104.59C498.282 102.674 499.811 101.237 501.626 101.237C503.537 101.141 504.971 102.674 504.971 104.59Z" fill="#42ABB4"/>
<path d="M550.163 104.59C550.163 106.506 548.634 107.943 546.819 107.943C544.908 107.943 543.475 106.41 543.475 104.59C543.475 102.674 545.003 101.237 546.819 101.237C548.634 101.141 550.163 102.674 550.163 104.59Z" fill="#42ABB4"/>
<path d="M143.91 104.59C143.91 106.506 142.381 107.943 140.566 107.943C138.655 107.943 137.222 106.41 137.222 104.59C137.222 102.674 138.75 101.237 140.566 101.237C142.381 101.141 143.91 102.674 143.91 104.59Z" fill="#42ABB4"/>
<path d="M31.0726 92.5201C31.0726 94.4359 29.5439 95.8728 27.7286 95.8728C25.8177 95.8728 24.3845 94.3401 24.3845 92.5201C24.3845 90.6042 25.9132 89.1674 27.7286 89.1674C29.5439 89.1674 31.0726 90.7 31.0726 92.5201Z" fill="#42ABB4"/>
<path d="M76.1693 92.5201C76.1693 94.4359 74.6406 95.8728 72.8252 95.8728C70.9144 95.8728 69.4812 94.3401 69.4812 92.5201C69.4812 90.6042 71.0099 89.1674 72.8252 89.1674C74.6406 89.1674 76.1693 90.7 76.1693 92.5201Z" fill="#42ABB4"/>
<path d="M166.458 92.5201C166.458 94.4359 164.929 95.8728 163.114 95.8728C161.203 95.8728 159.77 94.3401 159.77 92.5201C159.77 90.6042 161.299 89.1674 163.114 89.1674C164.929 89.1674 166.458 90.7 166.458 92.5201Z" fill="#42ABB4"/>
<path d="M437.325 92.5201C437.325 94.4359 435.797 95.8728 433.981 95.8728C432.07 95.8728 430.637 94.3401 430.637 92.5201C430.637 90.6042 432.166 89.1674 433.981 89.1674C435.797 89.1674 437.325 90.7 437.325 92.5201Z" fill="#42ABB4"/>
<path d="M482.422 92.5201C482.422 94.4359 480.893 95.8728 479.078 95.8728C477.167 95.8728 475.734 94.3401 475.734 92.5201C475.734 90.6042 477.263 89.1674 479.078 89.1674C480.893 89.1674 482.422 90.7 482.422 92.5201Z" fill="#42ABB4"/>
<path d="M527.614 92.5201C527.614 94.4359 526.086 95.8728 524.27 95.8728C522.359 95.8728 520.926 94.3401 520.926 92.5201C520.926 90.6042 522.455 89.1674 524.27 89.1674C526.086 89.1674 527.614 90.7 527.614 92.5201Z" fill="#42ABB4"/>
<path d="M572.711 92.5201C572.711 94.4359 571.182 95.8728 569.367 95.8728C567.456 95.8728 566.023 94.3401 566.023 92.5201C566.023 90.6042 567.552 89.1674 569.367 89.1674C571.182 89.1674 572.711 90.7 572.711 92.5201Z" fill="#42ABB4"/>
<path d="M121.361 92.5201C121.361 94.4359 119.833 95.8728 118.017 95.8728C116.202 95.8728 114.578 94.4359 114.578 92.5201C114.578 90.6042 116.107 89.1674 117.922 89.1674C119.737 89.1674 121.361 90.7 121.361 92.5201Z" fill="#42ABB4"/>
<path d="M53.6207 80.5461C53.6207 82.4619 52.092 83.8988 50.2766 83.8988C48.4613 83.8988 46.9326 82.3661 46.9326 80.5461C46.9326 78.726 48.4613 77.1934 50.2766 77.1934C52.092 77.1934 53.6207 78.6302 53.6207 80.5461Z" fill="#42ABB4"/>
<path d="M98.7178 80.5461C98.7178 82.462 97.1891 83.8989 95.3738 83.8989C93.4629 83.8989 92.0298 82.3662 92.0298 80.5461C92.0298 78.7261 93.5585 77.1934 95.3738 77.1934C97.2847 77.0976 98.7178 78.6303 98.7178 80.5461Z" fill="#42ABB4"/>
<path d="M189.006 80.5461C189.006 82.4619 187.478 83.8988 185.662 83.8988C183.847 83.8988 182.318 82.3661 182.318 80.5461C182.318 78.726 183.847 77.1934 185.662 77.1934C187.478 77.1934 189.006 78.6302 189.006 80.5461Z" fill="#42ABB4"/>
<path d="M414.681 80.5461C414.681 82.4619 413.153 83.8988 411.337 83.8988C409.522 83.8988 407.993 82.3661 407.993 80.5461C407.993 78.726 409.522 77.1934 411.337 77.1934C413.153 77.1934 414.681 78.6302 414.681 80.5461Z" fill="#42ABB4"/>
<path d="M459.873 80.5461C459.873 82.462 458.345 83.8989 456.529 83.8989C454.618 83.8989 453.185 82.3662 453.185 80.5461C453.185 78.7261 454.714 77.1934 456.529 77.1934C458.345 77.0976 459.873 78.6303 459.873 80.5461Z" fill="#42ABB4"/>
<path d="M504.971 80.5461C504.971 82.462 503.442 83.8989 501.626 83.8989C499.716 83.8989 498.282 82.3662 498.282 80.5461C498.282 78.7261 499.811 77.1934 501.626 77.1934C503.537 77.0976 504.971 78.6303 504.971 80.5461Z" fill="#42ABB4"/>
<path d="M550.163 80.5461C550.163 82.462 548.634 83.8989 546.819 83.8989C544.908 83.8989 543.475 82.3662 543.475 80.5461C543.475 78.7261 545.003 77.1934 546.819 77.1934C548.634 77.0976 550.163 78.6303 550.163 80.5461Z" fill="#42ABB4"/>
<path d="M143.91 80.5461C143.91 82.462 142.381 83.8989 140.566 83.8989C138.655 83.8989 137.222 82.3662 137.222 80.5461C137.222 78.7261 138.75 77.1934 140.566 77.1934C142.381 77.0976 143.91 78.6303 143.91 80.5461Z" fill="#42ABB4"/>
<path d="M31.0726 212.644C31.0726 214.56 29.5439 215.996 27.7286 215.996C25.8177 215.996 24.3845 214.464 24.3845 212.644C24.3845 210.728 25.9132 209.291 27.7286 209.291C29.5439 209.291 31.0726 210.728 31.0726 212.644Z" fill="#42ABB4"/>
<path d="M76.1693 212.644C76.1693 214.56 74.6406 215.996 72.8252 215.996C70.9144 215.996 69.4812 214.464 69.4812 212.644C69.4812 210.728 71.0099 209.291 72.8252 209.291C74.6406 209.291 76.1693 210.728 76.1693 212.644Z" fill="#42ABB4"/>
<path d="M166.458 212.644C166.458 214.56 164.929 215.996 163.114 215.996C161.203 215.996 159.77 214.464 159.77 212.644C159.77 210.728 161.299 209.291 163.114 209.291C164.929 209.291 166.458 210.728 166.458 212.644Z" fill="#42ABB4"/>
<path d="M437.325 212.644C437.325 214.56 435.797 215.996 433.981 215.996C432.07 215.996 430.637 214.464 430.637 212.644C430.637 210.728 432.166 209.291 433.981 209.291C435.797 209.291 437.325 210.728 437.325 212.644Z" fill="#42ABB4"/>
<path d="M482.422 212.644C482.422 214.56 480.893 215.996 479.078 215.996C477.167 215.996 475.734 214.464 475.734 212.644C475.734 210.728 477.263 209.291 479.078 209.291C480.893 209.291 482.422 210.728 482.422 212.644Z" fill="#42ABB4"/>
<path d="M527.614 212.644C527.614 214.56 526.086 215.996 524.27 215.996C522.359 215.996 520.926 214.464 520.926 212.644C520.926 210.728 522.455 209.291 524.27 209.291C526.086 209.291 527.614 210.728 527.614 212.644Z" fill="#42ABB4"/>
<path d="M572.711 212.644C572.711 214.56 571.182 215.996 569.367 215.996C567.456 215.996 566.023 214.464 566.023 212.644C566.023 210.728 567.552 209.291 569.367 209.291C571.182 209.291 572.711 210.728 572.711 212.644Z" fill="#42ABB4"/>
<path d="M121.362 212.644C121.362 214.56 119.833 215.996 118.018 215.996C116.202 215.996 114.674 214.464 114.674 212.644C114.674 210.728 116.202 209.291 118.018 209.291C119.833 209.291 121.362 210.728 121.362 212.644Z" fill="#42ABB4"/>
<path d="M31.0726 260.731C31.0726 262.647 29.5439 264.084 27.7286 264.084C25.8177 264.084 24.3845 262.551 24.3845 260.731C24.3845 258.911 25.9132 257.379 27.7286 257.379C29.5439 257.283 31.0726 258.816 31.0726 260.731Z" fill="#42ABB4"/>
<path d="M76.1693 260.731C76.1693 262.647 74.6406 264.084 72.8252 264.084C70.9144 264.084 69.4812 262.551 69.4812 260.731C69.4812 258.911 71.0099 257.379 72.8252 257.379C74.6406 257.283 76.1693 258.816 76.1693 260.731Z" fill="#42ABB4"/>
<path d="M166.458 260.731C166.458 262.647 164.929 264.084 163.114 264.084C161.203 264.084 159.77 262.551 159.77 260.731C159.77 258.911 161.299 257.379 163.114 257.379C164.929 257.283 166.458 258.816 166.458 260.731Z" fill="#42ABB4"/>
<path d="M211.651 260.731C211.651 262.647 210.122 264.084 208.307 264.084C206.491 264.084 204.963 262.551 204.963 260.731C204.963 258.911 206.491 257.379 208.307 257.379C210.122 257.379 211.651 258.816 211.651 260.731Z" fill="#42ABB4"/>
<path d="M392.133 260.731C392.133 262.647 390.604 264.084 388.789 264.084C386.878 264.084 385.445 262.551 385.445 260.731C385.445 258.911 386.974 257.379 388.789 257.379C390.604 257.283 392.133 258.816 392.133 260.731Z" fill="#42ABB4"/>
<path d="M437.325 260.731C437.325 262.647 435.797 264.084 433.981 264.084C432.07 264.084 430.637 262.551 430.637 260.731C430.637 258.911 432.166 257.379 433.981 257.379C435.797 257.283 437.325 258.816 437.325 260.731Z" fill="#42ABB4"/>
<path d="M482.422 260.731C482.422 262.647 480.893 264.084 479.078 264.084C477.167 264.084 475.734 262.551 475.734 260.731C475.734 258.911 477.263 257.379 479.078 257.379C480.893 257.283 482.422 258.816 482.422 260.731Z" fill="#42ABB4"/>
<path d="M527.614 260.731C527.614 262.647 526.086 264.084 524.27 264.084C522.359 264.084 520.926 262.551 520.926 260.731C520.926 258.911 522.455 257.379 524.27 257.379C526.086 257.283 527.614 258.816 527.614 260.731Z" fill="#42ABB4"/>
<path d="M572.711 260.731C572.711 262.647 571.182 264.084 569.367 264.084C567.456 264.084 566.023 262.551 566.023 260.731C566.023 258.911 567.552 257.379 569.367 257.379C571.182 257.283 572.711 258.816 572.711 260.731Z" fill="#42ABB4"/>
<path d="M121.362 260.731C121.362 262.647 119.833 264.084 118.018 264.084C116.202 264.084 114.674 262.551 114.674 260.731C114.674 258.911 116.202 257.379 118.018 257.379C119.833 257.379 121.362 258.816 121.362 260.731Z" fill="#42ABB4"/>
<path d="M53.6207 248.662C53.6207 250.577 52.092 252.014 50.2766 252.014C48.4613 252.014 46.9326 250.482 46.9326 248.662C46.9326 246.746 48.4613 245.309 50.2766 245.309C52.092 245.309 53.6207 246.842 53.6207 248.662Z" fill="#42ABB4"/>
<path d="M98.7178 248.662C98.7178 250.577 97.1891 252.014 95.3738 252.014C93.4629 252.014 92.0298 250.482 92.0298 248.662C92.0298 246.746 93.5585 245.309 95.3738 245.309C97.2847 245.309 98.7178 246.842 98.7178 248.662Z" fill="#42ABB4"/>
<path d="M189.006 248.662C189.006 250.577 187.478 252.014 185.662 252.014C183.847 252.014 182.318 250.482 182.318 248.662C182.318 246.746 183.847 245.309 185.662 245.309C187.478 245.309 189.006 246.842 189.006 248.662Z" fill="#42ABB4"/>
<path d="M414.681 248.662C414.681 250.577 413.153 252.014 411.337 252.014C409.522 252.014 407.993 250.482 407.993 248.662C407.993 246.746 409.522 245.309 411.337 245.309C413.153 245.309 414.681 246.842 414.681 248.662Z" fill="#42ABB4"/>
<path d="M459.873 248.662C459.873 250.577 458.345 252.014 456.529 252.014C454.618 252.014 453.185 250.482 453.185 248.662C453.185 246.746 454.714 245.309 456.529 245.309C458.345 245.309 459.873 246.842 459.873 248.662Z" fill="#42ABB4"/>
<path d="M504.971 248.662C504.971 250.577 503.442 252.014 501.626 252.014C499.716 252.014 498.282 250.482 498.282 248.662C498.282 246.746 499.811 245.309 501.626 245.309C503.537 245.309 504.971 246.842 504.971 248.662Z" fill="#42ABB4"/>
<path d="M550.163 248.662C550.163 250.577 548.634 252.014 546.819 252.014C544.908 252.014 543.475 250.482 543.475 248.662C543.475 246.746 545.003 245.309 546.819 245.309C548.634 245.309 550.163 246.842 550.163 248.662Z" fill="#42ABB4"/>
<path d="M143.91 248.662C143.91 250.577 142.381 252.014 140.566 252.014C138.655 252.014 137.222 250.482 137.222 248.662C137.222 246.746 138.75 245.309 140.566 245.309C142.381 245.309 143.91 246.842 143.91 248.662Z" fill="#42ABB4"/>
<path d="M31.0726 284.68C31.0726 286.595 29.5439 288.032 27.7286 288.032C25.8177 288.032 24.3845 286.5 24.3845 284.68C24.3845 282.859 25.9132 281.327 27.7286 281.327C29.5439 281.327 31.0726 282.859 31.0726 284.68Z" fill="#42ABB4"/>
<path d="M76.1693 284.68C76.1693 286.595 74.6406 288.032 72.8252 288.032C70.9144 288.032 69.4812 286.5 69.4812 284.68C69.4812 282.859 71.0099 281.327 72.8252 281.327C74.6406 281.327 76.1693 282.859 76.1693 284.68Z" fill="#42ABB4"/>
<path d="M166.458 284.68C166.458 286.595 164.929 288.032 163.114 288.032C161.203 288.032 159.77 286.5 159.77 284.68C159.77 282.859 161.299 281.327 163.114 281.327C164.929 281.327 166.458 282.859 166.458 284.68Z" fill="#42ABB4"/>
<path d="M211.651 284.68C211.651 286.595 210.122 288.032 208.307 288.032C206.491 288.032 204.963 286.5 204.963 284.68C204.963 282.859 206.491 281.327 208.307 281.327C210.122 281.327 211.651 282.859 211.651 284.68Z" fill="#42ABB4"/>
<path d="M256.747 284.68C256.747 286.595 255.219 288.032 253.403 288.032C251.492 288.032 250.059 286.5 250.059 284.68C250.059 282.859 251.588 281.327 253.403 281.327C255.219 281.327 256.747 282.859 256.747 284.68Z" fill="#42ABB4"/>
<path d="M347.037 284.68C347.037 286.595 345.508 288.032 343.693 288.032C341.877 288.032 340.349 286.5 340.349 284.68C340.349 282.859 341.877 281.327 343.693 281.327C345.508 281.327 347.037 282.859 347.037 284.68Z" fill="#42ABB4"/>
<path d="M392.133 284.68C392.133 286.595 390.604 288.032 388.789 288.032C386.878 288.032 385.445 286.5 385.445 284.68C385.445 282.859 386.974 281.327 388.789 281.327C390.604 281.327 392.133 282.859 392.133 284.68Z" fill="#42ABB4"/>
<path d="M437.325 284.68C437.325 286.595 435.797 288.032 433.981 288.032C432.07 288.032 430.637 286.5 430.637 284.68C430.637 282.859 432.166 281.327 433.981 281.327C435.797 281.327 437.325 282.859 437.325 284.68Z" fill="#42ABB4"/>
<path d="M482.422 284.68C482.422 286.595 480.893 288.032 479.078 288.032C477.167 288.032 475.734 286.5 475.734 284.68C475.734 282.859 477.263 281.327 479.078 281.327C480.893 281.327 482.422 282.859 482.422 284.68Z" fill="#42ABB4"/>
<path d="M527.614 284.68C527.614 286.595 526.086 288.032 524.27 288.032C522.359 288.032 520.926 286.5 520.926 284.68C520.926 282.859 522.455 281.327 524.27 281.327C526.086 281.327 527.614 282.859 527.614 284.68Z" fill="#42ABB4"/>
<path d="M572.711 284.68C572.711 286.595 571.182 288.032 569.367 288.032C567.456 288.032 566.023 286.5 566.023 284.68C566.023 282.859 567.552 281.327 569.367 281.327C571.182 281.327 572.711 282.859 572.711 284.68Z" fill="#42ABB4"/>
<path d="M121.362 284.68C121.362 286.595 119.833 288.032 118.018 288.032C116.202 288.032 114.674 286.5 114.674 284.68C114.674 282.859 116.202 281.327 118.018 281.327C119.833 281.327 121.362 282.859 121.362 284.68Z" fill="#42ABB4"/>
<path d="M53.6207 272.705C53.6207 274.621 52.092 276.058 50.2766 276.058C48.4613 276.058 46.9326 274.526 46.9326 272.705C46.9326 270.885 48.4613 269.353 50.2766 269.353C52.092 269.353 53.6207 270.79 53.6207 272.705Z" fill="#42ABB4"/>
<path d="M98.7178 272.705C98.7178 274.621 97.1891 276.058 95.3738 276.058C93.4629 276.058 92.0298 274.526 92.0298 272.705C92.0298 270.885 93.5585 269.353 95.3738 269.353C97.2847 269.257 98.7178 270.79 98.7178 272.705Z" fill="#42ABB4"/>
<path d="M189.006 272.705C189.006 274.621 187.478 276.058 185.662 276.058C183.847 276.058 182.318 274.526 182.318 272.705C182.318 270.885 183.847 269.353 185.662 269.353C187.478 269.353 189.006 270.79 189.006 272.705Z" fill="#42ABB4"/>
<path d="M234.199 272.705C234.199 274.621 232.67 276.058 230.855 276.058C228.944 276.058 227.511 274.526 227.511 272.705C227.511 270.885 229.039 269.353 230.855 269.353C232.67 269.257 234.199 270.79 234.199 272.705Z" fill="#42ABB4"/>
<path d="M369.585 272.705C369.585 274.621 368.056 276.058 366.241 276.058C364.33 276.058 362.896 274.526 362.896 272.705C362.896 270.885 364.425 269.353 366.241 269.353C368.056 269.257 369.585 270.79 369.585 272.705Z" fill="#42ABB4"/>
<path d="M414.681 272.705C414.681 274.621 413.153 276.058 411.337 276.058C409.522 276.058 407.993 274.526 407.993 272.705C407.993 270.885 409.522 269.353 411.337 269.353C413.153 269.353 414.681 270.79 414.681 272.705Z" fill="#42ABB4"/>
<path d="M459.873 272.705C459.873 274.621 458.345 276.058 456.529 276.058C454.618 276.058 453.185 274.526 453.185 272.705C453.185 270.885 454.714 269.353 456.529 269.353C458.345 269.257 459.873 270.79 459.873 272.705Z" fill="#42ABB4"/>
<path d="M504.971 272.705C504.971 274.621 503.442 276.058 501.626 276.058C499.716 276.058 498.282 274.526 498.282 272.705C498.282 270.885 499.811 269.353 501.626 269.353C503.537 269.257 504.971 270.79 504.971 272.705Z" fill="#42ABB4"/>
<path d="M550.163 272.705C550.163 274.621 548.634 276.058 546.819 276.058C544.908 276.058 543.475 274.526 543.475 272.705C543.475 270.885 545.003 269.353 546.819 269.353C548.634 269.257 550.163 270.79 550.163 272.705Z" fill="#42ABB4"/>
<path d="M143.91 272.705C143.91 274.621 142.381 276.058 140.566 276.058C138.655 276.058 137.222 274.526 137.222 272.705C137.222 270.885 138.75 269.353 140.566 269.353C142.381 269.257 143.91 270.79 143.91 272.705Z" fill="#42ABB4"/>
<path d="M53.6207 297.133C53.6207 299.048 52.092 300.485 50.2766 300.485C48.4613 300.485 46.9326 298.953 46.9326 297.133C46.9326 295.217 48.4613 293.78 50.2766 293.78C52.092 293.78 53.6207 295.312 53.6207 297.133Z" fill="#42ABB4"/>
<path d="M98.7178 297.133C98.7178 299.048 97.1891 300.485 95.3738 300.485C93.4629 300.485 92.0298 298.953 92.0298 297.133C92.0298 295.217 93.5585 293.78 95.3738 293.78C97.2847 293.78 98.7178 295.312 98.7178 297.133Z" fill="#42ABB4"/>
<path d="M189.006 297.133C189.006 299.048 187.478 300.485 185.662 300.485C183.847 300.485 182.318 298.953 182.318 297.133C182.318 295.217 183.847 293.78 185.662 293.78C187.478 293.78 189.006 295.312 189.006 297.133Z" fill="#42ABB4"/>
<path d="M234.199 297.133C234.199 299.048 232.67 300.485 230.855 300.485C228.944 300.485 227.511 298.953 227.511 297.133C227.511 295.217 229.039 293.78 230.855 293.78C232.67 293.78 234.199 295.312 234.199 297.133Z" fill="#42ABB4"/>
<path d="M279.296 297.133C279.296 299.048 277.767 300.485 275.952 300.485C274.136 300.485 272.608 298.953 272.608 297.133C272.608 295.217 274.136 293.78 275.952 293.78C277.767 293.78 279.296 295.312 279.296 297.133Z" fill="#42ABB4"/>
<path d="M324.488 297.133C324.488 299.048 322.959 300.485 321.144 300.485C319.233 300.485 317.8 298.953 317.8 297.133C317.8 295.217 319.329 293.78 321.144 293.78C322.959 293.78 324.488 295.312 324.488 297.133Z" fill="#42ABB4"/>
<path d="M369.585 297.133C369.585 299.048 368.056 300.485 366.241 300.485C364.33 300.485 362.896 298.953 362.896 297.133C362.896 295.217 364.425 293.78 366.241 293.78C368.056 293.78 369.585 295.312 369.585 297.133Z" fill="#42ABB4"/>
<path d="M414.681 297.133C414.681 299.048 413.153 300.485 411.337 300.485C409.522 300.485 407.993 298.953 407.993 297.133C407.993 295.217 409.522 293.78 411.337 293.78C413.153 293.78 414.681 295.312 414.681 297.133Z" fill="#42ABB4"/>
<path d="M459.873 297.133C459.873 299.048 458.345 300.485 456.529 300.485C454.618 300.485 453.185 298.953 453.185 297.133C453.185 295.217 454.714 293.78 456.529 293.78C458.345 293.78 459.873 295.312 459.873 297.133Z" fill="#42ABB4"/>
<path d="M504.971 297.133C504.971 299.048 503.442 300.485 501.626 300.485C499.716 300.485 498.282 298.953 498.282 297.133C498.282 295.217 499.811 293.78 501.626 293.78C503.537 293.78 504.971 295.312 504.971 297.133Z" fill="#42ABB4"/>
<path d="M550.163 297.133C550.163 299.048 548.634 300.485 546.819 300.485C544.908 300.485 543.475 298.953 543.475 297.133C543.475 295.217 545.003 293.78 546.819 293.78C548.634 293.78 550.163 295.312 550.163 297.133Z" fill="#42ABB4"/>
<path d="M143.91 297.133C143.91 299.048 142.381 300.485 140.566 300.485C138.655 300.485 137.222 298.953 137.222 297.133C137.222 295.217 138.75 293.78 140.566 293.78C142.381 293.78 143.91 295.312 143.91 297.133Z" fill="#42ABB4"/>
<path d="M31.0726 236.688C31.0726 238.603 29.5439 240.04 27.7286 240.04C25.8177 240.04 24.3845 238.508 24.3845 236.688C24.3845 234.772 25.9132 233.335 27.7286 233.335C29.5439 233.239 31.0726 234.772 31.0726 236.688Z" fill="#42ABB4"/>
<path d="M76.1693 236.688C76.1693 238.603 74.6406 240.04 72.8252 240.04C70.9144 240.04 69.4812 238.508 69.4812 236.688C69.4812 234.772 71.0099 233.335 72.8252 233.335C74.6406 233.239 76.1693 234.772 76.1693 236.688Z" fill="#42ABB4"/>
<path d="M166.458 236.688C166.458 238.603 164.929 240.04 163.114 240.04C161.203 240.04 159.77 238.508 159.77 236.688C159.77 234.772 161.299 233.335 163.114 233.335C164.929 233.239 166.458 234.772 166.458 236.688Z" fill="#42ABB4"/>
<path d="M437.325 236.688C437.325 238.603 435.797 240.04 433.981 240.04C432.07 240.04 430.637 238.508 430.637 236.688C430.637 234.772 432.166 233.335 433.981 233.335C435.797 233.239 437.325 234.772 437.325 236.688Z" fill="#42ABB4"/>
<path d="M482.422 236.688C482.422 238.603 480.893 240.04 479.078 240.04C477.167 240.04 475.734 238.508 475.734 236.688C475.734 234.772 477.263 233.335 479.078 233.335C480.893 233.239 482.422 234.772 482.422 236.688Z" fill="#42ABB4"/>
<path d="M527.614 236.688C527.614 238.603 526.086 240.04 524.27 240.04C522.359 240.04 520.926 238.508 520.926 236.688C520.926 234.772 522.455 233.335 524.27 233.335C526.086 233.239 527.614 234.772 527.614 236.688Z" fill="#42ABB4"/>
<path d="M572.711 236.688C572.711 238.603 571.182 240.04 569.367 240.04C567.456 240.04 566.023 238.508 566.023 236.688C566.023 234.772 567.552 233.335 569.367 233.335C571.182 233.239 572.711 234.772 572.711 236.688Z" fill="#42ABB4"/>
<path d="M121.362 236.688C121.362 238.603 119.833 240.04 118.018 240.04C116.202 240.04 114.674 238.508 114.674 236.688C114.674 234.772 116.202 233.335 118.018 233.335C119.833 233.335 121.362 234.772 121.362 236.688Z" fill="#42ABB4"/>
<path d="M53.6207 224.618C53.6207 226.534 52.092 227.97 50.2766 227.97C48.4613 227.97 46.9326 226.438 46.9326 224.618C46.9326 222.702 48.4613 221.265 50.2766 221.265C52.092 221.265 53.6207 222.798 53.6207 224.618Z" fill="#42ABB4"/>
<path d="M98.7178 224.618C98.7178 226.534 97.1891 227.97 95.3738 227.97C93.4629 227.97 92.0298 226.438 92.0298 224.618C92.0298 222.702 93.5585 221.265 95.3738 221.265C97.2847 221.265 98.7178 222.798 98.7178 224.618Z" fill="#42ABB4"/>
<path d="M459.873 224.618C459.873 226.534 458.345 227.97 456.529 227.97C454.618 227.97 453.185 226.438 453.185 224.618C453.185 222.702 454.714 221.265 456.529 221.265C458.345 221.265 459.873 222.798 459.873 224.618Z" fill="#42ABB4"/>
<path d="M504.971 224.618C504.971 226.534 503.442 227.97 501.626 227.97C499.716 227.97 498.282 226.438 498.282 224.618C498.282 222.702 499.811 221.265 501.626 221.265C503.537 221.265 504.971 222.798 504.971 224.618Z" fill="#42ABB4"/>
<path d="M550.163 224.618C550.163 226.534 548.634 227.97 546.819 227.97C544.908 227.97 543.475 226.438 543.475 224.618C543.475 222.702 545.003 221.265 546.819 221.265C548.634 221.265 550.163 222.798 550.163 224.618Z" fill="#42ABB4"/>
<path d="M143.91 224.618C143.91 226.534 142.381 227.97 140.566 227.97C138.655 227.97 137.222 226.438 137.222 224.618C137.222 222.702 138.75 221.265 140.566 221.265C142.381 221.265 143.91 222.798 143.91 224.618Z" fill="#42ABB4"/>
<path d="M31.0726 164.556C31.0726 166.472 29.5439 167.909 27.7286 167.909C25.8177 167.909 24.3845 166.376 24.3845 164.556C24.3845 162.64 25.9132 161.203 27.7286 161.203C29.5439 161.203 31.0726 162.736 31.0726 164.556Z" fill="#42ABB4"/>
<path d="M76.1693 164.556C76.1693 166.472 74.6406 167.909 72.8252 167.909C70.9144 167.909 69.4812 166.376 69.4812 164.556C69.4812 162.64 71.0099 161.203 72.8252 161.203C74.6406 161.203 76.1693 162.736 76.1693 164.556Z" fill="#42ABB4"/>
<path d="M166.458 164.556C166.458 166.472 164.929 167.909 163.114 167.909C161.203 167.909 159.77 166.376 159.77 164.556C159.77 162.64 161.299 161.203 163.114 161.203C164.929 161.203 166.458 162.736 166.458 164.556Z" fill="#42ABB4"/>
<path d="M347.037 164.556C347.037 166.472 345.508 167.909 343.693 167.909C341.877 167.909 340.349 166.376 340.349 164.556C340.349 162.64 341.877 161.203 343.693 161.203C345.508 161.203 347.037 162.736 347.037 164.556Z" fill="#42ABB4"/>
<path d="M392.133 164.556C392.133 166.472 390.604 167.909 388.789 167.909C386.878 167.909 385.445 166.376 385.445 164.556C385.445 162.64 386.974 161.203 388.789 161.203C390.604 161.203 392.133 162.736 392.133 164.556Z" fill="#42ABB4"/>
<path d="M437.325 164.556C437.325 166.472 435.797 167.909 433.981 167.909C432.07 167.909 430.637 166.376 430.637 164.556C430.637 162.64 432.166 161.203 433.981 161.203C435.797 161.203 437.325 162.736 437.325 164.556Z" fill="#42ABB4"/>
<path d="M482.422 164.556C482.422 166.472 480.893 167.909 479.078 167.909C477.167 167.909 475.734 166.376 475.734 164.556C475.734 162.64 477.263 161.203 479.078 161.203C480.893 161.203 482.422 162.736 482.422 164.556Z" fill="#42ABB4"/>
<path d="M527.614 164.556C527.614 166.472 526.086 167.909 524.27 167.909C522.359 167.909 520.926 166.376 520.926 164.556C520.926 162.64 522.455 161.203 524.27 161.203C526.086 161.203 527.614 162.736 527.614 164.556Z" fill="#42ABB4"/>
<path d="M572.711 164.556C572.711 166.472 571.182 167.909 569.367 167.909C567.456 167.909 566.023 166.376 566.023 164.556C566.023 162.64 567.552 161.203 569.367 161.203C571.182 161.203 572.711 162.736 572.711 164.556Z" fill="#42ABB4"/>
<path d="M121.362 164.556C121.362 166.472 119.833 167.909 118.018 167.909C116.202 167.909 114.674 166.376 114.674 164.556C114.674 162.64 116.202 161.203 118.018 161.203C119.833 161.203 121.362 162.736 121.362 164.556Z" fill="#42ABB4"/>
<path d="M31.0726 188.6C31.0726 190.516 29.5439 191.953 27.7286 191.953C25.8177 191.953 24.3845 190.42 24.3845 188.6C24.3845 186.684 25.9132 185.247 27.7286 185.247C29.5439 185.247 31.0726 186.78 31.0726 188.6Z" fill="#42ABB4"/>
<path d="M76.1693 188.6C76.1693 190.516 74.6406 191.953 72.8252 191.953C70.9144 191.953 69.4812 190.42 69.4812 188.6C69.4812 186.684 71.0099 185.247 72.8252 185.247C74.6406 185.247 76.1693 186.78 76.1693 188.6Z" fill="#42ABB4"/>
<path d="M166.458 188.6C166.458 190.516 164.929 191.953 163.114 191.953C161.203 191.953 159.77 190.42 159.77 188.6C159.77 186.684 161.299 185.247 163.114 185.247C164.929 185.247 166.458 186.78 166.458 188.6Z" fill="#42ABB4"/>
<path d="M256.747 188.6C256.747 190.516 255.219 191.953 253.403 191.953C251.492 191.953 250.059 190.42 250.059 188.6C250.059 186.684 251.588 185.247 253.403 185.247C255.219 185.247 256.747 186.78 256.747 188.6Z" fill="#42ABB4"/>
<path d="M347.037 188.6C347.037 190.516 345.508 191.953 343.693 191.953C341.877 191.953 340.349 190.42 340.349 188.6C340.349 186.684 341.877 185.247 343.693 185.247C345.508 185.247 347.037 186.78 347.037 188.6Z" fill="#42ABB4"/>
<path d="M437.325 188.6C437.325 190.516 435.797 191.953 433.981 191.953C432.07 191.953 430.637 190.42 430.637 188.6C430.637 186.684 432.166 185.247 433.981 185.247C435.797 185.247 437.325 186.78 437.325 188.6Z" fill="#42ABB4"/>
<path d="M482.422 188.6C482.422 190.516 480.893 191.953 479.078 191.953C477.167 191.953 475.734 190.42 475.734 188.6C475.734 186.684 477.263 185.247 479.078 185.247C480.893 185.247 482.422 186.78 482.422 188.6Z" fill="#42ABB4"/>
<path d="M527.614 188.6C527.614 190.516 526.086 191.953 524.27 191.953C522.359 191.953 520.926 190.42 520.926 188.6C520.926 186.684 522.455 185.247 524.27 185.247C526.086 185.247 527.614 186.78 527.614 188.6Z" fill="#42ABB4"/>
<path d="M572.711 188.6C572.711 190.516 571.182 191.953 569.367 191.953C567.456 191.953 566.023 190.42 566.023 188.6C566.023 186.684 567.552 185.247 569.367 185.247C571.182 185.247 572.711 186.78 572.711 188.6Z" fill="#42ABB4"/>
<path d="M121.362 188.6C121.362 190.516 119.833 191.953 118.018 191.953C116.202 191.953 114.674 190.42 114.674 188.6C114.674 186.684 116.202 185.247 118.018 185.247C119.833 185.247 121.362 186.78 121.362 188.6Z" fill="#42ABB4"/>
<path d="M53.6207 152.582C53.6207 154.498 52.092 155.935 50.2766 155.935C48.4613 155.935 46.9326 154.402 46.9326 152.582C46.9326 150.666 48.4613 149.229 50.2766 149.229C52.092 149.229 53.6207 150.762 53.6207 152.582Z" fill="#42ABB4"/>
<path d="M98.7178 152.582C98.7178 154.498 97.1891 155.935 95.3738 155.935C93.4629 155.935 92.0298 154.402 92.0298 152.582C92.0298 150.666 93.5585 149.229 95.3738 149.229C97.2847 149.229 98.7178 150.762 98.7178 152.582Z" fill="#42ABB4"/>
<path d="M369.585 152.582C369.585 154.498 368.056 155.935 366.241 155.935C364.33 155.935 362.896 154.402 362.896 152.582C362.896 150.666 364.425 149.229 366.241 149.229C368.056 149.229 369.585 150.762 369.585 152.582Z" fill="#42ABB4"/>
<path d="M414.681 152.582C414.681 154.498 413.153 155.935 411.337 155.935C409.522 155.935 407.993 154.402 407.993 152.582C407.993 150.666 409.522 149.229 411.337 149.229C413.153 149.229 414.681 150.762 414.681 152.582Z" fill="#42ABB4"/>
<path d="M459.873 152.582C459.873 154.498 458.345 155.935 456.529 155.935C454.618 155.935 453.185 154.402 453.185 152.582C453.185 150.666 454.714 149.229 456.529 149.229C458.345 149.229 459.873 150.762 459.873 152.582Z" fill="#42ABB4"/>
<path d="M504.971 152.582C504.971 154.498 503.442 155.935 501.626 155.935C499.716 155.935 498.282 154.402 498.282 152.582C498.282 150.666 499.811 149.229 501.626 149.229C503.537 149.229 504.971 150.762 504.971 152.582Z" fill="#42ABB4"/>
<path d="M550.163 152.582C550.163 154.498 548.634 155.935 546.819 155.935C544.908 155.935 543.475 154.402 543.475 152.582C543.475 150.666 545.003 149.229 546.819 149.229C548.634 149.229 550.163 150.762 550.163 152.582Z" fill="#42ABB4"/>
<path d="M143.91 152.582C143.91 154.498 142.381 155.935 140.566 155.935C138.655 155.935 137.222 154.402 137.222 152.582C137.222 150.666 138.75 149.229 140.566 149.229C142.381 149.229 143.91 150.762 143.91 152.582Z" fill="#42ABB4"/>
<path d="M31.0726 140.608C31.0726 142.524 29.5439 143.961 27.7286 143.961C25.8177 143.961 24.3845 142.428 24.3845 140.608C24.3845 138.692 25.9132 137.255 27.7286 137.255C29.5439 137.159 31.0726 138.692 31.0726 140.608Z" fill="#42ABB4"/>
<path d="M76.1693 140.608C76.1693 142.524 74.6406 143.961 72.8252 143.961C70.9144 143.961 69.4812 142.428 69.4812 140.608C69.4812 138.692 71.0099 137.255 72.8252 137.255C74.6406 137.159 76.1693 138.692 76.1693 140.608Z" fill="#42ABB4"/>
<path d="M166.458 140.608C166.458 142.524 164.929 143.961 163.114 143.961C161.203 143.961 159.77 142.428 159.77 140.608C159.77 138.692 161.299 137.255 163.114 137.255C164.929 137.159 166.458 138.692 166.458 140.608Z" fill="#42ABB4"/>
<path d="M347.037 140.608C347.037 142.524 345.508 143.961 343.693 143.961C341.877 143.961 340.349 142.428 340.349 140.608C340.349 138.692 341.877 137.255 343.693 137.255C345.508 137.255 347.037 138.692 347.037 140.608Z" fill="#42ABB4"/>
<path d="M437.325 140.608C437.325 142.524 435.797 143.961 433.981 143.961C432.07 143.961 430.637 142.428 430.637 140.608C430.637 138.692 432.166 137.255 433.981 137.255C435.797 137.159 437.325 138.692 437.325 140.608Z" fill="#42ABB4"/>
<path d="M482.422 140.608C482.422 142.524 480.893 143.961 479.078 143.961C477.167 143.961 475.734 142.428 475.734 140.608C475.734 138.692 477.263 137.255 479.078 137.255C480.893 137.159 482.422 138.692 482.422 140.608Z" fill="#42ABB4"/>
<path d="M527.614 140.608C527.614 142.524 526.086 143.961 524.27 143.961C522.359 143.961 520.926 142.428 520.926 140.608C520.926 138.692 522.455 137.255 524.27 137.255C526.086 137.159 527.614 138.692 527.614 140.608Z" fill="#42ABB4"/>
<path d="M572.711 140.608C572.711 142.524 571.182 143.961 569.367 143.961C567.456 143.961 566.023 142.428 566.023 140.608C566.023 138.692 567.552 137.255 569.367 137.255C571.182 137.159 572.711 138.692 572.711 140.608Z" fill="#42ABB4"/>
<path d="M121.362 140.608C121.362 142.524 119.833 143.961 118.018 143.961C116.202 143.961 114.674 142.428 114.674 140.608C114.674 138.692 116.202 137.255 118.018 137.255C119.833 137.255 121.362 138.692 121.362 140.608Z" fill="#42ABB4"/>
<path d="M53.6207 128.538C53.6207 130.454 52.092 131.891 50.2766 131.891C48.4613 131.891 46.9326 130.358 46.9326 128.538C46.9326 126.718 48.4613 125.185 50.2766 125.185C52.092 125.185 53.6207 126.718 53.6207 128.538Z" fill="#42ABB4"/>
<path d="M98.7178 128.538C98.7178 130.454 97.1891 131.891 95.3738 131.891C93.4629 131.891 92.0298 130.358 92.0298 128.538C92.0298 126.718 93.5585 125.185 95.3738 125.185C97.2847 125.185 98.7178 126.718 98.7178 128.538Z" fill="#42ABB4"/>
<path d="M324.488 128.538C324.488 130.454 322.959 131.891 321.144 131.891C319.233 131.891 317.8 130.358 317.8 128.538C317.8 126.718 319.329 125.185 321.144 125.185C322.959 125.185 324.488 126.718 324.488 128.538Z" fill="#42ABB4"/>
<path d="M459.873 128.538C459.873 130.454 458.345 131.891 456.529 131.891C454.618 131.891 453.185 130.358 453.185 128.538C453.185 126.718 454.714 125.185 456.529 125.185C458.345 125.185 459.873 126.718 459.873 128.538Z" fill="#42ABB4"/>
<path d="M504.971 128.538C504.971 130.454 503.442 131.891 501.626 131.891C499.716 131.891 498.282 130.358 498.282 128.538C498.282 126.718 499.811 125.185 501.626 125.185C503.537 125.185 504.971 126.718 504.971 128.538Z" fill="#42ABB4"/>
<path d="M550.163 128.538C550.163 130.454 548.634 131.891 546.819 131.891C544.908 131.891 543.475 130.358 543.475 128.538C543.475 126.718 545.003 125.185 546.819 125.185C548.634 125.185 550.163 126.718 550.163 128.538Z" fill="#42ABB4"/>
<path d="M143.91 128.538C143.91 130.454 142.381 131.891 140.566 131.891C138.655 131.891 137.222 130.358 137.222 128.538C137.222 126.718 138.75 125.185 140.566 125.185C142.381 125.185 143.91 126.718 143.91 128.538Z" fill="#42ABB4"/>
<path d="M53.6207 200.67C53.6207 202.585 52.092 204.022 50.2766 204.022C48.4613 204.022 46.9326 202.49 46.9326 200.67C46.9326 198.85 48.4613 197.317 50.2766 197.317C52.092 197.317 53.6207 198.754 53.6207 200.67Z" fill="#42ABB4"/>
<path d="M98.7178 200.67C98.7178 202.586 97.1891 204.022 95.3738 204.022C93.4629 204.022 92.0298 202.49 92.0298 200.67C92.0298 198.85 93.5585 197.317 95.3738 197.317C97.2847 197.221 98.7178 198.754 98.7178 200.67Z" fill="#42ABB4"/>
<path d="M459.873 200.67C459.873 202.586 458.345 204.022 456.529 204.022C454.618 204.022 453.185 202.49 453.185 200.67C453.185 198.85 454.714 197.317 456.529 197.317C458.345 197.221 459.873 198.754 459.873 200.67Z" fill="#42ABB4"/>
<path d="M504.971 200.67C504.971 202.586 503.442 204.022 501.626 204.022C499.716 204.022 498.282 202.49 498.282 200.67C498.282 198.85 499.811 197.317 501.626 197.317C503.537 197.221 504.971 198.754 504.971 200.67Z" fill="#42ABB4"/>
<path d="M550.163 200.67C550.163 202.586 548.634 204.022 546.819 204.022C544.908 204.022 543.475 202.49 543.475 200.67C543.475 198.85 545.003 197.317 546.819 197.317C548.634 197.221 550.163 198.754 550.163 200.67Z" fill="#42ABB4"/>
<path d="M143.91 200.67C143.91 202.586 142.381 204.022 140.566 204.022C138.655 204.022 137.222 202.49 137.222 200.67C137.222 198.85 138.75 197.317 140.566 197.317C142.381 197.221 143.91 198.754 143.91 200.67Z" fill="#42ABB4"/>
<path d="M53.6207 176.626C53.6207 178.542 52.092 179.978 50.2766 179.978C48.4613 179.978 46.9326 178.446 46.9326 176.626C46.9326 174.71 48.4613 173.273 50.2766 173.273C52.092 173.273 53.6207 174.71 53.6207 176.626Z" fill="#42ABB4"/>
<path d="M98.7178 176.626C98.7178 178.542 97.1891 179.979 95.3738 179.979C93.4629 179.979 92.0298 178.446 92.0298 176.626C92.0298 174.71 93.5585 173.273 95.3738 173.273C97.2847 173.177 98.7178 174.71 98.7178 176.626Z" fill="#42ABB4"/>
<path d="M234.199 176.626C234.199 178.542 232.67 179.979 230.855 179.979C228.944 179.979 227.511 178.446 227.511 176.626C227.511 174.71 229.039 173.273 230.855 173.273C232.67 173.177 234.199 174.71 234.199 176.626Z" fill="#42ABB4"/>
<path d="M369.585 176.626C369.585 178.542 368.056 179.979 366.241 179.979C364.33 179.979 362.896 178.446 362.896 176.626C362.896 174.71 364.425 173.273 366.241 173.273C368.056 173.177 369.585 174.71 369.585 176.626Z" fill="#42ABB4"/>
<path d="M414.681 176.626C414.681 178.542 413.153 179.978 411.337 179.978C409.522 179.978 407.993 178.446 407.993 176.626C407.993 174.71 409.522 173.273 411.337 173.273C413.153 173.273 414.681 174.71 414.681 176.626Z" fill="#42ABB4"/>
<path d="M459.873 176.626C459.873 178.542 458.345 179.979 456.529 179.979C454.618 179.979 453.185 178.446 453.185 176.626C453.185 174.71 454.714 173.273 456.529 173.273C458.345 173.177 459.873 174.71 459.873 176.626Z" fill="#42ABB4"/>
<path d="M504.971 176.626C504.971 178.542 503.442 179.979 501.626 179.979C499.716 179.979 498.282 178.446 498.282 176.626C498.282 174.71 499.811 173.273 501.626 173.273C503.537 173.177 504.971 174.71 504.971 176.626Z" fill="#42ABB4"/>
<path d="M550.163 176.626C550.163 178.542 548.634 179.979 546.819 179.979C544.908 179.979 543.475 178.446 543.475 176.626C543.475 174.71 545.003 173.273 546.819 173.273C548.634 173.177 550.163 174.71 550.163 176.626Z" fill="#42ABB4"/>
<path d="M595.259 56.5022C595.259 58.4181 593.73 59.8549 591.915 59.8549C590.004 59.8549 588.571 58.3223 588.571 56.5022C588.571 54.5864 590.1 53.1495 591.915 53.1495C593.73 53.1495 595.259 54.5864 595.259 56.5022Z" fill="#42ABB4"/>
<path d="M595.259 32.4584C595.259 34.3742 593.73 35.8111 591.915 35.8111C590.004 35.8111 588.571 34.2784 588.571 32.4584C588.571 30.5425 590.1 29.1057 591.915 29.1057C593.73 29.1057 595.259 30.6383 595.259 32.4584Z" fill="#42ABB4"/>
<path d="M595.259 104.59C595.259 106.506 593.73 107.943 591.915 107.943C590.004 107.943 588.571 106.41 588.571 104.59C588.571 102.674 590.1 101.237 591.915 101.237C593.73 101.141 595.259 102.674 595.259 104.59Z" fill="#42ABB4"/>
<path d="M595.259 80.5461C595.259 82.462 593.73 83.8989 591.915 83.8989C590.004 83.8989 588.571 82.3662 588.571 80.5461C588.571 78.7261 590.1 77.1934 591.915 77.1934C593.73 77.0976 595.259 78.6303 595.259 80.5461Z" fill="#42ABB4"/>
<path d="M595.259 248.662C595.259 250.577 593.73 252.014 591.915 252.014C590.004 252.014 588.571 250.482 588.571 248.662C588.571 246.746 590.1 245.309 591.915 245.309C593.73 245.309 595.259 246.842 595.259 248.662Z" fill="#42ABB4"/>
<path d="M595.259 272.705C595.259 274.621 593.73 276.058 591.915 276.058C590.004 276.058 588.571 274.526 588.571 272.705C588.571 270.885 590.1 269.353 591.915 269.353C593.73 269.257 595.259 270.79 595.259 272.705Z" fill="#42ABB4"/>
<path d="M595.259 297.133C595.259 299.048 593.73 300.485 591.915 300.485C590.004 300.485 588.571 298.953 588.571 297.133C588.571 295.217 590.1 293.78 591.915 293.78C593.73 293.78 595.259 295.312 595.259 297.133Z" fill="#42ABB4"/>
<path d="M595.259 224.618C595.259 226.534 593.73 227.97 591.915 227.97C590.004 227.97 588.571 226.438 588.571 224.618C588.571 222.702 590.1 221.265 591.915 221.265C593.73 221.265 595.259 222.798 595.259 224.618Z" fill="#42ABB4"/>
<path d="M459.873 320.985C459.873 322.901 458.345 324.338 456.529 324.338C454.618 324.338 453.185 322.805 453.185 320.985C453.185 319.165 454.714 317.632 456.529 317.632C458.345 317.536 459.873 319.069 459.873 320.985Z" fill="#42ABB4"/>
<path d="M504.971 320.985C504.971 322.901 503.442 324.338 501.626 324.338C499.716 324.338 498.282 322.805 498.282 320.985C498.282 319.165 499.811 317.632 501.626 317.632C503.537 317.536 504.971 319.069 504.971 320.985Z" fill="#42ABB4"/>
<path d="M550.163 320.985C550.163 322.901 548.634 324.338 546.819 324.338C544.908 324.338 543.475 322.805 543.475 320.985C543.475 319.165 545.003 317.632 546.819 317.632C548.634 317.536 550.163 319.069 550.163 320.985Z" fill="#42ABB4"/>
<path d="M437.325 308.915C437.325 310.831 435.797 312.268 433.981 312.268C432.07 312.268 430.637 310.735 430.637 308.915C430.637 307.095 432.166 305.562 433.981 305.562C435.797 305.562 437.325 307.095 437.325 308.915Z" fill="#42ABB4"/>
<path d="M482.422 308.915C482.422 310.831 480.893 312.268 479.078 312.268C477.167 312.268 475.734 310.735 475.734 308.915C475.734 307.095 477.263 305.562 479.078 305.562C480.893 305.562 482.422 307.095 482.422 308.915Z" fill="#42ABB4"/>
<path d="M527.614 308.915C527.614 310.831 526.086 312.268 524.27 312.268C522.359 312.268 520.926 310.735 520.926 308.915C520.926 307.095 522.455 305.562 524.27 305.562C526.086 305.562 527.614 307.095 527.614 308.915Z" fill="#42ABB4"/>
<path d="M572.711 308.915C572.711 310.831 571.182 312.268 569.367 312.268C567.456 312.268 566.023 310.735 566.023 308.915C566.023 307.095 567.552 305.562 569.367 305.562C571.182 305.562 572.711 307.095 572.711 308.915Z" fill="#42ABB4"/>
<path d="M324.488 320.985C324.488 322.901 322.959 324.338 321.144 324.338C319.233 324.338 317.8 322.805 317.8 320.985C317.8 319.165 319.329 317.632 321.144 317.632C322.959 317.536 324.488 319.069 324.488 320.985Z" fill="#42ABB4"/>
<path d="M369.585 320.985C369.585 322.901 368.056 324.338 366.241 324.338C364.33 324.338 362.896 322.805 362.896 320.985C362.896 319.165 364.425 317.632 366.241 317.632C368.056 317.536 369.585 319.069 369.585 320.985Z" fill="#42ABB4"/>
<path d="M414.681 320.985C414.681 322.901 413.153 324.338 411.337 324.338C409.522 324.338 407.993 322.805 407.993 320.985C407.993 319.165 409.522 317.632 411.337 317.632C413.153 317.632 414.681 319.069 414.681 320.985Z" fill="#42ABB4"/>
<path d="M279.296 320.985C279.296 322.901 277.767 324.338 275.952 324.338C274.136 324.338 272.608 322.805 272.608 320.985C272.608 319.165 274.136 317.632 275.952 317.632C277.767 317.632 279.296 319.069 279.296 320.985Z" fill="#42ABB4"/>
<path d="M301.844 308.915C301.844 310.831 300.315 312.268 298.5 312.268C296.589 312.268 295.156 310.735 295.156 308.915C295.156 307.095 296.684 305.562 298.5 305.562C300.411 305.562 301.844 307.095 301.844 308.915Z" fill="#42ABB4"/>
<path d="M347.037 308.915C347.037 310.831 345.508 312.268 343.693 312.268C341.877 312.268 340.349 310.735 340.349 308.915C340.349 307.095 341.877 305.562 343.693 305.562C345.508 305.562 347.037 307.095 347.037 308.915Z" fill="#42ABB4"/>
<path d="M234.199 320.985C234.199 322.901 232.67 324.338 230.855 324.338C228.944 324.338 227.511 322.805 227.511 320.985C227.511 319.165 229.039 317.632 230.855 317.632C232.67 317.536 234.199 319.069 234.199 320.985Z" fill="#42ABB4"/>
<path d="M211.651 308.915C211.651 310.831 210.122 312.268 208.307 312.268C206.491 312.268 204.963 310.735 204.963 308.915C204.963 307.095 206.491 305.562 208.307 305.562C210.122 305.562 211.651 307.095 211.651 308.915Z" fill="#42ABB4"/>
<path d="M256.747 308.915C256.747 310.831 255.219 312.268 253.403 312.268C251.492 312.268 250.059 310.735 250.059 308.915C250.059 307.095 251.588 305.562 253.403 305.562C255.219 305.562 256.747 307.095 256.747 308.915Z" fill="#42ABB4"/>
<path d="M392.133 308.915C392.133 310.831 390.604 312.268 388.789 312.268C386.878 312.268 385.445 310.735 385.445 308.915C385.445 307.095 386.974 305.562 388.789 305.562C390.604 305.562 392.133 307.095 392.133 308.915Z" fill="#42ABB4"/>
<path d="M595.259 320.985C595.259 322.901 593.73 324.338 591.915 324.338C590.004 324.338 588.571 322.805 588.571 320.985C588.571 319.165 590.1 317.632 591.915 317.632C593.73 317.536 595.259 319.069 595.259 320.985Z" fill="#42ABB4"/>
<path d="M595.259 152.582C595.259 154.498 593.73 155.935 591.915 155.935C590.004 155.935 588.571 154.402 588.571 152.582C588.571 150.666 590.1 149.229 591.915 149.229C593.73 149.229 595.259 150.762 595.259 152.582Z" fill="#42ABB4"/>
<path d="M595.259 128.538C595.259 130.454 593.73 131.891 591.915 131.891C590.004 131.891 588.571 130.358 588.571 128.538C588.571 126.718 590.1 125.185 591.915 125.185C593.73 125.185 595.259 126.718 595.259 128.538Z" fill="#42ABB4"/>
<path d="M595.259 200.67C595.259 202.586 593.73 204.022 591.915 204.022C590.004 204.022 588.571 202.49 588.571 200.67C588.571 198.85 590.1 197.317 591.915 197.317C593.73 197.221 595.259 198.754 595.259 200.67Z" fill="#42ABB4"/>
<path d="M595.259 176.626C595.259 178.542 593.73 179.979 591.915 179.979C590.004 179.979 588.571 178.446 588.571 176.626C588.571 174.71 590.1 173.273 591.915 173.273C593.73 173.177 595.259 174.71 595.259 176.626Z" fill="#42ABB4"/>
<path d="M143.91 176.626C143.91 178.542 142.381 179.979 140.566 179.979C138.655 179.979 137.222 178.446 137.222 176.626C137.222 174.71 138.75 173.273 140.566 173.273C142.381 173.177 143.91 174.71 143.91 176.626Z" fill="#42ABB4"/>
<path d="M31.0726 20.4844C31.0726 22.4002 29.5439 23.8371 27.7286 23.8371C25.8177 23.8371 24.3845 22.3044 24.3845 20.4844C24.3845 18.5685 25.9132 17.1316 27.7286 17.1316C29.5439 17.0358 31.0726 18.5685 31.0726 20.4844Z" fill="#42ABB4"/>
<path d="M8.52451 56.5022C8.52451 58.4181 6.9958 59.8549 5.18047 59.8549C3.26959 59.8549 1.83643 58.3223 1.83643 56.5022C1.83643 54.5864 3.36513 53.1495 5.18047 53.1495C6.9958 53.1495 8.52451 54.5864 8.52451 56.5022Z" fill="#42ABB4"/>
<path d="M8.52451 32.4584C8.52451 34.3742 6.9958 35.8111 5.18047 35.8111C3.26959 35.8111 1.83643 34.2784 1.83643 32.4584C1.83643 30.5425 3.36513 29.1057 5.18047 29.1057C6.9958 29.1057 8.52451 30.6383 8.52451 32.4584Z" fill="#42ABB4"/>
<path d="M8.52451 104.59C8.52451 106.506 6.9958 107.943 5.18047 107.943C3.26959 107.943 1.83643 106.41 1.83643 104.59C1.83643 102.674 3.36513 101.237 5.18047 101.237C6.9958 101.141 8.52451 102.674 8.52451 104.59Z" fill="#42ABB4"/>
<path d="M8.52451 80.5461C8.52451 82.462 6.9958 83.8989 5.18047 83.8989C3.26959 83.8989 1.83643 82.3662 1.83643 80.5461C1.83643 78.7261 3.36513 77.1934 5.18047 77.1934C6.9958 77.0976 8.52451 78.6303 8.52451 80.5461Z" fill="#42ABB4"/>
<path d="M8.52451 248.662C8.52451 250.577 6.9958 252.014 5.18047 252.014C3.26959 252.014 1.83643 250.482 1.83643 248.662C1.83643 246.746 3.36513 245.309 5.18047 245.309C6.9958 245.309 8.52451 246.842 8.52451 248.662Z" fill="#42ABB4"/>
<path d="M8.52451 272.705C8.52451 274.621 6.9958 276.058 5.18047 276.058C3.26959 276.058 1.83643 274.526 1.83643 272.705C1.83643 270.885 3.36513 269.353 5.18047 269.353C6.9958 269.257 8.52451 270.79 8.52451 272.705Z" fill="#42ABB4"/>
<path d="M8.52451 297.133C8.52451 299.048 6.9958 300.485 5.18047 300.485C3.26959 300.485 1.83643 298.953 1.83643 297.133C1.83643 295.217 3.36513 293.78 5.18047 293.78C6.9958 293.78 8.52451 295.312 8.52451 297.133Z" fill="#42ABB4"/>
<path d="M53.6207 321.176C53.6207 323.092 52.092 324.529 50.2766 324.529C48.4613 324.529 46.9326 322.996 46.9326 321.176C46.9326 319.26 48.4613 317.824 50.2766 317.824C52.092 317.824 53.6207 319.26 53.6207 321.176Z" fill="#42ABB4"/>
<path d="M98.7178 321.176C98.7178 323.092 97.1891 324.529 95.3738 324.529C93.4629 324.529 92.0298 322.996 92.0298 321.176C92.0298 319.26 93.5585 317.824 95.3738 317.824C97.2847 317.824 98.7178 319.26 98.7178 321.176Z" fill="#42ABB4"/>
<path d="M189.006 321.176C189.006 323.092 187.478 324.529 185.662 324.529C183.847 324.529 182.318 322.996 182.318 321.176C182.318 319.26 183.847 317.824 185.662 317.824C187.478 317.824 189.006 319.26 189.006 321.176Z" fill="#42ABB4"/>
<path d="M143.91 321.176C143.91 323.092 142.381 324.529 140.566 324.529C138.655 324.529 137.222 322.996 137.222 321.176C137.222 319.26 138.75 317.824 140.566 317.824C142.381 317.824 143.91 319.26 143.91 321.176Z" fill="#42ABB4"/>
<path d="M31.0726 309.202C31.0726 311.118 29.5439 312.555 27.7286 312.555C25.8177 312.555 24.3845 311.022 24.3845 309.202C24.3845 307.286 25.9132 305.85 27.7286 305.85C29.5439 305.754 31.0726 307.286 31.0726 309.202Z" fill="#42ABB4"/>
<path d="M76.1693 309.202C76.1693 311.118 74.6406 312.555 72.8252 312.555C70.9144 312.555 69.4812 311.022 69.4812 309.202C69.4812 307.286 71.0099 305.85 72.8252 305.85C74.6406 305.754 76.1693 307.286 76.1693 309.202Z" fill="#42ABB4"/>
<path d="M166.458 309.202C166.458 311.118 164.929 312.555 163.114 312.555C161.203 312.555 159.77 311.022 159.77 309.202C159.77 307.286 161.299 305.85 163.114 305.85C164.929 305.754 166.458 307.286 166.458 309.202Z" fill="#42ABB4"/>
<path d="M121.362 309.202C121.362 311.118 119.833 312.555 118.018 312.555C116.202 312.555 114.674 311.022 114.674 309.202C114.674 307.286 116.202 305.85 118.018 305.85C119.833 305.85 121.362 307.286 121.362 309.202Z" fill="#42ABB4"/>
<path d="M8.52451 321.176C8.52451 323.092 6.9958 324.529 5.18047 324.529C3.26959 324.529 1.83643 322.996 1.83643 321.176C1.83643 319.26 3.36513 317.824 5.18047 317.824C6.9958 317.824 8.52451 319.26 8.52451 321.176Z" fill="#42ABB4"/>
<path d="M459.873 8.22291C459.873 10.1388 458.345 11.5756 456.529 11.5756C454.618 11.5756 453.185 10.043 453.185 8.22291C453.185 6.30706 454.714 4.87018 456.529 4.87018C458.345 4.87018 459.873 6.40286 459.873 8.22291Z" fill="#42ABB4"/>
<path d="M504.971 8.22291C504.971 10.1388 503.442 11.5756 501.626 11.5756C499.716 11.5756 498.282 10.043 498.282 8.22291C498.282 6.30706 499.811 4.87018 501.626 4.87018C503.537 4.87018 504.971 6.40286 504.971 8.22291Z" fill="#42ABB4"/>
<path d="M550.163 8.22291C550.163 10.1388 548.634 11.5756 546.819 11.5756C544.908 11.5756 543.475 10.043 543.475 8.22291C543.475 6.30706 545.003 4.87018 546.819 4.87018C548.634 4.87018 550.163 6.40286 550.163 8.22291Z" fill="#42ABB4"/>
<path d="M324.488 8.22291C324.488 10.1388 322.959 11.5756 321.144 11.5756C319.233 11.5756 317.8 10.043 317.8 8.22291C317.8 6.30706 319.329 4.87018 321.144 4.87018C322.959 4.87018 324.488 6.40286 324.488 8.22291Z" fill="#42ABB4"/>
<path d="M369.585 8.22291C369.585 10.1388 368.056 11.5756 366.241 11.5756C364.33 11.5756 362.896 10.043 362.896 8.22291C362.896 6.30706 364.425 4.87018 366.241 4.87018C368.056 4.87018 369.585 6.40286 369.585 8.22291Z" fill="#42ABB4"/>
<path d="M414.681 8.22291C414.681 10.1388 413.153 11.5756 411.337 11.5756C409.522 11.5756 407.993 10.043 407.993 8.22291C407.993 6.30706 409.522 4.87018 411.337 4.87018C413.153 4.87018 414.681 6.40286 414.681 8.22291Z" fill="#42ABB4"/>
<path d="M279.296 8.22291C279.296 10.1388 277.767 11.5756 275.952 11.5756C274.136 11.5756 272.608 10.043 272.608 8.22291C272.608 6.30706 274.136 4.87018 275.952 4.87018C277.767 4.87018 279.296 6.40286 279.296 8.22291Z" fill="#42ABB4"/>
<path d="M234.199 8.22291C234.199 10.1388 232.67 11.5756 230.855 11.5756C228.944 11.5756 227.511 10.043 227.511 8.22291C227.511 6.30706 229.039 4.87018 230.855 4.87018C232.67 4.87018 234.199 6.40286 234.199 8.22291Z" fill="#42ABB4"/>
<path d="M595.259 8.22291C595.259 10.1388 593.73 11.5756 591.915 11.5756C590.004 11.5756 588.571 10.043 588.571 8.22291C588.571 6.30706 590.1 4.87018 591.915 4.87018C593.73 4.87018 595.259 6.40286 595.259 8.22291Z" fill="#42ABB4"/>
<path d="M53.6207 8.41443C53.6207 10.3303 52.092 11.7672 50.2766 11.7672C48.4613 11.7672 46.9326 10.2345 46.9326 8.41443C46.9326 6.59438 48.4613 5.06171 50.2766 5.06171C52.092 5.06171 53.6207 6.59438 53.6207 8.41443Z" fill="#42ABB4"/>
<path d="M98.7178 8.41443C98.7178 10.3303 97.1891 11.7672 95.3738 11.7672C93.4629 11.7672 92.0298 10.2345 92.0298 8.41443C92.0298 6.59438 93.5585 5.06171 95.3738 5.06171C97.2847 5.06171 98.7178 6.59438 98.7178 8.41443Z" fill="#42ABB4"/>
<path d="M189.006 8.41443C189.006 10.3303 187.478 11.7672 185.662 11.7672C183.847 11.7672 182.318 10.2345 182.318 8.41443C182.318 6.59438 183.847 5.06171 185.662 5.06171C187.478 5.06171 189.006 6.59438 189.006 8.41443Z" fill="#42ABB4"/>
<path d="M143.91 8.41443C143.91 10.3303 142.381 11.7672 140.566 11.7672C138.655 11.7672 137.222 10.2345 137.222 8.41443C137.222 6.59438 138.75 5.06171 140.566 5.06171C142.381 5.06171 143.91 6.59438 143.91 8.41443Z" fill="#42ABB4"/>
<path d="M8.52451 8.41443C8.52451 10.3303 6.9958 11.7672 5.18047 11.7672C3.26959 11.7672 1.83643 10.2345 1.83643 8.41443C1.83643 6.59438 3.36513 5.06171 5.18047 5.06171C6.9958 5.06171 8.52451 6.59438 8.52451 8.41443Z" fill="#42ABB4"/>
<path d="M8.52451 224.618C8.52451 226.534 6.9958 227.97 5.18047 227.97C3.26959 227.97 1.83643 226.438 1.83643 224.618C1.83643 222.702 3.36513 221.265 5.18047 221.265C6.9958 221.265 8.52451 222.798 8.52451 224.618Z" fill="#42ABB4"/>
<path d="M8.52451 152.582C8.52451 154.498 6.9958 155.935 5.18047 155.935C3.26959 155.935 1.83643 154.402 1.83643 152.582C1.83643 150.666 3.36513 149.229 5.18047 149.229C6.9958 149.229 8.52451 150.762 8.52451 152.582Z" fill="#42ABB4"/>
<path d="M8.52451 128.538C8.52451 130.454 6.9958 131.891 5.18047 131.891C3.26959 131.891 1.83643 130.358 1.83643 128.538C1.83643 126.718 3.36513 125.185 5.18047 125.185C6.9958 125.185 8.52451 126.718 8.52451 128.538Z" fill="#42ABB4"/>
<path d="M8.52451 200.67C8.52451 202.586 6.9958 204.022 5.18047 204.022C3.26959 204.022 1.83643 202.49 1.83643 200.67C1.83643 198.85 3.36513 197.317 5.18047 197.317C6.9958 197.221 8.52451 198.754 8.52451 200.67Z" fill="#42ABB4"/>
<path d="M8.52451 176.626C8.52451 178.542 6.9958 179.979 5.18047 179.979C3.26959 179.979 1.83643 178.446 1.83643 176.626C1.83643 174.71 3.36513 173.273 5.18047 173.273C6.9958 173.177 8.52451 174.71 8.52451 176.626Z" fill="#42ABB4"/>
</svg>
