<?xml version="1.0" encoding="UTF-8" standalone="no"?>
<svg
   xmlns:dc="http://purl.org/dc/elements/1.1/"
   xmlns:cc="http://creativecommons.org/ns#"
   xmlns:rdf="http://www.w3.org/1999/02/22-rdf-syntax-ns#"
   xmlns:svg="http://www.w3.org/2000/svg"
   xmlns="http://www.w3.org/2000/svg"
   viewBox="0 0 115.7604 115.49733"
   height="115.49733"
   width="115.7604"
   xml:space="preserve"
   id="svg2"
   version="1.1"><metadata
     id="metadata8"><rdf:RDF><cc:Work
         rdf:about=""><dc:format>image/svg+xml</dc:format><dc:type
           rdf:resource="http://purl.org/dc/dcmitype/StillImage" /></cc:Work></rdf:RDF></metadata><defs
     id="defs6"><clipPath
       id="clipPath18"
       clipPathUnits="userSpaceOnUse"><path
         id="path16"
         d="M 0,86.623 H 86.82 V 0 H 0 Z" /></clipPath></defs><g
     transform="matrix(1.3333333,0,0,-1.3333333,0,115.49733)"
     id="g10"><g
       id="g12"><g
         clip-path="url(#clipPath18)"
         id="g14"><g
           transform="translate(10.4375,86.623)"
           id="g20"><path
             id="path22"
             style="fill:#ffffff;fill-opacity:1;fill-rule:nonzero;stroke:none"
             d="m 0,0 c 5.758,0 10.428,-4.676 10.428,-10.425 0,-5.755 -4.67,-10.429 -10.428,-10.429 -5.779,0 -10.438,4.674 -10.438,10.429 C -10.438,-4.676 -5.779,0 0,0 M -9.012,-28.764 H 8.999 V -86.623 H -9.012 Z" /></g><g
           transform="translate(30.7275,57.8594)"
           id="g24"><path
             id="path26"
             style="fill:#ffffff;fill-opacity:1;fill-rule:nonzero;stroke:none"
             d="m 0,0 h 17.248 v -7.907 h 0.245 c 2.399,4.552 8.273,9.345 17.027,9.345 18.205,0 21.573,-11.978 21.573,-27.56 V -57.859 H 38.115 v 28.13 c 0,6.716 -0.132,15.349 -9.352,15.349 -9.365,0 -10.792,-7.309 -10.792,-14.852 v -28.627 l -17.971,0 z" /></g></g></g></g></svg>