<?xml version="1.0" encoding="UTF-8" standalone="no"?>
<svg
   xmlns:dc="http://purl.org/dc/elements/1.1/"
   xmlns:cc="http://creativecommons.org/ns#"
   xmlns:rdf="http://www.w3.org/1999/02/22-rdf-syntax-ns#"
   xmlns:svg="http://www.w3.org/2000/svg"
   xmlns="http://www.w3.org/2000/svg"
   viewBox="0 0 127.08133 153.74667"
   height="153.74667"
   width="127.08133"
   xml:space="preserve"
   id="svg2"
   version="1.1"><metadata
     id="metadata8"><rdf:RDF><cc:Work
         rdf:about=""><dc:format>image/svg+xml</dc:format><dc:type
           rdf:resource="http://purl.org/dc/dcmitype/StillImage" /></cc:Work></rdf:RDF></metadata><defs
     id="defs6"><clipPath
       id="clipPath18"
       clipPathUnits="userSpaceOnUse"><path
         id="path16"
         d="M 0,115.31 H 95.311 V 0 H 0 Z" /></clipPath></defs><g
     transform="matrix(1.3333333,0,0,-1.3333333,0,153.74667)"
     id="g10"><g
       id="g12"><g
         clip-path="url(#clipPath18)"
         id="g14"><g
           transform="translate(76.4556,72.2031)"
           id="g20"><path
             id="path22"
             style="fill:#ffeed7;fill-opacity:1;fill-rule:nonzero;stroke:none"
             d="M 0,0 V 32.122 H -5.822 V 7.571 c -1.294,-1.822 -2.516,-2.725 -3.68,-2.725 -0.782,0 -1.235,0.462 -1.361,1.364 -0.073,0.187 -0.073,0.898 -0.073,2.266 v 23.646 h -5.803 v -25.4 c 0,-2.265 0.197,-3.805 0.52,-4.776 0.577,-1.629 1.871,-2.39 3.747,-2.39 2.12,0 4.331,1.291 6.65,3.95 l 0,-3.506 z m -27.351,9.305 c 0,-2.972 -0.899,-4.459 -2.774,-4.459 -1.88,0 -2.782,1.487 -2.782,4.459 v 13.514 c 0,2.974 0.902,4.452 2.782,4.452 1.875,0 2.774,-1.478 2.774,-4.452 z m 5.824,1.096 v 11.253 c 0,3.432 -0.589,5.941 -1.809,7.567 -1.611,2.192 -3.873,3.293 -6.789,3.293 -2.9,0 -5.17,-1.101 -6.778,-3.293 -1.241,-1.626 -1.824,-4.135 -1.824,-7.567 V 10.401 c 0,-3.415 0.583,-5.944 1.824,-7.557 1.608,-2.189 3.878,-3.288 6.778,-3.288 2.916,0 5.178,1.099 6.789,3.288 1.22,1.613 1.809,4.142 1.809,7.557 M -38.78,43.106 h -6.527 l -4.403,-16.927 -4.58,16.927 h -6.796 c 1.359,-3.993 2.779,-8.01 4.138,-12.008 2.07,-6.012 3.364,-10.542 3.947,-13.639 V 0 h 6.456 v 17.459 z" /></g><g
           transform="translate(58.2046,39.5889)"
           id="g24"><path
             id="path26"
             style="fill:#ffeed7;fill-opacity:1;fill-rule:nonzero;stroke:none"
             d="m 0,0 c -0.947,0 -1.909,-0.453 -2.87,-1.4 v -19.381 c 0.961,-0.959 1.923,-1.412 2.87,-1.412 1.659,0 2.507,1.412 2.507,4.285 v 13.57 C 2.507,-1.475 1.659,0 0,0" /></g><g
           transform="translate(79.5815,39.5889)"
           id="g28"><path
             id="path30"
             style="fill:#ffeed7;fill-opacity:1;fill-rule:nonzero;stroke:none"
             d="m 0,0 c -1.927,0 -2.89,-1.475 -2.89,-4.414 v -2.938 h 5.757 v 2.938 C 2.867,-1.475 1.903,0 0,0" /></g><g
           transform="translate(88.2104,27.4385)"
           id="g32"><path
             id="path34"
             style="fill:#ffeed7;fill-opacity:1;fill-rule:nonzero;stroke:none"
             d="m 0,0 h -11.519 v -5.631 c 0,-2.947 0.963,-4.412 2.94,-4.412 1.414,0 2.244,0.772 2.576,2.313 0.054,0.314 0.123,1.585 0.123,3.896 H 0 v -0.838 c 0,-1.851 -0.073,-3.133 -0.126,-3.713 -0.195,-1.271 -0.645,-2.431 -1.342,-3.451 -1.597,-2.307 -3.959,-3.445 -6.966,-3.445 -3.02,0 -5.311,1.086 -6.973,3.258 -1.225,1.587 -1.85,4.099 -1.85,7.472 V 6.584 c 0,3.4 0.553,5.887 1.781,7.492 1.659,2.178 3.957,3.26 6.897,3.26 2.89,0 5.182,-1.082 6.793,-3.26 C -0.579,12.471 0,9.984 0,6.584 Z m -21.741,-5.305 c 0,-2.939 -0.197,-5.058 -0.58,-6.406 -0.77,-2.363 -2.311,-3.57 -4.606,-3.57 -2.051,0 -4.026,1.138 -5.949,3.517 v -3.078 h -5.76 v 42.664 h 5.76 V 13.889 c 1.859,2.285 3.834,3.447 5.949,3.447 2.295,0 3.836,-1.207 4.606,-3.588 0.383,-1.277 0.58,-3.385 0.58,-6.391 z m -21.881,-9.537 h -5.765 v 3.465 c -2.287,-2.623 -4.464,-3.904 -6.58,-3.904 -1.858,0 -3.14,0.752 -3.711,2.363 -0.318,0.969 -0.509,2.482 -0.509,4.727 v 25.138 h 5.757 V -6.457 c 0,-1.348 0,-2.055 0.052,-2.24 0.141,-0.893 0.577,-1.346 1.349,-1.346 1.154,0 2.369,0.893 3.642,2.693 v 24.297 h 5.765 z m -17.403,36.654 h -6.903 v -36.654 h -6.407 v 36.654 h -6.776 v 6.01 h 20.086 z m 66.473,6.5 c -1.162,5.065 -5.305,8.805 -10.299,9.36 -11.82,1.324 -23.785,1.326 -35.691,1.324 -11.909,0.002 -23.871,0 -35.69,-1.324 -4.992,-0.555 -9.138,-4.295 -10.3,-9.36 -1.663,-7.226 -1.678,-15.097 -1.678,-22.533 0,-7.431 0,-15.316 1.658,-22.533 1.163,-5.064 5.306,-8.803 10.3,-9.365 11.819,-1.318 23.781,-1.324 35.69,-1.318 11.907,-0.006 23.872,0 35.69,1.318 4.99,0.562 9.137,4.301 10.301,9.365 1.666,7.217 1.672,15.102 1.672,22.533 0,7.436 0.007,15.307 -1.653,22.533" /></g></g></g></g></svg>